{
customParameters = (
{
name = glyphOrder;
value = (
    ".notdef",
    B,
    C,
    D,
    E,
    V,
    I,
    O,
    P,
    S,
    N,
    space,
    F,
    G,
    H,
    U,
    M,
    L,
    "L_I",
    "L_A",
    R,
    T,
    "T_A",
    "T_E",
    "T_I",
    K,
    J,
    Q,
    W,
    X,
    Y,
    Z,
    o,
    a,
    b,
    c,
    d,
    e,
    f,
    g,
    h,
    i,
    l,
    j,
    k,
    n,
    m,
    p,
    q,
    r,
    s,
    t,
    u,
    v,
    w,
    x,
    y,
    z,
    acute,
    "a_peq",
    aacute,
    "e_peq",
    eacute,
    dotlessi,
    iacute,
    oacute,
    "o_peq",
    "u_peq",
    uacute,
    dotaccent,
    edotaccent,
    one,
    seven,
    A,
    six,
    zero,
    period,
    two,
    three,
    four,
    five,
    eight,
    nine,
    comma,
    grave,
    agrave,
    egrave,
    igrave,
    ograve,
    ugrave,
    breve,
    caron,
    circumflex,
    abreve,
    acircumflex,
    ccaron,
    ebreve,
    ecaron,
    ecircumflex,
    "c.peq",
    cacute,
    ccircumflex,
    cdotaccent,
    dieresis,
    macron,
    amacron,
    emacron,
    imacron,
    omacron,
    edieresis,
    adieresis,
    idieresis,
    icircumflex,
    ibreve,
    obreve,
    ocircumflex,
    odieresis,
    ubreve,
    ucircumflex,
    udieresis,
    umacron,
    Eacute,
    tilde,
    ring,
    aring,
    uring,
    atilde,
    itilde,
    otilde,
    utilde,
    cedilla,
    ccedilla,
    fi,
    ff,
    ffi,
    oe,
    "T_O",
    ogonek,
    eogonek,
    hungarumlaut,
    uhungarumlaut,
    uogonek,
    iogonek,
    Eogonek,
    Iogonek,
    Uogonek,
    hyphen,
    parenleft,
    parenright,
    endash,
    emdash,
    minus,
    "A.peq",
    Aacute,
    Abreve,
    Acircumflex,
    Agrave,
    Adieresis,
    Amacron,
    Aogonek,
    Aring,
    Atilde,
    AE,
    Cacute,
    "C.peq",
    Ccaron,
    Ccedilla,
    Ccircumflex,
    Cdotaccent,
    "E.peq",
    Ebreve,
    Ecaron,
    Ecircumflex,
    Edieresis,
    Edotaccent,
    Egrave,

glyphs = (
{
glyphname = kn_A;
lastChange = "2015-09-03 19:02:26 +0000";
layers = (
{
layerId = "7A0FC40B-77F8-4D14-AD08-D047673E78CB";
name = Regular;
paths = (
{
closed = 1;
nodes = (
"746 605 OFFCURVE",
"677 589 OFFCURVE",
"630 561 CURVE",
"616 525 OFFCURVE",
"612 474 OFFCURVE",
"612 430 CURVE SMOOTH",
"612 368 OFFCURVE",
"642 242 OFFCURVE",
"659 199 CURVE",
"704 188 OFFCURVE",
"787 187 OFFCURVE",
"852 187 CURVE",
"848 232 OFFCURVE",
"848 277 OFFCURVE",
"852 322 CURVE",
"842 323 OFFCURVE",
"818 324 OFFCURVE",
"805 326 CURVE",
"806 335 OFFCURVE",
"807 405 OFFCURVE",
"808 416 CURVE SMOOTH",
"809 425 OFFCURVE",
"811 448 OFFCURVE",
"814 460 CURVE",
"837 460 OFFCURVE",
"852 452 OFFCURVE",
"866 445 CURVE",
"872 427 OFFCURVE",
"869 364 OFFCURVE",
"869 291 CURVE SMOOTH",
"869 215 OFFCURVE",
"860 161 OFFCURVE",
"856 147 CURVE",
"805 137 OFFCURVE",
"687 130 OFFCURVE",
"628 130 CURVE SMOOTH",
"569 130 OFFCURVE",
"409 137 OFFCURVE",
"358 147 CURVE",
"354 161 OFFCURVE",
"350 303 OFFCURVE",
"345 320 CURVE",
"372 317 OFFCURVE",
"412 317 OFFCURVE",
"442 317 CURVE SMOOTH",
"507 317 OFFCURVE",
"520 318 OFFCURVE",
"565 329 CURVE",
"582 372 OFFCURVE",
"592 406 OFFCURVE",
"592 450 CURVE SMOOTH",
"592 494 OFFCURVE",
"588 525 OFFCURVE",
"574 561 CURVE",
"527 589 OFFCURVE",
"468 605 OFFCURVE",
"356 605 CURVE SMOOTH",
"239 605 OFFCURVE",
"187 591 OFFCURVE",
"95 558 CURVE",
"44 478 OFFCURVE",
"30 404 OFFCURVE",
"30 320 CURVE SMOOTH",
"30 235 OFFCURVE",
"46 110 OFFCURVE",
"76 50 CURVE",
"287 -7 OFFCURVE",
"468 -11 OFFCURVE",
"622 -11 CURVE SMOOTH",
"736 -11 OFFCURVE",
"927 -7 OFFCURVE",
"1138 50 CURVE",
"1168 110 OFFCURVE",
"1184 235 OFFCURVE",
"1184 320 CURVE SMOOTH",
"1184 404 OFFCURVE",
"1170 478 OFFCURVE",
"1119 558 CURVE",
"1027 591 OFFCURVE",
"975 605 OFFCURVE",
"858 605 CURVE SMOOTH"
);
},
{
closed = 1;
nodes = (
"389 458 OFFCURVE",
"394 449 OFFCURVE",
"395 440 CURVE",
"361 435 OFFCURVE",
"340 435 OFFCURVE",
"313 435 CURVE",
"315 443 OFFCURVE",
"318 447 OFFCURVE",
"324 455 CURVE",
"338 462 OFFCURVE",
"363 470 OFFCURVE",
"386 470 CURVE"
);
},
{
closed = 1;
nodes = (
"600 309 LINE",
"399 299 LINE",
"410 239 OFFCURVE",
"414 223 OFFCURVE",
"415 163 CURVE",
"523 171 OFFCURVE",
"583 172 OFFCURVE",
"689 178 CURVE SMOOTH",
"838 187 LINE",
"803 325 LINE"
);
}
);
width = 1214;
}
);
unicode = 0C85;
},
{
glyphname = kn_Aa;
lastChange = "2015-09-03 19:02:26 +0000";
layers = (
{
layerId = "7A0FC40B-77F8-4D14-AD08-D047673E78CB";
name = Regular;
paths = (
{
closed = 1;
nodes = (
"754 608 OFFCURVE",
"700 595 OFFCURVE",
"645 563 CURVE",
"616 519 OFFCURVE",
"613 477 OFFCURVE",
"613 430 CURVE SMOOTH",
"613 387 OFFCURVE",
"625 362 OFFCURVE",
"638 326 CURVE",
"703 297 OFFCURVE",
"736 295 OFFCURVE",
"775 273 CURVE",
"786 270 OFFCURVE",
"808 241 OFFCURVE",
"809 210 CURVE SMOOTH",
"809 178 OFFCURVE",
"800 155 OFFCURVE",
"790 147 CURVE",
"739 137 OFFCURVE",
"647 130 OFFCURVE",
"618 130 CURVE SMOOTH",
"559 130 OFFCURVE",
"409 137 OFFCURVE",
"358 147 CURVE",
"354 161 OFFCURVE",
"350 303 OFFCURVE",
"345 320 CURVE",
"372 317 OFFCURVE",
"412 317 OFFCURVE",
"442 317 CURVE SMOOTH",
"507 317 OFFCURVE",
"520 318 OFFCURVE",
"565 329 CURVE",
"582 372 OFFCURVE",
"592 406 OFFCURVE",
"592 450 CURVE SMOOTH",
"592 494 OFFCURVE",
"588 525 OFFCURVE",
"574 561 CURVE",
"527 589 OFFCURVE",
"468 605 OFFCURVE",
"356 605 CURVE SMOOTH",
"239 605 OFFCURVE",
"187 591 OFFCURVE",
"95 558 CURVE",
"44 478 OFFCURVE",
"30 404 OFFCURVE",
"30 320 CURVE SMOOTH",
"30 235 OFFCURVE",
"46 110 OFFCURVE",
"76 50 CURVE",
"287 -7 OFFCURVE",
"458 -11 OFFCURVE",
"612 -11 CURVE SMOOTH",
"626 -11 OFFCURVE",
"817 -7 OFFCURVE",
"1028 50 CURVE",
"1065 106 OFFCURVE",
"1069 150 OFFCURVE",
"1069 195 CURVE SMOOTH",
"1069 253 OFFCURVE",
"1045 297 OFFCURVE",
"1031 309 CURVE SMOOTH",
"1015 323 OFFCURVE",
"913 374 OFFCURVE",
"834 407 CURVE",
"826 418 OFFCURVE",
"830 448 OFFCURVE",
"830 463 CURVE",
"864 467 OFFCURVE",
"859 469 OFFCURVE",
"888 469 CURVE",
"892 454 OFFCURVE",
"890 406 OFFCURVE",
"891 393 CURVE",
"878 391 OFFCURVE",
"823 366 OFFCURVE",
"813 365 CURVE",
"817 320 OFFCURVE",
"817 275 OFFCURVE",
"813 230 CURVE",
"952 230 OFFCURVE",
"1044 248 OFFCURVE",
"1089 275 CURVE",
"1106 318 OFFCURVE",
"1108 380 OFFCURVE",
"1108 442 CURVE SMOOTH",
"1108 486 OFFCURVE",
"1091 544 OFFCURVE",
"1066 580 CURVE",
"994 597 OFFCURVE",
"946 608 OFFCURVE",
"859 608 CURVE SMOOTH"
);
},
{
closed = 1;
nodes = (
"389 458 OFFCURVE",
"394 449 OFFCURVE",
"395 440 CURVE",
"361 435 OFFCURVE",
"340 435 OFFCURVE",
"313 435 CURVE",
"315 443 OFFCURVE",
"318 447 OFFCURVE",
"324 455 CURVE",
"338 462 OFFCURVE",
"363 470 OFFCURVE",
"386 470 CURVE"
);
},
{
closed = 1;
nodes = (
"590 309 LINE",
"399 299 LINE",
"410 239 OFFCURVE",
"414 223 OFFCURVE",
"415 163 CURVE",
"523 171 OFFCURVE",
"513 167 OFFCURVE",
"619 178 CURVE SMOOTH",
"845 202 LINE",
"780 340 LINE"
);
}
);
width = 1128;
}
);
unicode = 0C86;
},
{
glyphname = kn_I;
lastChange = "2015-09-03 19:02:26 +0000";
layers = (
{
layerId = "7A0FC40B-77F8-4D14-AD08-D047673E78CB";
name = Regular;
paths = (
{
closed = 1;
nodes = (
"620 605 OFFCURVE",
"529 556 OFFCURVE",
"504 529 CURVE",
"477 561 OFFCURVE",
"410 605 OFFCURVE",
"307 605 CURVE SMOOTH",
"200 605 OFFCURVE",
"96 587 OFFCURVE",
"65 560 CURVE",
"44 536 OFFCURVE",
"20 485 OFFCURVE",
"20 438 CURVE SMOOTH",
"20 388 OFFCURVE",
"26 315 OFFCURVE",
"48 285 CURVE",
"99 299 OFFCURVE",
"270 313 OFFCURVE",
"338 313 CURVE",
"327 332 OFFCURVE",
"324 374 OFFCURVE",
"324 398 CURVE SMOOTH",
"324 436 OFFCURVE",
"332 464 OFFCURVE",
"341 464 CURVE SMOOTH",
"349 464 OFFCURVE",
"352 462 OFFCURVE",
"356 459 CURVE",
"367 440 OFFCURVE",
"367 398 OFFCURVE",
"367 383 CURVE SMOOTH",
"367 359 OFFCURVE",
"364 344 OFFCURVE",
"359 320 CURVE",
"384 324 OFFCURVE",
"448 328 OFFCURVE",
"510 328 CURVE SMOOTH",
"563 328 OFFCURVE",
"615 325 OFFCURVE",
"646 320 CURVE",
"641 344 OFFCURVE",
"638 361 OFFCURVE",
"638 383 CURVE SMOOTH",
"638 404 OFFCURVE",
"639 435 OFFCURVE",
"650 459 CURVE",
"655 459 OFFCURVE",
"658 458 OFFCURVE",
"663 451 CURVE",
"682 420 OFFCURVE",
"683 339 OFFCURVE",
"683 297 CURVE SMOOTH",
"683 283 OFFCURVE",
"679 269 OFFCURVE",
"678 264 CURVE",
"665 264 OFFCURVE",
"570 281 OFFCURVE",
"533 284 CURVE SMOOTH",
"469 289 OFFCURVE",
"420 291 OFFCURVE",
"386 291 CURVE SMOOTH",
"325 291 OFFCURVE",
"261 296 OFFCURVE",
"216 276 CURVE",
"192 228 OFFCURVE",
"184 223 OFFCURVE",
"184 175 CURVE SMOOTH",
"184 122 OFFCURVE",
"194 78 OFFCURVE",
"226 30 CURVE",
"310 1 OFFCURVE",
"378 -11 OFFCURVE",
"490 -11 CURVE SMOOTH",
"615 -11 OFFCURVE",
"704 1 OFFCURVE",
"766 23 CURVE",
"838 64 OFFCURVE",
"984 176 OFFCURVE",
"984 297 CURVE SMOOTH",
"984 402 OFFCURVE",
"982 471 OFFCURVE",
"926 547 CURVE",
"858 587 OFFCURVE",
"803 605 OFFCURVE",
"705 605 CURVE SMOOTH"
);
},
{
closed = 1;
nodes = (
"625 141 LINE",
"623 123 OFFCURVE",
"622 136 OFFCURVE",
"619 121 CURVE",
"610 119 OFFCURVE",
"431 130 OFFCURVE",
"415 130 CURVE",
"411 151 OFFCURVE",
"409 141 OFFCURVE",
"410 163 CURVE"
);
},
{
closed = 1;
nodes = (
"637 71 LINE",
"651 71 OFFCURVE",
"664 66 OFFCURVE",
"674 56 CURVE",
"682 48 OFFCURVE",
"690 9 OFFCURVE",
"690 -23 CURVE SMOOTH",
"690 -47 OFFCURVE",
"687 -83 OFFCURVE",
"676 -102 CURVE",
"744 -107 OFFCURVE",
"895 -121 OFFCURVE",
"946 -130 CURVE",
"968 -100 OFFCURVE",
"974 -26 OFFCURVE",
"974 24 CURVE SMOOTH",
"974 71 OFFCURVE",
"959 133 OFFCURVE",
"946 148 CURVE",
"915 175 OFFCURVE",
"708 212 OFFCURVE",
"657 212 CURVE"
);
}
);
width = 1014;
}
);
unicode = 0C87;
},
{
glyphname = kn_Ii;
lastChange = "2015-09-03 19:02:26 +0000";
layers = (
{
layerId = "7A0FC40B-77F8-4D14-AD08-D047673E78CB";
name = Regular;
paths = (
{
closed = 1;
nodes = (
"204 581 OFFCURVE",
"175 566 OFFCURVE",
"140 545 CURVE",
"100 491 OFFCURVE",
"60 374 OFFCURVE",
"60 301 CURVE SMOOTH",
"60 200 OFFCURVE",
"78 97 OFFCURVE",
"134 29 CURVE",
"201 0 OFFCURVE",
"377 -12 OFFCURVE",
"534 -12 CURVE SMOOTH",
"664 -12 OFFCURVE",
"799 11 OFFCURVE",
"867 57 CURVE",
"899 128 OFFCURVE",
"914 199 OFFCURVE",
"914 287 CURVE SMOOTH",
"914 368 OFFCURVE",
"894 477 OFFCURVE",
"849 542 CURVE",
"815 564 OFFCURVE",
"780 580 OFFCURVE",
"718 590 CURVE",
"268 591 LINE"
);
},
{
closed = 1;
nodes = (
"502 446 OFFCURVE",
"587 444 OFFCURVE",
"594 438 CURVE",
"604 419 OFFCURVE",
"609 350 OFFCURVE",
"609 297 CURVE SMOOTH",
"609 208 OFFCURVE",
"594 129 OFFCURVE",
"563 129 CURVE SMOOTH",
"524 129 OFFCURVE",
"384 133 OFFCURVE",
"377 141 CURVE",
"370 153 OFFCURVE",
"364 229 OFFCURVE",
"364 274 CURVE SMOOTH",
"364 315 OFFCURVE",
"368 398 OFFCURVE",
"383 432 CURVE",
"393 441 OFFCURVE",
"466 446 OFFCURVE",
"490 446 CURVE SMOOTH"
);
},
{
closed = 1;
nodes = (
"1113 380 OFFCURVE",
"771 359 OFFCURVE",
"493 349 CURVE SMOOTH",
"409 346 OFFCURVE",
"332 346 OFFCURVE",
"266 346 CURVE SMOOTH",
"189 346 OFFCURVE",
"76 350 OFFCURVE",
"12 353 CURVE",
"4 292 OFFCURVE",
"7 246 OFFCURVE",
"7 195 CURVE",
"63 198 OFFCURVE",
"287 212 OFFCURVE",
"501 217 CURVE SMOOTH",
"804 225 OFFCURVE",
"1161 231 OFFCURVE",
"1283 290 CURVE",
"1284 335 OFFCURVE",
"1283 418 OFFCURVE",
"1291 465 CURVE"
);
},
{
closed = 1;
nodes = (
"751 625 OFFCURVE",
"734 609 OFFCURVE",
"575 605 CURVE SMOOTH",
"10 591 LINE",
"21 529 OFFCURVE",
"11 467 OFFCURVE",
"0 405 CURVE",
"350 422 LINE",
"480 485 LINE",
"621 424 LINE",
"664 416 LINE SMOOTH",
"769 396 OFFCURVE",
"816 423 OFFCURVE",
"872 456 CURVE SMOOTH",
"920 484 OFFCURVE",
"954 535 OFFCURVE",
"954 590 CURVE SMOOTH",
"954 635 OFFCURVE",
"942 672 OFFCURVE",
"908 699 CURVE",
"877 699 OFFCURVE",
"815 702 OFFCURVE",
"784 707 CURVE"
);
},
{
closed = 1;
nodes = (
"1072 483 OFFCURVE",
"1064 473 OFFCURVE",
"996 448 CURVE",
"969 408 OFFCURVE",
"967 368 OFFCURVE",
"967 336 CURVE SMOOTH",
"967 290 OFFCURVE",
"1064 219 OFFCURVE",
"1064 147 CURVE SMOOTH",
"1064 120 OFFCURVE",
"1006 114 OFFCURVE",
"985 114 CURVE SMOOTH",
"959 114 OFFCURVE",
"935 116 OFFCURVE",
"917 121 CURVE",
"915 87 OFFCURVE",
"911 44 OFFCURVE",
"898 9 CURVE",
"949 -4 OFFCURVE",
"998 -11 OFFCURVE",
"1060 -11 CURVE SMOOTH",
"1135 -11 OFFCURVE",
"1210 -6 OFFCURVE",
"1273 30 CURVE",
"1300 61 OFFCURVE",
"1308 107 OFFCURVE",
"1308 141 CURVE SMOOTH",
"1308 210 OFFCURVE",
"1176 277 OFFCURVE",
"1185 318 CURVE",
"1218 321 OFFCURVE",
"1201 322 OFFCURVE",
"1229 322 CURVE SMOOTH",
"1246 322 OFFCURVE",
"1255 321 OFFCURVE",
"1272 319 CURVE",
"1272 335 OFFCURVE",
"1273 356 OFFCURVE",
"1277 379 CURVE SMOOTH",
"1280 402 OFFCURVE",
"1285 445 OFFCURVE",
"1291 465 CURVE",
"1238 477 OFFCURVE",
"1209 483 OFFCURVE",
"1155 483 CURVE SMOOTH"
);
}
);
width = 1328;
}
);
unicode = 0C88;
},
{
glyphname = kn_U;
lastChange = "2015-09-03 19:02:26 +0000";
layers = (
{
layerId = "7A0FC40B-77F8-4D14-AD08-D047673E78CB";
name = Regular;
paths = (
{
closed = 1;
nodes = (
"1521 550 OFFCURVE",
"1515 370 OFFCURVE",
"1515 332 CURVE SMOOTH",
"1515 290 OFFCURVE",
"1510 171 OFFCURVE",
"1495 140 CURVE",
"1485 131 OFFCURVE",
"1467 127 OFFCURVE",
"1455 127 CURVE SMOOTH",
"1443 127 OFFCURVE",
"1427 131 OFFCURVE",
"1417 140 CURVE",
"1402 171 OFFCURVE",
"1397 219 OFFCURVE",
"1397 293 CURVE SMOOTH",
"1397 366 OFFCURVE",
"1395 450 OFFCURVE",
"1339 526 CURVE",
"1271 566 OFFCURVE",
"1171 605 OFFCURVE",
"1036 605 CURVE SMOOTH",
"891 605 OFFCURVE",
"801 585 OFFCURVE",
"733 545 CURVE",
"676 451 OFFCURVE",
"675 355 OFFCURVE",
"675 292 CURVE SMOOTH",
"675 239 OFFCURVE",
"670 174 OFFCURVE",
"661 154 CURVE",
"640 141 OFFCURVE",
"602 130 OFFCURVE",
"518 130 CURVE SMOOTH",
"459 130 OFFCURVE",
"409 136 OFFCURVE",
"358 146 CURVE",
"354 160 OFFCURVE",
"350 242 OFFCURVE",
"345 259 CURVE",
"372 256 OFFCURVE",
"412 256 OFFCURVE",
"442 256 CURVE SMOOTH",
"507 256 OFFCURVE",
"570 257 OFFCURVE",
"615 268 CURVE",
"632 311 OFFCURVE",
"642 377 OFFCURVE",
"642 439 CURVE SMOOTH",
"642 483 OFFCURVE",
"638 524 OFFCURVE",
"624 560 CURVE",
"577 588 OFFCURVE",
"468 604 OFFCURVE",
"356 604 CURVE SMOOTH",
"239 604 OFFCURVE",
"187 590 OFFCURVE",
"95 557 CURVE",
"44 477 OFFCURVE",
"30 403 OFFCURVE",
"30 319 CURVE SMOOTH",
"30 234 OFFCURVE",
"46 109 OFFCURVE",
"76 49 CURVE",
"287 -8 OFFCURVE",
"398 -11 OFFCURVE",
"542 -11 CURVE SMOOTH",
"666 -11 OFFCURVE",
"867 8 OFFCURVE",
"934 50 CURVE",
"966 116 OFFCURVE",
"980 203 OFFCURVE",
"980 284 CURVE SMOOTH",
"980 326 OFFCURVE",
"982 423 OFFCURVE",
"997 454 CURVE",
"1007 463 OFFCURVE",
"1023 467 OFFCURVE",
"1035 467 CURVE SMOOTH",
"1047 467 OFFCURVE",
"1065 463 OFFCURVE",
"1075 454 CURVE",
"1090 423 OFFCURVE",
"1095 324 OFFCURVE",
"1095 282 CURVE SMOOTH",
"1095 219 OFFCURVE",
"1096 143 OFFCURVE",
"1153 49 CURVE",
"1221 9 OFFCURVE",
"1311 -11 OFFCURVE",
"1456 -11 CURVE SMOOTH",
"1601 -11 OFFCURVE",
"1691 28 OFFCURVE",
"1759 68 CURVE",
"1815 144 OFFCURVE",
"1817 228 OFFCURVE",
"1817 333 CURVE SMOOTH",
"1817 404 OFFCURVE",
"1806 550 OFFCURVE",
"1799 598 CURVE",
"1760 597 OFFCURVE",
"1731 596 OFFCURVE",
"1691 596 CURVE SMOOTH",
"1634 596 OFFCURVE",
"1576 598 OFFCURVE",
"1515 605 CURVE"
);
},
{
closed = 1;
nodes = (
"413 447 OFFCURVE",
"415 434 OFFCURVE",
"416 425 CURVE SMOOTH",
"417 414 OFFCURVE",
"418 404 OFFCURVE",
"419 395 CURVE",
"385 390 OFFCURVE",
"364 390 OFFCURVE",
"337 390 CURVE",
"339 408 OFFCURVE",
"342 426 OFFCURVE",
"348 444 CURVE",
"362 451 OFFCURVE",
"387 459 OFFCURVE",
"410 459 CURVE"
);
}
);
width = 1857;
}
);
unicode = 0C89;
},
{
glyphname = kn_Uu;
lastChange = "2015-09-03 19:02:26 +0000";
layers = (
{
layerId = "7A0FC40B-77F8-4D14-AD08-D047673E78CB";
name = Regular;
paths = (
{
closed = 1;
nodes = (
"1826 605 OFFCURVE",
"1625 586 OFFCURVE",
"1558 544 CURVE",
"1526 478 OFFCURVE",
"1512 391 OFFCURVE",
"1512 310 CURVE SMOOTH",
"1512 268 OFFCURVE",
"1510 171 OFFCURVE",
"1495 140 CURVE",
"1485 131 OFFCURVE",
"1469 127 OFFCURVE",
"1457 127 CURVE SMOOTH",
"1445 127 OFFCURVE",
"1427 131 OFFCURVE",
"1417 140 CURVE",
"1402 171 OFFCURVE",
"1397 219 OFFCURVE",
"1397 293 CURVE SMOOTH",
"1397 366 OFFCURVE",
"1395 450 OFFCURVE",
"1339 526 CURVE",
"1271 566 OFFCURVE",
"1171 605 OFFCURVE",
"1036 605 CURVE SMOOTH",
"891 605 OFFCURVE",
"801 585 OFFCURVE",
"733 545 CURVE",
"676 451 OFFCURVE",
"675 355 OFFCURVE",
"675 292 CURVE SMOOTH",
"675 239 OFFCURVE",
"670 174 OFFCURVE",
"661 154 CURVE",
"640 141 OFFCURVE",
"602 130 OFFCURVE",
"518 130 CURVE SMOOTH",
"459 130 OFFCURVE",
"409 136 OFFCURVE",
"358 146 CURVE",
"354 160 OFFCURVE",
"350 242 OFFCURVE",
"345 259 CURVE",
"372 256 OFFCURVE",
"412 256 OFFCURVE",
"442 256 CURVE SMOOTH",
"507 256 OFFCURVE",
"570 257 OFFCURVE",
"615 268 CURVE",
"632 311 OFFCURVE",
"642 377 OFFCURVE",
"642 439 CURVE SMOOTH",
"642 483 OFFCURVE",
"638 524 OFFCURVE",
"624 560 CURVE",
"577 588 OFFCURVE",
"468 604 OFFCURVE",
"356 604 CURVE SMOOTH",
"239 604 OFFCURVE",
"187 590 OFFCURVE",
"95 557 CURVE",
"44 477 OFFCURVE",
"30 403 OFFCURVE",
"30 319 CURVE SMOOTH",
"30 234 OFFCURVE",
"46 109 OFFCURVE",
"76 49 CURVE",
"287 -8 OFFCURVE",
"398 -11 OFFCURVE",
"542 -11 CURVE SMOOTH",
"666 -11 OFFCURVE",
"867 8 OFFCURVE",
"934 50 CURVE",
"966 116 OFFCURVE",
"980 203 OFFCURVE",
"980 284 CURVE SMOOTH",
"980 326 OFFCURVE",
"982 423 OFFCURVE",
"997 454 CURVE",
"1007 463 OFFCURVE",
"1023 467 OFFCURVE",
"1035 467 CURVE SMOOTH",
"1047 467 OFFCURVE",
"1065 463 OFFCURVE",
"1075 454 CURVE",
"1090 423 OFFCURVE",
"1095 324 OFFCURVE",
"1095 282 CURVE SMOOTH",
"1095 219 OFFCURVE",
"1096 143 OFFCURVE",
"1153 49 CURVE",
"1221 9 OFFCURVE",
"1311 -11 OFFCURVE",
"1456 -11 CURVE SMOOTH",
"1601 -11 OFFCURVE",
"1691 9 OFFCURVE",
"1759 49 CURVE",
"1816 143 OFFCURVE",
"1817 239 OFFCURVE",
"1817 302 CURVE SMOOTH",
"1817 355 OFFCURVE",
"1822 420 OFFCURVE",
"1831 440 CURVE",
"1852 453 OFFCURVE",
"1890 464 OFFCURVE",
"1974 464 CURVE SMOOTH",
"2033 464 OFFCURVE",
"2083 458 OFFCURVE",
"2134 448 CURVE",
"2138 434 OFFCURVE",
"2142 352 OFFCURVE",
"2147 335 CURVE",
"2120 338 OFFCURVE",
"2080 338 OFFCURVE",
"2050 338 CURVE SMOOTH",
"1985 338 OFFCURVE",
"1922 337 OFFCURVE",
"1877 326 CURVE",
"1860 283 OFFCURVE",
"1850 217 OFFCURVE",
"1850 155 CURVE SMOOTH",
"1850 111 OFFCURVE",
"1854 70 OFFCURVE",
"1868 34 CURVE",
"1915 6 OFFCURVE",
"2024 -10 OFFCURVE",
"2136 -10 CURVE SMOOTH",
"2253 -10 OFFCURVE",
"2305 4 OFFCURVE",
"2397 37 CURVE",
"2448 117 OFFCURVE",
"2462 191 OFFCURVE",
"2462 275 CURVE SMOOTH",
"2462 360 OFFCURVE",
"2446 485 OFFCURVE",
"2416 545 CURVE",
"2205 602 OFFCURVE",
"2094 605 OFFCURVE",
"1950 605 CURVE SMOOTH"
);
},
{
closed = 1;
nodes = (
"413 447 OFFCURVE",
"415 434 OFFCURVE",
"416 425 CURVE SMOOTH",
"417 414 OFFCURVE",
"418 404 OFFCURVE",
"419 395 CURVE",
"385 390 OFFCURVE",
"364 390 OFFCURVE",
"337 390 CURVE",
"339 408 OFFCURVE",
"342 426 OFFCURVE",
"348 444 CURVE",
"362 451 OFFCURVE",
"387 459 OFFCURVE",
"410 459 CURVE"
);
},
{
closed = 1;
nodes = (
"2153 186 OFFCURVE",
"2150 168 OFFCURVE",
"2144 150 CURVE",
"2130 143 OFFCURVE",
"2105 135 OFFCURVE",
"2082 135 CURVE",
"2079 147 OFFCURVE",
"2077 160 OFFCURVE",
"2076 169 CURVE SMOOTH",
"2075 180 OFFCURVE",
"2074 190 OFFCURVE",
"2073 199 CURVE",
"2107 204 OFFCURVE",
"2128 204 OFFCURVE",
"2155 204 CURVE"
);
}
);
width = 2492;
}
);
unicode = 0C8A;
},
{
glyphname = kn_VocR;
lastChange = "2015-09-03 19:02:26 +0000";
layers = (
{
layerId = "7A0FC40B-77F8-4D14-AD08-D047673E78CB";
name = Regular;
paths = (
{
closed = 1;
nodes = (
"304 605 OFFCURVE",
"156 593 OFFCURVE",
"72 564 CURVE",
"40 516 OFFCURVE",
"30 472 OFFCURVE",
"30 419 CURVE SMOOTH",
"30 371 OFFCURVE",
"38 366 OFFCURVE",
"62 318 CURVE",
"107 298 OFFCURVE",
"172 303 OFFCURVE",
"232 303 CURVE SMOOTH",
"277 303 OFFCURVE",
"356 305 OFFCURVE",
"419 315 CURVE",
"413 383 OFFCURVE",
"404 410 OFFCURVE",
"413 478 CURVE",
"429 478 OFFCURVE",
"441 475 OFFCURVE",
"450 473 CURVE",
"460 431 OFFCURVE",
"464 384 OFFCURVE",
"464 299 CURVE SMOOTH",
"464 214 OFFCURVE",
"460 163 OFFCURVE",
"450 121 CURVE",
"441 119 OFFCURVE",
"429 116 OFFCURVE",
"413 116 CURVE",
"404 184 OFFCURVE",
"413 211 OFFCURVE",
"419 279 CURVE",
"356 289 OFFCURVE",
"277 291 OFFCURVE",
"232 291 CURVE SMOOTH",
"172 291 OFFCURVE",
"107 296 OFFCURVE",
"62 276 CURVE",
"38 228 OFFCURVE",
"30 223 OFFCURVE",
"30 175 CURVE SMOOTH",
"30 122 OFFCURVE",
"40 78 OFFCURVE",
"72 30 CURVE",
"156 1 OFFCURVE",
"304 -11 OFFCURVE",
"416 -11 CURVE SMOOTH",
"572 -11 OFFCURVE",
"652 8 OFFCURVE",
"723 41 CURVE",
"749 100 OFFCURVE",
"760 204 OFFCURVE",
"760 297 CURVE SMOOTH",
"760 390 OFFCURVE",
"749 494 OFFCURVE",
"723 553 CURVE",
"652 586 OFFCURVE",
"572 605 OFFCURVE",
"416 605 CURVE SMOOTH"
);
},
{
closed = 1;
nodes = (
"234 191 OFFCURVE",
"241 190 OFFCURVE",
"250 187 CURVE",
"250 165 OFFCURVE",
"249 165 OFFCURVE",
"243 142 CURVE",
"240 141 OFFCURVE",
"235 140 OFFCURVE",
"233 140 CURVE SMOOTH",
"230 139 OFFCURVE",
"226 139 OFFCURVE",
"221 139 CURVE SMOOTH",
"215 139 OFFCURVE",
"208 140 OFFCURVE",
"203 142 CURVE",
"200 147 OFFCURVE",
"200 153 OFFCURVE",
"200 161 CURVE SMOOTH",
"200 182 OFFCURVE",
"201 174 OFFCURVE",
"204 188 CURVE",
"211 190 OFFCURVE",
"219 191 OFFCURVE",
"225 191 CURVE SMOOTH"
);
},
{
closed = 1;
nodes = (
"226 455 OFFCURVE",
"230 455 OFFCURVE",
"233 454 CURVE SMOOTH",
"235 454 OFFCURVE",
"240 453 OFFCURVE",
"243 452 CURVE",
"249 429 OFFCURVE",
"250 429 OFFCURVE",
"250 407 CURVE",
"241 404 OFFCURVE",
"234 403 OFFCURVE",
"225 403 CURVE SMOOTH",
"219 403 OFFCURVE",
"211 404 OFFCURVE",
"204 406 CURVE",
"201 420 OFFCURVE",
"200 412 OFFCURVE",
"200 433 CURVE SMOOTH",
"200 441 OFFCURVE",
"200 447 OFFCURVE",
"203 452 CURVE",
"208 454 OFFCURVE",
"215 455 OFFCURVE",
"221 455 CURVE SMOOTH"
);
},
{
closed = 1;
nodes = (
"1126 597 OFFCURVE",
"1097 596 OFFCURVE",
"1057 596 CURVE SMOOTH",
"1000 596 OFFCURVE",
"942 572 OFFCURVE",
"881 579 CURVE",
"887 524 OFFCURVE",
"881 370 OFFCURVE",
"881 332 CURVE SMOOTH",
"881 290 OFFCURVE",
"876 171 OFFCURVE",
"861 140 CURVE",
"851 131 OFFCURVE",
"823 127 OFFCURVE",
"811 127 CURVE SMOOTH",
"784 127 OFFCURVE",
"748 140 OFFCURVE",
"721 156 CURVE SMOOTH",
"684 178 OFFCURVE",
"656 207 OFFCURVE",
"645 222 CURVE",
"519 138 LINE",
"552 105 OFFCURVE",
"600 51 OFFCURVE",
"661 27 CURVE SMOOTH",
"718 5 OFFCURVE",
"766 -11 OFFCURVE",
"847 -11 CURVE SMOOTH",
"963 -11 OFFCURVE",
"1057 18 OFFCURVE",
"1125 58 CURVE",
"1181 134 OFFCURVE",
"1183 228 OFFCURVE",
"1183 333 CURVE SMOOTH",
"1183 404 OFFCURVE",
"1172 550 OFFCURVE",
"1165 598 CURVE"
);
},
{
closed = 1;
nodes = (
"1318 550 OFFCURVE",
"1312 370 OFFCURVE",
"1312 332 CURVE SMOOTH",
"1312 290 OFFCURVE",
"1307 171 OFFCURVE",
"1292 140 CURVE",
"1282 131 OFFCURVE",
"1254 127 OFFCURVE",
"1242 127 CURVE SMOOTH",
"1215 127 OFFCURVE",
"1179 140 OFFCURVE",
"1152 156 CURVE SMOOTH",
"1115 178 OFFCURVE",
"1087 207 OFFCURVE",
"1076 222 CURVE",
"950 138 LINE",
"995 93 OFFCURVE",
"1125 -11 OFFCURVE",
"1273 -11 CURVE SMOOTH",
"1418 -11 OFFCURVE",
"1488 8 OFFCURVE",
"1556 48 CURVE",
"1612 124 OFFCURVE",
"1614 228 OFFCURVE",
"1614 333 CURVE SMOOTH",
"1614 404 OFFCURVE",
"1603 550 OFFCURVE",
"1596 598 CURVE",
"1557 597 OFFCURVE",
"1528 596 OFFCURVE",
"1488 596 CURVE SMOOTH",
"1431 596 OFFCURVE",
"1373 598 OFFCURVE",
"1312 605 CURVE"
);
},
{
closed = 1;
nodes = (
"1065 625 OFFCURVE",
"1047 593 OFFCURVE",
"909 605 CURVE SMOOTH",
"791 615 LINE",
"802 555 OFFCURVE",
"808 494 OFFCURVE",
"807 434 CURVE",
"916 424 LINE",
"998 416 LINE SMOOTH",
"1075 408 OFFCURVE",
"1120 423 OFFCURVE",
"1176 456 CURVE SMOOTH",
"1224 484 OFFCURVE",
"1258 535 OFFCURVE",
"1258 590 CURVE SMOOTH",
"1258 635 OFFCURVE",
"1246 672 OFFCURVE",
"1212 699 CURVE",
"1181 699 OFFCURVE",
"1129 702 OFFCURVE",
"1098 707 CURVE"
);
}
);
width = 1654;
}
);
unicode = 0C8B;
},
{
glyphname = kn_VocL;
lastChange = "2015-09-03 19:02:26 +0000";
layers = (
{
layerId = "7A0FC40B-77F8-4D14-AD08-D047673E78CB";
name = Regular;
paths = (
{
closed = 1;
nodes = (
"1001 551 OFFCURVE",
"995 370 OFFCURVE",
"995 332 CURVE SMOOTH",
"995 290 OFFCURVE",
"990 175 OFFCURVE",
"975 144 CURVE",
"965 135 OFFCURVE",
"928 131 OFFCURVE",
"875 131 CURVE SMOOTH",
"846 131 OFFCURVE",
"804 133 OFFCURVE",
"770 137 CURVE",
"770 152 OFFCURVE",
"766 182 OFFCURVE",
"774 193 CURVE",
"853 226 OFFCURVE",
"925 275 OFFCURVE",
"941 286 CURVE SMOOTH",
"955 296 OFFCURVE",
"979 342 OFFCURVE",
"979 400 CURVE SMOOTH",
"979 445 OFFCURVE",
"975 501 OFFCURVE",
"938 557 CURVE",
"843 592 OFFCURVE",
"801 605 OFFCURVE",
"705 605 CURVE",
"620 605 OFFCURVE",
"529 556 OFFCURVE",
"504 529 CURVE",
"477 561 OFFCURVE",
"410 605 OFFCURVE",
"307 605 CURVE SMOOTH",
"200 605 OFFCURVE",
"96 587 OFFCURVE",
"65 560 CURVE",
"44 536 OFFCURVE",
"20 485 OFFCURVE",
"20 438 CURVE SMOOTH",
"20 388 OFFCURVE",
"26 315 OFFCURVE",
"48 285 CURVE",
"99 299 OFFCURVE",
"270 313 OFFCURVE",
"338 313 CURVE",
"327 332 OFFCURVE",
"324 374 OFFCURVE",
"324 398 CURVE SMOOTH",
"324 436 OFFCURVE",
"332 464 OFFCURVE",
"341 464 CURVE SMOOTH",
"349 464 OFFCURVE",
"352 462 OFFCURVE",
"356 459 CURVE",
"367 440 OFFCURVE",
"367 398 OFFCURVE",
"367 383 CURVE SMOOTH",
"367 359 OFFCURVE",
"364 344 OFFCURVE",
"359 320 CURVE",
"384 324 OFFCURVE",
"448 328 OFFCURVE",
"510 328 CURVE SMOOTH",
"563 328 OFFCURVE",
"615 325 OFFCURVE",
"646 320 CURVE",
"641 344 OFFCURVE",
"638 361 OFFCURVE",
"638 383 CURVE SMOOTH",
"638 404 OFFCURVE",
"640 435 OFFCURVE",
"662 459 CURVE",
"694 434 OFFCURVE",
"678 329 OFFCURVE",
"675 322 CURVE",
"635 300 OFFCURVE",
"579 288 OFFCURVE",
"498 272 CURVE",
"485 236 OFFCURVE",
"473 211 OFFCURVE",
"473 168 CURVE SMOOTH",
"473 121 OFFCURVE",
"476 79 OFFCURVE",
"505 35 CURVE",
"533 19 OFFCURVE",
"603 10 OFFCURVE",
"681 0 CURVE SMOOTH",
"758 -10 OFFCURVE",
"815 -11 OFFCURVE",
"878 -11 CURVE SMOOTH",
"950 -11 OFFCURVE",
"1007 -12 OFFCURVE",
"1075 -3 CURVE SMOOTH",
"1145 7 OFFCURVE",
"1205 28 OFFCURVE",
"1239 48 CURVE",
"1295 124 OFFCURVE",
"1297 228 OFFCURVE",
"1297 333 CURVE SMOOTH",
"1297 404 OFFCURVE",
"1286 551 OFFCURVE",
"1279 599 CURVE",
"1240 598 OFFCURVE",
"1211 597 OFFCURVE",
"1171 597 CURVE SMOOTH",
"1114 597 OFFCURVE",
"1056 599 OFFCURVE",
"995 606 CURVE"
);
}
);
width = 1337;
}
);
unicode = 0C8C;
},
{
glyphname = kn_E;
lastChange = "2015-09-03 19:02:26 +0000";
layers = (
{
layerId = "7A0FC40B-77F8-4D14-AD08-D047673E78CB";
name = Regular;
paths = (
{
closed = 1;
nodes = (
"279 656 OFFCURVE",
"158 622 OFFCURVE",
"62 592 CURVE",
"80 539 OFFCURVE",
"97 488 OFFCURVE",
"97 430 CURVE",
"188 456 OFFCURVE",
"265 478 OFFCURVE",
"455 478 CURVE SMOOTH",
"571 478 OFFCURVE",
"613 463 OFFCURVE",
"663 447 CURVE",
"686 418 OFFCURVE",
"715 331 OFFCURVE",
"715 259 CURVE SMOOTH",
"715 227 OFFCURVE",
"716 171 OFFCURVE",
"700 136 CURVE",
"695 133 OFFCURVE",
"682 130 OFFCURVE",
"679 130 CURVE SMOOTH",
"674 130 OFFCURVE",
"665 130 OFFCURVE",
"660 132 CURVE",
"649 156 OFFCURVE",
"648 188 OFFCURVE",
"648 209 CURVE SMOOTH",
"648 231 OFFCURVE",
"651 282 OFFCURVE",
"656 306 CURVE",
"625 301 OFFCURVE",
"583 298 OFFCURVE",
"530 298 CURVE SMOOTH",
"468 298 OFFCURVE",
"414 302 OFFCURVE",
"389 306 CURVE",
"394 282 OFFCURVE",
"397 233 OFFCURVE",
"397 209 CURVE SMOOTH",
"397 194 OFFCURVE",
"397 152 OFFCURVE",
"386 133 CURVE",
"384 130 OFFCURVE",
"376 130 OFFCURVE",
"372 130 CURVE SMOOTH",
"365 130 OFFCURVE",
"354 132 OFFCURVE",
"350 136 CURVE",
"334 171 OFFCURVE",
"334 204 OFFCURVE",
"334 236 CURVE SMOOTH",
"334 251 OFFCURVE",
"335 265 OFFCURVE",
"337 278 CURVE SMOOTH",
"341 304 OFFCURVE",
"348 326 OFFCURVE",
"367 345 CURVE",
"289 352 OFFCURVE",
"118 373 OFFCURVE",
"67 397 CURVE",
"56 374 OFFCURVE",
"47 353 OFFCURVE",
"42 327 CURVE SMOOTH",
"33 283 OFFCURVE",
"30 248 OFFCURVE",
"30 196 CURVE SMOOTH",
"30 149 OFFCURVE",
"44 90 OFFCURVE",
"75 34 CURVE",
"106 7 OFFCURVE",
"286 -11 OFFCURVE",
"337 -11 CURVE SMOOTH",
"442 -11 OFFCURVE",
"478 23 OFFCURVE",
"514 55 CURVE",
"539 28 OFFCURVE",
"608 -11 OFFCURVE",
"699 -11 CURVE SMOOTH",
"750 -11 OFFCURVE",
"944 7 OFFCURVE",
"975 34 CURVE",
"1006 90 OFFCURVE",
"1033 163 OFFCURVE",
"1033 310 CURVE SMOOTH",
"1033 422 OFFCURVE",
"956 573 OFFCURVE",
"883 609 CURVE",
"798 642 OFFCURVE",
"657 656 OFFCURVE",
"486 656 CURVE SMOOTH"
);
}
);
width = 1063;
}
);
unicode = 0C8E;
},
{
glyphname = kn_Ee;
lastChange = "2015-09-03 19:02:26 +0000";
layers = (
{
layerId = "7A0FC40B-77F8-4D14-AD08-D047673E78CB";
name = Regular;
paths = (
{
closed = 1;
nodes = (
"50 624 OFFCURVE",
"48 579 OFFCURVE",
"48 567 CURVE SMOOTH",
"48 531 OFFCURVE",
"56 476 OFFCURVE",
"87 420 CURVE",
"113 397 OFFCURVE",
"270 375 OFFCURVE",
"331 375 CURVE SMOOTH",
"416 375 OFFCURVE",
"489 393 OFFCURVE",
"527 415 CURVE SMOOTH",
"579 444 OFFCURVE",
"604 478 OFFCURVE",
"650 478 CURVE SMOOTH",
"670 478 OFFCURVE",
"684 476 OFFCURVE",
"695 456 CURVE",
"718 427 OFFCURVE",
"715 331 OFFCURVE",
"715 259 CURVE SMOOTH",
"715 227 OFFCURVE",
"716 171 OFFCURVE",
"700 136 CURVE",
"695 133 OFFCURVE",
"681 130 OFFCURVE",
"678 130 CURVE SMOOTH",
"673 130 OFFCURVE",
"665 130 OFFCURVE",
"660 132 CURVE",
"649 156 OFFCURVE",
"648 188 OFFCURVE",
"648 209 CURVE SMOOTH",
"648 231 OFFCURVE",
"651 282 OFFCURVE",
"656 306 CURVE",
"625 301 OFFCURVE",
"583 298 OFFCURVE",
"530 298 CURVE SMOOTH",
"468 298 OFFCURVE",
"414 302 OFFCURVE",
"389 306 CURVE",
"394 282 OFFCURVE",
"397 233 OFFCURVE",
"397 209 CURVE SMOOTH",
"397 194 OFFCURVE",
"397 152 OFFCURVE",
"386 133 CURVE",
"384 130 OFFCURVE",
"376 130 OFFCURVE",
"372 130 CURVE SMOOTH",
"365 130 OFFCURVE",
"354 132 OFFCURVE",
"350 136 CURVE",
"334 171 OFFCURVE",
"334 204 OFFCURVE",
"334 236 CURVE SMOOTH",
"334 251 OFFCURVE",
"335 265 OFFCURVE",
"337 278 CURVE SMOOTH",
"341 304 OFFCURVE",
"348 326 OFFCURVE",
"357 345 CURVE",
"289 352 OFFCURVE",
"118 373 OFFCURVE",
"67 397 CURVE",
"56 374 OFFCURVE",
"47 353 OFFCURVE",
"42 327 CURVE SMOOTH",
"33 283 OFFCURVE",
"30 248 OFFCURVE",
"30 196 CURVE SMOOTH",
"30 149 OFFCURVE",
"44 90 OFFCURVE",
"75 34 CURVE",
"106 7 OFFCURVE",
"286 -11 OFFCURVE",
"337 -11 CURVE SMOOTH",
"442 -11 OFFCURVE",
"478 23 OFFCURVE",
"514 55 CURVE",
"539 28 OFFCURVE",
"607 -11 OFFCURVE",
"698 -11 CURVE SMOOTH",
"749 -11 OFFCURVE",
"944 7 OFFCURVE",
"975 34 CURVE",
"1006 90 OFFCURVE",
"1033 163 OFFCURVE",
"1033 310 CURVE SMOOTH",
"1033 422 OFFCURVE",
"996 573 OFFCURVE",
"923 609 CURVE",
"833 650 OFFCURVE",
"798 656 OFFCURVE",
"699 656 CURVE SMOOTH",
"618 656 OFFCURVE",
"535 628 OFFCURVE",
"494 599 CURVE SMOOTH",
"450 566 OFFCURVE",
"431 532 OFFCURVE",
"399 532 CURVE SMOOTH",
"386 532 OFFCURVE",
"372 539 OFFCURVE",
"362 549 CURVE",
"356 562 OFFCURVE",
"352 579 OFFCURVE",
"352 591 CURVE SMOOTH",
"352 605 OFFCURVE",
"353 618 OFFCURVE",
"370 632 CURVE",
"286 632 OFFCURVE",
"132 648 OFFCURVE",
"70 658 CURVE"
);
}
);
width = 1063;
}
);
unicode = 0C8F;
},
{
glyphname = kn_Ai;
lastChange = "2015-09-03 19:02:26 +0000";
layers = (
{
layerId = "7A0FC40B-77F8-4D14-AD08-D047673E78CB";
name = Regular;
paths = (
{
closed = 1;
nodes = (
"612 605 OFFCURVE",
"533 566 OFFCURVE",
"508 539 CURVE",
"472 571 OFFCURVE",
"385 605 OFFCURVE",
"280 605 CURVE SMOOTH",
"229 605 OFFCURVE",
"100 587 OFFCURVE",
"69 560 CURVE",
"38 519 OFFCURVE",
"24 472 OFFCURVE",
"24 425 CURVE SMOOTH",
"24 398 OFFCURVE",
"31 351 OFFCURVE",
"61 307 CURVE",
"112 321 OFFCURVE",
"283 332 OFFCURVE",
"351 329 CURVE",
"334 347 OFFCURVE",
"328 392 OFFCURVE",
"328 408 CURVE SMOOTH",
"328 426 OFFCURVE",
"328 443 OFFCURVE",
"344 458 CURVE SMOOTH",
"348 462 OFFCURVE",
"358 464 OFFCURVE",
"365 464 CURVE SMOOTH",
"369 464 OFFCURVE",
"378 464 OFFCURVE",
"380 461 CURVE",
"391 442 OFFCURVE",
"391 410 OFFCURVE",
"391 395 CURVE SMOOTH",
"391 372 OFFCURVE",
"388 342 OFFCURVE",
"383 318 CURVE",
"408 322 OFFCURVE",
"462 326 OFFCURVE",
"524 326 CURVE SMOOTH",
"577 326 OFFCURVE",
"619 323 OFFCURVE",
"650 318 CURVE",
"645 342 OFFCURVE",
"642 370 OFFCURVE",
"642 395 CURVE SMOOTH",
"642 416 OFFCURVE",
"643 438 OFFCURVE",
"654 462 CURVE",
"659 464 OFFCURVE",
"668 464 OFFCURVE",
"673 464 CURVE SMOOTH",
"685 464 OFFCURVE",
"694 460 OFFCURVE",
"697 455 CURVE",
"708.934 430.337 OFFCURVE",
"717 350 OFFCURVE",
"716.33 297 CURVE SMOOTH",
"716 244 OFFCURVE",
"708.934 163.663 OFFCURVE",
"697 139 CURVE",
"694 134 OFFCURVE",
"685 130 OFFCURVE",
"673 130 CURVE SMOOTH",
"668 130 OFFCURVE",
"659 130 OFFCURVE",
"654 132 CURVE",
"643 156 OFFCURVE",
"642 178 OFFCURVE",
"642 199 CURVE SMOOTH",
"642 224 OFFCURVE",
"645 252 OFFCURVE",
"650 276 CURVE",
"619 271 OFFCURVE",
"577 268 OFFCURVE",
"524 268 CURVE SMOOTH",
"462 268 OFFCURVE",
"408 272 OFFCURVE",
"383 276 CURVE",
"388 252 OFFCURVE",
"391 222 OFFCURVE",
"391 199 CURVE SMOOTH",
"391 184 OFFCURVE",
"391 152 OFFCURVE",
"380 133 CURVE",
"378 130 OFFCURVE",
"369 130 OFFCURVE",
"365 130 CURVE SMOOTH",
"358 130 OFFCURVE",
"348 132 OFFCURVE",
"344 136 CURVE SMOOTH",
"328 151 OFFCURVE",
"328 168 OFFCURVE",
"328 186 CURVE SMOOTH",
"328 202 OFFCURVE",
"334 247 OFFCURVE",
"351 265 CURVE",
"283 262 OFFCURVE",
"112 273 OFFCURVE",
"61 287 CURVE",
"31 243 OFFCURVE",
"24 196 OFFCURVE",
"24 169 CURVE SMOOTH",
"24 122 OFFCURVE",
"38 75 OFFCURVE",
"69 34 CURVE",
"100 7 OFFCURVE",
"229 -11 OFFCURVE",
"280 -11 CURVE SMOOTH",
"385 -11 OFFCURVE",
"472 23 OFFCURVE",
"508 55 CURVE",
"533 28 OFFCURVE",
"612 -11 OFFCURVE",
"703 -11 CURVE SMOOTH",
"821 -11 OFFCURVE",
"893 7 OFFCURVE",
"961 47 CURVE",
"1000 109 OFFCURVE",
"1019 178 OFFCURVE",
"1019 297 CURVE SMOOTH",
"1019 418 OFFCURVE",
"1002 483 OFFCURVE",
"961 547 CURVE",
"893 587 OFFCURVE",
"821 605 OFFCURVE",
"703 605 CURVE SMOOTH"
);
}
);
width = 1049;
}
);
unicode = 0C90;
},
{
glyphname = kn_O;
lastChange = "2015-09-03 19:02:26 +0000";
layers = (
{
layerId = "7A0FC40B-77F8-4D14-AD08-D047673E78CB";
name = Regular;
paths = (
{
closed = 1;
nodes = (
"164 605 OFFCURVE",
"96 597 OFFCURVE",
"24 580 CURVE",
"43 531 OFFCURVE",
"48 482 OFFCURVE",
"51 435 CURVE",
"76 442 OFFCURVE",
"110 445 OFFCURVE",
"146 445 CURVE SMOOTH",
"175 445 OFFCURVE",
"207 443 OFFCURVE",
"241 439 CURVE",
"241 424 OFFCURVE",
"245 394 OFFCURVE",
"237 383 CURVE",
"158 350 OFFCURVE",
"86 323 OFFCURVE",
"70 309 CURVE SMOOTH",
"56 297 OFFCURVE",
"32 253 OFFCURVE",
"32 195 CURVE SMOOTH",
"32 150 OFFCURVE",
"36 94 OFFCURVE",
"73 38 CURVE",
"147 0 OFFCURVE",
"197 -11 OFFCURVE",
"293 -11 CURVE SMOOTH",
"398 -11 OFFCURVE",
"461 23 OFFCURVE",
"497 55 CURVE",
"522 28 OFFCURVE",
"618 -11 OFFCURVE",
"709 -11 CURVE SMOOTH",
"807 -11 OFFCURVE",
"927 7 OFFCURVE",
"958 34 CURVE",
"989 90 OFFCURVE",
"1003 149 OFFCURVE",
"1003 196 CURVE SMOOTH",
"1003 248 OFFCURVE",
"1000 283 OFFCURVE",
"991 327 CURVE SMOOTH",
"986 353 OFFCURVE",
"977 374 OFFCURVE",
"966 397 CURVE",
"915 373 OFFCURVE",
"744 352 OFFCURVE",
"676 345 CURVE",
"685 326 OFFCURVE",
"692 304 OFFCURVE",
"696 278 CURVE SMOOTH",
"698 265 OFFCURVE",
"699 251 OFFCURVE",
"699 236 CURVE SMOOTH",
"699 204 OFFCURVE",
"699 171 OFFCURVE",
"683 136 CURVE",
"678 133 OFFCURVE",
"674 130 OFFCURVE",
"661 130 CURVE SMOOTH",
"656 130 OFFCURVE",
"648 130 OFFCURVE",
"643 132 CURVE",
"632 156 OFFCURVE",
"631 170 OFFCURVE",
"631 191 CURVE SMOOTH",
"631 213 OFFCURVE",
"634 230 OFFCURVE",
"639 254 CURVE",
"608 249 OFFCURVE",
"566 246 OFFCURVE",
"513 246 CURVE SMOOTH",
"451 246 OFFCURVE",
"397 250 OFFCURVE",
"372 254 CURVE",
"377 230 OFFCURVE",
"380 215 OFFCURVE",
"380 191 CURVE SMOOTH",
"380 176 OFFCURVE",
"380 152 OFFCURVE",
"369 133 CURVE",
"367 130 OFFCURVE",
"358 130 OFFCURVE",
"353 130 CURVE SMOOTH",
"347 130 OFFCURVE",
"336 131 OFFCURVE",
"331 133 CURVE",
"321 141 OFFCURVE",
"312 176 OFFCURVE",
"312 208 CURVE SMOOTH",
"313 239 OFFCURVE",
"325 270 OFFCURVE",
"336 273 CURVE",
"400 283 OFFCURVE",
"448 292 OFFCURVE",
"513 312 CURVE",
"526 348 OFFCURVE",
"548 387 OFFCURVE",
"548 430 CURVE SMOOTH",
"548 477 OFFCURVE",
"535 519 OFFCURVE",
"506 563 CURVE",
"451 595 OFFCURVE",
"356 605 OFFCURVE",
"251 605 CURVE SMOOTH"
);
}
);
width = 1023;
}
);
unicode = 0C92;
},
{
glyphname = kn_Oo;
lastChange = "2015-09-03 19:02:26 +0000";
layers = (
{
background = {
paths = (
{
closed = 1;
nodes = (
"397 617 OFFCURVE",
"398 603 OFFCURVE",
"405 590 CURVE",
"433 542 OFFCURVE",
"452 567 OFFCURVE",
"504 538 CURVE",
"363 538 LINE",
"283 554 OFFCURVE",
"238 577 OFFCURVE",
"186 633 CURVE",
"184 645 OFFCURVE",
"183 657 OFFCURVE",
"183 669 CURVE SMOOTH",
"183 680 OFFCURVE",
"191 710 OFFCURVE",
"211 731 CURVE",
"268 744 OFFCURVE",
"329 750 OFFCURVE",
"385 750 CURVE SMOOTH",
"462 750 OFFCURVE",
"520 738 OFFCURVE",
"580 719 CURVE",
"570 618 LINE",
"527 638 OFFCURVE",
"499 643 OFFCURVE",
"459 643 CURVE SMOOTH",
"439 643 OFFCURVE",
"418 641 OFFCURVE",
"397 634 CURVE"
);
},
{
closed = 1;
nodes = (
"197 -11 OFFCURVE",
"147 0 OFFCURVE",
"73 38 CURVE",
"36 94 OFFCURVE",
"32 150 OFFCURVE",
"32 195 CURVE SMOOTH",
"32 253 OFFCURVE",
"56 297 OFFCURVE",
"70 309 CURVE SMOOTH",
"86 323 OFFCURVE",
"158 350 OFFCURVE",
"237 383 CURVE",
"245 394 OFFCURVE",
"241 424 OFFCURVE",
"241 439 CURVE",
"207 443 OFFCURVE",
"175 445 OFFCURVE",
"146 445 CURVE SMOOTH",
"110 445 OFFCURVE",
"76 442 OFFCURVE",
"51 435 CURVE",
"48 482 OFFCURVE",
"43 531 OFFCURVE",
"24 580 CURVE",
"96 597 OFFCURVE",
"164 605 OFFCURVE",
"251 605 CURVE SMOOTH",
"356 605 OFFCURVE",
"451 595 OFFCURVE",
"506 563 CURVE",
"535 519 OFFCURVE",
"548 477 OFFCURVE",
"548 430 CURVE SMOOTH",
"548 387 OFFCURVE",
"526 348 OFFCURVE",
"513 312 CURVE",
"448 292 OFFCURVE",
"400 283 OFFCURVE",
"336 273 CURVE",
"325 270 OFFCURVE",
"313 239 OFFCURVE",
"312 208 CURVE SMOOTH",
"312 176 OFFCURVE",
"321 141 OFFCURVE",
"331 133 CURVE",
"336 131 OFFCURVE",
"347 130 OFFCURVE",
"353 130 CURVE SMOOTH",
"358 130 OFFCURVE",
"367 130 OFFCURVE",
"369 133 CURVE",
"380 152 OFFCURVE",
"380 176 OFFCURVE",
"380 191 CURVE SMOOTH",
"380 215 OFFCURVE",
"377 230 OFFCURVE",
"372 254 CURVE",
"397 250 OFFCURVE",
"451 246 OFFCURVE",
"513 246 CURVE SMOOTH",
"566 246 OFFCURVE",
"608 249 OFFCURVE",
"639 254 CURVE",
"634 230 OFFCURVE",
"631 213 OFFCURVE",
"631 191 CURVE SMOOTH",
"631 170 OFFCURVE",
"632 156 OFFCURVE",
"643 132 CURVE",
"648 130 OFFCURVE",
"656 130 OFFCURVE",
"661 130 CURVE SMOOTH",
"674 130 OFFCURVE",
"678 133 OFFCURVE",
"683 136 CURVE",
"699 171 OFFCURVE",
"699 204 OFFCURVE",
"699 236 CURVE SMOOTH",
"699 251 OFFCURVE",
"698 265 OFFCURVE",
"696 278 CURVE SMOOTH",
"692 304 OFFCURVE",
"685 326 OFFCURVE",
"676 345 CURVE",
"744 352 OFFCURVE",
"915 373 OFFCURVE",
"966 397 CURVE",
"977 374 OFFCURVE",
"986 353 OFFCURVE",
"991 327 CURVE SMOOTH",
"1000 283 OFFCURVE",
"1003 248 OFFCURVE",
"1003 196 CURVE SMOOTH",
"1003 149 OFFCURVE",
"989 90 OFFCURVE",
"958 34 CURVE",
"927 7 OFFCURVE",
"807 -11 OFFCURVE",
"709 -11 CURVE SMOOTH",
"618 -11 OFFCURVE",
"522 28 OFFCURVE",
"497 55 CURVE",
"461 23 OFFCURVE",
"398 -11 OFFCURVE",
"293 -11 CURVE SMOOTH"
);
}
);
};
layerId = "7A0FC40B-77F8-4D14-AD08-D047673E78CB";
name = Regular;
paths = (
{
closed = 1;
nodes = (
"164 605 OFFCURVE",
"96 597 OFFCURVE",
"24 580 CURVE",
"43 531 OFFCURVE",
"48 482 OFFCURVE",
"51 435 CURVE",
"76 442 OFFCURVE",
"110 445 OFFCURVE",
"146 445 CURVE SMOOTH",
"175 445 OFFCURVE",
"207 443 OFFCURVE",
"241 439 CURVE",
"241 424 OFFCURVE",
"245 394 OFFCURVE",
"237 383 CURVE",
"158 350 OFFCURVE",
"86 323 OFFCURVE",
"70 309 CURVE SMOOTH",
"56 297 OFFCURVE",
"32 253 OFFCURVE",
"32 195 CURVE SMOOTH",
"32 150 OFFCURVE",
"36 94 OFFCURVE",
"73 38 CURVE",
"147 0 OFFCURVE",
"197 -11 OFFCURVE",
"293 -11 CURVE SMOOTH",
"398 -11 OFFCURVE",
"461 23 OFFCURVE",
"497 55 CURVE",
"522 28 OFFCURVE",
"618 -11 OFFCURVE",
"709 -11 CURVE SMOOTH",
"807 -11 OFFCURVE",
"927 7 OFFCURVE",
"958 34 CURVE",
"989 90 OFFCURVE",
"1003 149 OFFCURVE",
"1003 196 CURVE SMOOTH",
"1003 248 OFFCURVE",
"1000 283 OFFCURVE",
"991 327 CURVE SMOOTH",
"986 353 OFFCURVE",
"977 374 OFFCURVE",
"966 397 CURVE",
"915 373 OFFCURVE",
"744 352 OFFCURVE",
"676 345 CURVE",
"685 326 OFFCURVE",
"692 304 OFFCURVE",
"696 278 CURVE SMOOTH",
"698 265 OFFCURVE",
"699 251 OFFCURVE",
"699 236 CURVE SMOOTH",
"699 204 OFFCURVE",
"699 171 OFFCURVE",
"683 136 CURVE",
"678 133 OFFCURVE",
"674 130 OFFCURVE",
"661 130 CURVE SMOOTH",
"656 130 OFFCURVE",
"648 130 OFFCURVE",
"643 132 CURVE",
"632 156 OFFCURVE",
"631 170 OFFCURVE",
"631 191 CURVE SMOOTH",
"631 213 OFFCURVE",
"634 230 OFFCURVE",
"639 254 CURVE",
"608 249 OFFCURVE",
"566 246 OFFCURVE",
"513 246 CURVE SMOOTH",
"451 246 OFFCURVE",
"397 250 OFFCURVE",
"372 254 CURVE",
"377 230 OFFCURVE",
"380 215 OFFCURVE",
"380 191 CURVE SMOOTH",
"380 176 OFFCURVE",
"380 152 OFFCURVE",
"369 133 CURVE",
"367 130 OFFCURVE",
"358 130 OFFCURVE",
"353 130 CURVE SMOOTH",
"347 130 OFFCURVE",
"336 131 OFFCURVE",
"331 133 CURVE",
"321 141 OFFCURVE",
"312 176 OFFCURVE",
"312 208 CURVE SMOOTH",
"313 239 OFFCURVE",
"325 270 OFFCURVE",
"336 273 CURVE",
"400 283 OFFCURVE",
"448 292 OFFCURVE",
"513 312 CURVE",
"526 348 OFFCURVE",
"548 387 OFFCURVE",
"548 430 CURVE SMOOTH",
"548 477 OFFCURVE",
"535 519 OFFCURVE",
"506 563 CURVE",
"451 595 OFFCURVE",
"356 605 OFFCURVE",
"251 605 CURVE SMOOTH"
);
},
{
closed = 1;
nodes = (
"329 750 OFFCURVE",
"268 744 OFFCURVE",
"211 731 CURVE",
"191 710 OFFCURVE",
"183 680 OFFCURVE",
"183 669 CURVE SMOOTH",
"183 657 OFFCURVE",
"184 645 OFFCURVE",
"186 633 CURVE",
"238 577 OFFCURVE",
"283 554 OFFCURVE",
"363 538 CURVE",
"504 538 LINE",
"452 567 OFFCURVE",
"433 542 OFFCURVE",
"405 590 CURVE",
"398 603 OFFCURVE",
"397 617 OFFCURVE",
"397 634 CURVE",
"418 641 OFFCURVE",
"439 643 OFFCURVE",
"459 643 CURVE SMOOTH",
"499 643 OFFCURVE",
"527 638 OFFCURVE",
"570 618 CURVE",
"580 719 LINE",
"520 738 OFFCURVE",
"462 750 OFFCURVE",
"385 750 CURVE SMOOTH"
);
}
);
width = 1023;
}
);
unicode = 0C93;
},
{
glyphname = kn_Au;
lastChange = "2015-10-06 22:17:11 +0000";
layers = (
{
layerId = "7A0FC40B-77F8-4D14-AD08-D047673E78CB";
name = Regular;
paths = (
{
closed = 1;
nodes = (
"164 605 OFFCURVE",
"96 597 OFFCURVE",
"24 580 CURVE",
"43 531 OFFCURVE",
"48 482 OFFCURVE",
"51 435 CURVE",
"76 442 OFFCURVE",
"110 445 OFFCURVE",
"146 445 CURVE SMOOTH",
"175 445 OFFCURVE",
"207 443 OFFCURVE",
"241 439 CURVE",
"241 424 OFFCURVE",
"245 394 OFFCURVE",
"237 383 CURVE",
"158 350 OFFCURVE",
"86 323 OFFCURVE",
"70 309 CURVE SMOOTH",
"56 297 OFFCURVE",
"32 253 OFFCURVE",
"32 195 CURVE SMOOTH",
"32 150 OFFCURVE",
"36 94 OFFCURVE",
"73 38 CURVE",
"147 0 OFFCURVE",
"197 -11 OFFCURVE",
"293 -11 CURVE SMOOTH",
"398 -11 OFFCURVE",
"461 23 OFFCURVE",
"497 55 CURVE",
"522 28 OFFCURVE",
"618 -11 OFFCURVE",
"709 -11 CURVE SMOOTH",
"807 -11 OFFCURVE",
"927 7 OFFCURVE",
"958 34 CURVE",
"989 90 OFFCURVE",
"1003 149 OFFCURVE",
"1003 196 CURVE SMOOTH",
"1003 248 OFFCURVE",
"1000 283 OFFCURVE",
"991 327 CURVE SMOOTH",
"986 353 OFFCURVE",
"977 374 OFFCURVE",
"966 397 CURVE",
"915 373 OFFCURVE",
"744 352 OFFCURVE",
"676 345 CURVE",
"685 326 OFFCURVE",
"692 304 OFFCURVE",
"696 278 CURVE SMOOTH",
"698 265 OFFCURVE",
"699 251 OFFCURVE",
"699 236 CURVE SMOOTH",
"699 204 OFFCURVE",
"699 171 OFFCURVE",
"683 136 CURVE",
"678 133 OFFCURVE",
"674 130 OFFCURVE",
"661 130 CURVE SMOOTH",
"656 130 OFFCURVE",
"648 130 OFFCURVE",
"643 132 CURVE",
"632 156 OFFCURVE",
"631 170 OFFCURVE",
"631 191 CURVE SMOOTH",
"631 213 OFFCURVE",
"634 230 OFFCURVE",
"639 254 CURVE",
"608 249 OFFCURVE",
"566 246 OFFCURVE",
"513 246 CURVE SMOOTH",
"451 246 OFFCURVE",
"397 250 OFFCURVE",
"372 254 CURVE",
"377 230 OFFCURVE",
"380 215 OFFCURVE",
"380 191 CURVE SMOOTH",
"380 176 OFFCURVE",
"380 152 OFFCURVE",
"369 133 CURVE",
"367 130 OFFCURVE",
"358 130 OFFCURVE",
"353 130 CURVE SMOOTH",
"347 130 OFFCURVE",
"336 131 OFFCURVE",
"331 133 CURVE",
"321 141 OFFCURVE",
"312 176 OFFCURVE",
"312 208 CURVE SMOOTH",
"313 239 OFFCURVE",
"325 270 OFFCURVE",
"336 273 CURVE",
"400 283 OFFCURVE",
"448 292 OFFCURVE",
"513 312 CURVE",
"526 348 OFFCURVE",
"548 387 OFFCURVE",
"548 430 CURVE SMOOTH",
"548 477 OFFCURVE",
"535 519 OFFCURVE",
"506 563 CURVE",
"451 595 OFFCURVE",
"356 605 OFFCURVE",
"251 605 CURVE SMOOTH"
);
},
{
closed = 1;
nodes = (
"520 781 OFFCURVE",
"492 780 OFFCURVE",
"348 780 CURVE SMOOTH",
"220 779 OFFCURVE",
"135 778 OFFCURVE",
"74 777 CURVE",
"74 638 LINE",
"501 643 LINE",
"583 642 LINE",
"626 642 LINE",
"640 642 OFFCURVE",
"647 639 OFFCURVE",
"659 633 CURVE",
"668 626 OFFCURVE",
"679 613 OFFCURVE",
"679 589 CURVE SMOOTH",
"679 565 OFFCURVE",
"671 541 OFFCURVE",
"666 532 CURVE",
"655 521 OFFCURVE",
"646 517 OFFCURVE",
"631 517 CURVE SMOOTH",
"616 517 OFFCURVE",
"603 523 OFFCURVE",
"593 527 CURVE",
"590 480 OFFCURVE",
"588 457 OFFCURVE",
"578 408 CURVE",
"650 386 OFFCURVE",
"719 380 OFFCURVE",
"758 380 CURVE SMOOTH",
"828 380 OFFCURVE",
"901 392 OFFCURVE",
"969 443 CURVE",
"978 481 OFFCURVE",
"983 502 OFFCURVE",
"983 593 CURVE SMOOTH",
"983 640 OFFCURVE",
"972 713 OFFCURVE",
"958 738 CURVE",
"927 765 OFFCURVE",
"793 783 OFFCURVE",
"666 783 CURVE SMOOTH"
);
},
{
closed = 1;
nodes = (
"427 675 LINE",
"435 658 OFFCURVE",
"442 595 OFFCURVE",
"376 595 CURVE",
"242 595 LINE",
"297 416 LINE",
"424 422 LINE",
"571 438 OFFCURVE",
"607 608 OFFCURVE",
"603 675 CURVE"
);
}
);
width = 1023;
}
);
unicode = 0C94;
},
{
glyphname = kn_Ka;
lastChange = "2015-10-12 19:32:16 +0000";
layers = (
{
layerId = "7A0FC40B-77F8-4D14-AD08-D047673E78CB";
name = Regular;
paths = (
{
closed = 1;
nodes = (
"248 388 OFFCURVE",
"160 373 OFFCURVE",
"110 344 CURVE",
"81 305 OFFCURVE",
"50 228 OFFCURVE",
"50 166 CURVE SMOOTH",
"50 126 OFFCURVE",
"62 69 OFFCURVE",
"104 19 CURVE",
"153 -2 OFFCURVE",
"233 -11 OFFCURVE",
"340 -11 CURVE SMOOTH",
"465 -11 OFFCURVE",
"571 6 OFFCURVE",
"621 40 CURVE",
"645 93 OFFCURVE",
"655 132 OFFCURVE",
"655 197 CURVE SMOOTH",
"655 248 OFFCURVE",
"646 294 OFFCURVE",
"622 342 CURVE",
"572 373 OFFCURVE",
"467 388 OFFCURVE",
"348 388 CURVE SMOOTH"
);
},
{
closed = 1;
nodes = (
"377 287 OFFCURVE",
"420 286 OFFCURVE",
"423 283 CURVE",
"427 272 OFFCURVE",
"430 232 OFFCURVE",
"430 193 CURVE SMOOTH",
"430 161 OFFCURVE",
"426 106 OFFCURVE",
"402 106 CURVE SMOOTH",
"393 106 OFFCURVE",
"285 108 OFFCURVE",
"282 112 CURVE",
"279 118 OFFCURVE",
"275 157 OFFCURVE",
"275 181 CURVE SMOOTH",
"275 203 OFFCURVE",
"277 262 OFFCURVE",
"285 281 CURVE",
"290 285 OFFCURVE",
"326 287 OFFCURVE",
"356 287 CURVE SMOOTH"
);
},
{
closed = 1;
nodes = (
"12 414 LINE",
"26 324 OFFCURVE",
"24 288 OFFCURVE",
"21 242 CURVE",
"110 242 OFFCURVE",
"169 294 OFFCURVE",
"252 294 CURVE SMOOTH",
"294 294 OFFCURVE",
"574 288 OFFCURVE",
"686 253 CURVE",
"695 432 LINE"
);
},
{
closed = 1;
nodes = (
"240 492 LINE",
"240 330 LINE",
"457 330 LINE",
"457 492 LINE"
);
},
{
closed = 1;
nodes = (
"502 625 OFFCURVE",
"485 607 OFFCURVE",
"326 605 CURVE SMOOTH",
"25 602 LINE",
"23 546 OFFCURVE",
"20 505 OFFCURVE",
"10 449 CURVE",
"415 449 LINE SMOOTH",
"513 449 OFFCURVE",
"552 460 OFFCURVE",
"613 483 CURVE SMOOTH",
"661 501 OFFCURVE",
"695 535 OFFCURVE",
"695 590 CURVE SMOOTH",
"695 635 OFFCURVE",
"683 672 OFFCURVE",
"649 699 CURVE",
"618 699 OFFCURVE",
"566 702 OFFCURVE",
"535 707 CURVE"
);
}
);
width = 705;
}
);
unicode = 0C95;
},
{
glyphname = kn_Kha;
lastChange = "2015-09-03 19:02:26 +0000";
layers = (
{
layerId = "7A0FC40B-77F8-4D14-AD08-D047673E78CB";
name = Regular;
paths = (
{
closed = 1;
nodes = (
"304 605 OFFCURVE",
"176 593 OFFCURVE",
"92 564 CURVE",
"60 516 OFFCURVE",
"50 472 OFFCURVE",
"50 419 CURVE SMOOTH",
"50 371 OFFCURVE",
"58 366 OFFCURVE",
"82 318 CURVE",
"127 298 OFFCURVE",
"192 303 OFFCURVE",
"252 303 CURVE SMOOTH",
"297 303 OFFCURVE",
"336 305 OFFCURVE",
"399 315 CURVE",
"393 383 OFFCURVE",
"384 410 OFFCURVE",
"393 478 CURVE",
"396 478 OFFCURVE",
"401 475 OFFCURVE",
"410 473 CURVE",
"420 431 OFFCURVE",
"424 384 OFFCURVE",
"424 299 CURVE SMOOTH",
"424 268 LINE",
"302 291 OFFCURVE",
"263 291 OFFCURVE",
"232 291 CURVE SMOOTH",
"172 291 OFFCURVE",
"107 296 OFFCURVE",
"62 276 CURVE",
"38 228 OFFCURVE",
"30 223 OFFCURVE",
"30 175 CURVE SMOOTH",
"30 122 OFFCURVE",
"40 78 OFFCURVE",
"72 30 CURVE",
"156 1 OFFCURVE",
"304 -11 OFFCURVE",
"376 -11 CURVE SMOOTH",
"501 -11 OFFCURVE",
"558 1 OFFCURVE",
"620 23 CURVE",
"672 83 OFFCURVE",
"700 187 OFFCURVE",
"700 297 CURVE SMOOTH",
"700 390 OFFCURVE",
"689 494 OFFCURVE",
"663 553 CURVE",
"592 586 OFFCURVE",
"532 605 OFFCURVE",
"376 605 CURVE SMOOTH"
);
},
{
closed = 1;
nodes = (
"391 151 LINE",
"389 133 OFFCURVE",
"388 136 OFFCURVE",
"385 121 CURVE",
"376 119 OFFCURVE",
"277 130 OFFCURVE",
"261 130 CURVE",
"257 161 OFFCURVE",
"255 151 OFFCURVE",
"256 173 CURVE"
);
},
{
closed = 1;
nodes = (
"236 455 OFFCURVE",
"240 455 OFFCURVE",
"243 454 CURVE SMOOTH",
"245 454 OFFCURVE",
"250 453 OFFCURVE",
"253 452 CURVE",
"259 429 OFFCURVE",
"260 429 OFFCURVE",
"260 407 CURVE",
"251 404 OFFCURVE",
"244 403 OFFCURVE",
"235 403 CURVE SMOOTH",
"229 403 OFFCURVE",
"221 404 OFFCURVE",
"214 406 CURVE",
"211 420 OFFCURVE",
"210 412 OFFCURVE",
"210 433 CURVE SMOOTH",
"210 441 OFFCURVE",
"210 447 OFFCURVE",
"213 452 CURVE",
"218 454 OFFCURVE",
"225 455 OFFCURVE",
"231 455 CURVE SMOOTH"
);
},
{
closed = 1;
nodes = (
"831 550 OFFCURVE",
"825 369 OFFCURVE",
"825 331 CURVE SMOOTH",
"825 289 OFFCURVE",
"820 170 OFFCURVE",
"805 139 CURVE",
"795 130 OFFCURVE",
"767 126 OFFCURVE",
"755 126 CURVE SMOOTH",
"728 126 OFFCURVE",
"692 139 OFFCURVE",
"665 155 CURVE SMOOTH",
"628 177 OFFCURVE",
"600 206 OFFCURVE",
"589 221 CURVE",
"463 137 LINE",
"496 104 OFFCURVE",
"544 50 OFFCURVE",
"605 26 CURVE SMOOTH",
"662 4 OFFCURVE",
"699 -12 OFFCURVE",
"756 -12 CURVE SMOOTH",
"901 -12 OFFCURVE",
"1001 7 OFFCURVE",
"1069 47 CURVE",
"1125 123 OFFCURVE",
"1127 227 OFFCURVE",
"1127 332 CURVE SMOOTH",
"1127 403 OFFCURVE",
"1116 550 OFFCURVE",
"1109 598 CURVE",
"1070 597 OFFCURVE",
"1041 596 OFFCURVE",
"1001 596 CURVE SMOOTH",
"944 596 OFFCURVE",
"886 598 OFFCURVE",
"825 605 CURVE"
);
}
);
width = 1167;
}
);
unicode = 0C96;
},
{
glyphname = kn_Ga;
lastChange = "2015-09-03 19:02:26 +0000";
layers = (
{
layerId = "7A0FC40B-77F8-4D14-AD08-D047673E78CB";
name = Regular;
paths = (
{
closed = 1;
nodes = (
"266 584 OFFCURVE",
"166 565 OFFCURVE",
"98 525 CURVE",
"46 431 OFFCURVE",
"40 345 OFFCURVE",
"40 240 CURVE SMOOTH",
"40 169 OFFCURVE",
"51 44 OFFCURVE",
"58 -4 CURVE",
"97 -3 OFFCURVE",
"126 -2 OFFCURVE",
"166 -2 CURVE SMOOTH",
"223 -2 OFFCURVE",
"281 -4 OFFCURVE",
"342 -11 CURVE",
"336 44 OFFCURVE",
"342 203 OFFCURVE",
"342 241 CURVE SMOOTH",
"342 283 OFFCURVE",
"347 402 OFFCURVE",
"362 433 CURVE",
"372 442 OFFCURVE",
"430 446 OFFCURVE",
"442 446 CURVE SMOOTH",
"450 446 OFFCURVE",
"505 444 OFFCURVE",
"513 439 CURVE",
"522 419 OFFCURVE",
"526 361 OFFCURVE",
"526 308 CURVE SMOOTH",
"526 262 OFFCURVE",
"527 57 OFFCURVE",
"512 -10 CURVE",
"582 -3 OFFCURVE",
"591 0 OFFCURVE",
"657 0 CURVE SMOOTH",
"707 0 OFFCURVE",
"758 -1 OFFCURVE",
"808 -2 CURVE",
"811 51 OFFCURVE",
"815 143 OFFCURVE",
"822 193 CURVE SMOOTH",
"827 242 OFFCURVE",
"831 269 OFFCURVE",
"831 319 CURVE SMOOTH",
"831 400 OFFCURVE",
"795 487 OFFCURVE",
"762 522 CURVE",
"696 565 OFFCURVE",
"615 584 OFFCURVE",
"431 584 CURVE SMOOTH"
);
},
{
closed = 1;
nodes = (
"678 625 OFFCURVE",
"671 605 OFFCURVE",
"512 605 CURVE SMOOTH",
"26 606 LINE",
"21 540 OFFCURVE",
"13 474 OFFCURVE",
"0 408 CURVE",
"335 422 LINE",
"436 485 LINE",
"548 424 LINE",
"600 416 LINE SMOOTH",
"697 401 OFFCURVE",
"733 423 OFFCURVE",
"789 456 CURVE SMOOTH",
"837 484 OFFCURVE",
"871 535 OFFCURVE",
"871 590 CURVE SMOOTH",
"871 635 OFFCURVE",
"859 672 OFFCURVE",
"825 699 CURVE",
"794 699 OFFCURVE",
"742 702 OFFCURVE",
"711 707 CURVE"
);
}
);
width = 871;
}
);
unicode = 0C97;
},
{
glyphname = kn_Gha;
lastChange = "2015-10-05 21:01:56 +0000";
layers = (
{
layerId = "7A0FC40B-77F8-4D14-AD08-D047673E78CB";
name = Regular;
paths = (
{
closed = 1;
nodes = (
"932 373 OFFCURVE",
"761 352 OFFCURVE",
"693 345 CURVE",
"702 326 OFFCURVE",
"709 304 OFFCURVE",
"713 278 CURVE SMOOTH",
"715 265 OFFCURVE",
"716 251 OFFCURVE",
"716 236 CURVE SMOOTH",
"716 204 OFFCURVE",
"716 171 OFFCURVE",
"700 136 CURVE",
"695 133 OFFCURVE",
"681 130 OFFCURVE",
"678 130 CURVE SMOOTH",
"673 130 OFFCURVE",
"665 130 OFFCURVE",
"660 132 CURVE",
"649 156 OFFCURVE",
"648 170 OFFCURVE",
"648 191 CURVE SMOOTH",
"648 213 OFFCURVE",
"651 230 OFFCURVE",
"656 254 CURVE",
"625 249 OFFCURVE",
"583 246 OFFCURVE",
"530 246 CURVE SMOOTH",
"468 246 OFFCURVE",
"414 250 OFFCURVE",
"389 254 CURVE",
"394 230 OFFCURVE",
"397 215 OFFCURVE",
"397 191 CURVE SMOOTH",
"397 176 OFFCURVE",
"397 152 OFFCURVE",
"386 133 CURVE",
"384 130 OFFCURVE",
"376 130 OFFCURVE",
"372 130 CURVE SMOOTH",
"365 130 OFFCURVE",
"354 132 OFFCURVE",
"350 136 CURVE",
"334 171 OFFCURVE",
"334 204 OFFCURVE",
"334 236 CURVE SMOOTH",
"334 251 OFFCURVE",
"335 265 OFFCURVE",
"337 278 CURVE SMOOTH",
"341 304 OFFCURVE",
"348 326 OFFCURVE",
"357 345 CURVE",
"289 352 OFFCURVE",
"118 373 OFFCURVE",
"67 397 CURVE",
"56 374 OFFCURVE",
"47 353 OFFCURVE",
"42 327 CURVE SMOOTH",
"33 283 OFFCURVE",
"30 248 OFFCURVE",
"30 196 CURVE SMOOTH",
"30 149 OFFCURVE",
"44 90 OFFCURVE",
"75 34 CURVE",
"106 7 OFFCURVE",
"286 -11 OFFCURVE",
"337 -11 CURVE SMOOTH",
"442 -11 OFFCURVE",
"478 23 OFFCURVE",
"514 55 CURVE",
"539 28 OFFCURVE",
"612 -11 OFFCURVE",
"703 -11 CURVE SMOOTH",
"754 -11 OFFCURVE",
"944 7 OFFCURVE",
"975 34 CURVE",
"1006 90 OFFCURVE",
"1020 149 OFFCURVE",
"1020 196 CURVE SMOOTH",
"1020 248 OFFCURVE",
"1017 283 OFFCURVE",
"1008 327 CURVE SMOOTH",
"1003 353 OFFCURVE",
"994 374 OFFCURVE",
"983 397 CURVE"
);
},
{
closed = 1;
nodes = (
"447 -12 OFFCURVE",
"401 -56 OFFCURVE",
"356 -101 CURVE",
"371 -145 OFFCURVE",
"380 -187 OFFCURVE",
"411 -209 CURVE SMOOTH",
"444 -232 OFFCURVE",
"479 -254 OFFCURVE",
"513 -254 CURVE SMOOTH",
"571 -254 OFFCURVE",
"599 -236 OFFCURVE",
"622 -208 CURVE SMOOTH",
"655 -169 OFFCURVE",
"660 -120 OFFCURVE",
"673 -71 CURVE",
"616 -39 OFFCURVE",
"572 -4 OFFCURVE",
"517 16 CURVE"
);
},
{
closed = 1;
nodes = (
"383 425 LINE",
"397 335 OFFCURVE",
"399 314 OFFCURVE",
"396 268 CURVE",
"445 271 OFFCURVE",
"473 273 OFFCURVE",
"516 273 CURVE SMOOTH",
"558 273 OFFCURVE",
"592 270 OFFCURVE",
"650 264 CURVE",
"697 438 LINE"
);
},
{
closed = 1;
nodes = (
"857 631 OFFCURVE",
"823 609 OFFCURVE",
"718 605 CURVE SMOOTH",
"460 596 LINE",
"13 621 LINE",
"49 586 OFFCURVE",
"0 477 OFFCURVE",
"0 440 CURVE",
"108 448 OFFCURVE",
"243 453 OFFCURVE",
"351 447 CURVE SMOOTH",
"770 422 LINE SMOOTH",
"867 416 OFFCURVE",
"912 429 OFFCURVE",
"968 462 CURVE SMOOTH",
"1016 490 OFFCURVE",
"1050 541 OFFCURVE",
"1050 596 CURVE SMOOTH",
"1050 641 OFFCURVE",
"1038 678 OFFCURVE",
"1004 705 CURVE",
"973 705 OFFCURVE",
"921 708 OFFCURVE",
"900 713 CURVE"
);
},
{
closed = 1;
nodes = (
"1057 383 LINE",
"1077 340 OFFCURVE",
"1082 312 OFFCURVE",
"1082 272 CURVE SMOOTH",
"1082 252 OFFCURVE",
"1080 231 OFFCURVE",
"1073 210 CURVE",
"1067 210 OFFCURVE",
"1059 211 OFFCURVE",
"1046 218 CURVE",
"1007 263 OFFCURVE",
"982 309 OFFCURVE",
"954 373 CURVE",
"954 275 LINE",
"970 195 OFFCURVE",
"993 160 OFFCURVE",
"1029 108 CURVE",
"1041 106 OFFCURVE",
"1053 105 OFFCURVE",
"1065 105 CURVE SMOOTH",
"1096 105 OFFCURVE",
"1290 116 OFFCURVE",
"1311 136 CURVE",
"1324 166 OFFCURVE",
"1330 202 OFFCURVE",
"1330 258 CURVE SMOOTH",
"1330 308 OFFCURVE",
"1318 356 OFFCURVE",
"1299 393 CURVE"
);
}
);
width = 1331;
}
);
unicode = 0C98;
},
{
glyphname = kn_Nga;
lastChange = "2015-10-08 17:22:51 +0000";
layers = (
{
layerId = "7A0FC40B-77F8-4D14-AD08-D047673E78CB";
name = Regular;
paths = (
{
closed = 1;
nodes = (
"164 605 OFFCURVE",
"96 597 OFFCURVE",
"24 580 CURVE",
"43 531 OFFCURVE",
"48 482 OFFCURVE",
"51 435 CURVE",
"76 442 OFFCURVE",
"110 445 OFFCURVE",
"146 445 CURVE SMOOTH",
"175 445 OFFCURVE",
"207 443 OFFCURVE",
"241 439 CURVE",
"241 424 OFFCURVE",
"245 394 OFFCURVE",
"237 383 CURVE",
"158 350 OFFCURVE",
"86 323 OFFCURVE",
"70 309 CURVE SMOOTH",
"56 297 OFFCURVE",
"32 253 OFFCURVE",
"32 195 CURVE SMOOTH",
"32 150 OFFCURVE",
"36 94 OFFCURVE",
"73 38 CURVE",
"147 0 OFFCURVE",
"197 -11 OFFCURVE",
"293 -11 CURVE SMOOTH",
"398 -11 OFFCURVE",
"461 23 OFFCURVE",
"497 55 CURVE",
"522 28 OFFCURVE",
"595 -11 OFFCURVE",
"686 -11 CURVE SMOOTH",
"737 -11 OFFCURVE",
"927 7 OFFCURVE",
"958 34 CURVE",
"989 90 OFFCURVE",
"1003 126 OFFCURVE",
"1003 173 CURVE SMOOTH",
"1003 262 OFFCURVE",
"994 281 OFFCURVE",
"966 324 CURVE",
"900 310 OFFCURVE",
"744 290 OFFCURVE",
"676 283 CURVE",
"693 256 OFFCURVE",
"699 213 OFFCURVE",
"699 199 CURVE SMOOTH",
"699 181 OFFCURVE",
"699 171 OFFCURVE",
"683 136 CURVE",
"678 133 OFFCURVE",
"669 130 OFFCURVE",
"659 130 CURVE SMOOTH",
"654 130 OFFCURVE",
"648 130 OFFCURVE",
"643 132 CURVE",
"632 141 OFFCURVE",
"631 150 OFFCURVE",
"631 171 CURVE SMOOTH",
"631 193 OFFCURVE",
"634 190 OFFCURVE",
"639 214 CURVE",
"608 209 OFFCURVE",
"566 206 OFFCURVE",
"513 206 CURVE SMOOTH",
"451 206 OFFCURVE",
"397 210 OFFCURVE",
"372 214 CURVE",
"377 190 OFFCURVE",
"380 195 OFFCURVE",
"380 171 CURVE SMOOTH",
"380 156 OFFCURVE",
"380 152 OFFCURVE",
"369 133 CURVE",
"367 130 OFFCURVE",
"357 130 OFFCURVE",
"352 130 CURVE SMOOTH",
"346 130 OFFCURVE",
"336 131 OFFCURVE",
"331 133 CURVE",
"321 141 OFFCURVE",
"312 176 OFFCURVE",
"312 208 CURVE SMOOTH",
"313 239 OFFCURVE",
"325 270 OFFCURVE",
"336 273 CURVE",
"400 283 OFFCURVE",
"448 292 OFFCURVE",
"513 312 CURVE",
"526 348 OFFCURVE",
"538 387 OFFCURVE",
"538 430 CURVE SMOOTH",
"538 477 OFFCURVE",
"535 519 OFFCURVE",
"506 563 CURVE",
"451 595 OFFCURVE",
"356 605 OFFCURVE",
"251 605 CURVE SMOOTH"
);
},
{
closed = 1;
nodes = (
"362 367 LINE",
"376 315 OFFCURVE",
"378 276 OFFCURVE",
"375 230 CURVE",
"424 233 OFFCURVE",
"449 235 OFFCURVE",
"492 235 CURVE SMOOTH",
"534 235 OFFCURVE",
"580 232 OFFCURVE",
"638 226 CURVE",
"660 390 LINE"
);
},
{
closed = 1;
nodes = (
"646 605 OFFCURVE",
"617 598 OFFCURVE",
"570 586 CURVE SMOOTH",
"513 571 OFFCURVE",
"488 564 OFFCURVE",
"462 549 CURVE",
"490 412 LINE",
"515 431 OFFCURVE",
"525 442 OFFCURVE",
"553 451 CURVE SMOOTH",
"581 461 OFFCURVE",
"591 464 OFFCURVE",
"616 464 CURVE SMOOTH",
"638 464 OFFCURVE",
"674 462 OFFCURVE",
"684 452 CURVE",
"694 444 OFFCURVE",
"699 423 OFFCURVE",
"699 411 CURVE SMOOTH",
"699 394 OFFCURVE",
"700 367 OFFCURVE",
"691 348 CURVE",
"765 348 OFFCURVE",
"904 334 OFFCURVE",
"966 324 CURVE",
"986 358 OFFCURVE",
"1003 407 OFFCURVE",
"1003 431 CURVE SMOOTH",
"1003 467 OFFCURVE",
"995 504 OFFCURVE",
"964 560 CURVE",
"948 574 OFFCURVE",
"886 586 OFFCURVE",
"825 594 CURVE SMOOTH",
"766 602 OFFCURVE",
"700 605 OFFCURVE",
"688 605 CURVE SMOOTH"
);
}
);
width = 1025;
}
);
unicode = 0C99;
},
{
glyphname = kn_Ca;
lastChange = "2015-09-03 19:02:26 +0000";
layers = (
{
layerId = "7A0FC40B-77F8-4D14-AD08-D047673E78CB";
name = Regular;
paths = (
{
closed = 1;
nodes = (
"164 605 OFFCURVE",
"96 597 OFFCURVE",
"24 580 CURVE",
"43 531 OFFCURVE",
"48 482 OFFCURVE",
"51 435 CURVE",
"76 442 OFFCURVE",
"110 445 OFFCURVE",
"146 445 CURVE SMOOTH",
"175 445 OFFCURVE",
"207 443 OFFCURVE",
"241 439 CURVE",
"241 424 OFFCURVE",
"245 394 OFFCURVE",
"247 383 CURVE",
"168 350 OFFCURVE",
"86 323 OFFCURVE",
"70 309 CURVE SMOOTH",
"56 297 OFFCURVE",
"32 253 OFFCURVE",
"32 195 CURVE SMOOTH",
"32 150 OFFCURVE",
"36 94 OFFCURVE",
"73 38 CURVE",
"147 0 OFFCURVE",
"207 -11 OFFCURVE",
"303 -11 CURVE SMOOTH",
"408 -11 OFFCURVE",
"461 23 OFFCURVE",
"497 55 CURVE",
"522 28 OFFCURVE",
"617 -11 OFFCURVE",
"705 -11 CURVE SMOOTH",
"793 -11 OFFCURVE",
"876 -4 OFFCURVE",
"952 26 CURVE",
"1007 69 OFFCURVE",
"1035 106 OFFCURVE",
"1035 176 CURVE SMOOTH",
"1035 214 OFFCURVE",
"1029 244 OFFCURVE",
"1017 266 CURVE SMOOTH",
"1003 289 OFFCURVE",
"983 305 OFFCURVE",
"952 321 CURVE",
"989 347 OFFCURVE",
"990 394 OFFCURVE",
"990 426 CURVE SMOOTH",
"990 474 OFFCURVE",
"972 545 OFFCURVE",
"923 581 CURVE",
"839 607 OFFCURVE",
"783 601 OFFCURVE",
"643 601 CURVE",
"632 456 LINE",
"639 459 OFFCURVE",
"646 460 OFFCURVE",
"656 460 CURVE SMOOTH",
"683 460 OFFCURVE",
"704 433 OFFCURVE",
"704 386 CURVE SMOOTH",
"704 368 OFFCURVE",
"687 361 OFFCURVE",
"679 361 CURVE SMOOTH",
"671 361 OFFCURVE",
"648 363 OFFCURVE",
"642 366 CURVE",
"652 210 LINE",
"666 215 OFFCURVE",
"681 218 OFFCURVE",
"695 218 CURVE SMOOTH",
"711 218 OFFCURVE",
"729 207 OFFCURVE",
"729 172 CURVE SMOOTH",
"729 142 OFFCURVE",
"703 130 OFFCURVE",
"679 130 CURVE SMOOTH",
"658 130 OFFCURVE",
"648 130 OFFCURVE",
"643 132 CURVE",
"632 156 OFFCURVE",
"631 170 OFFCURVE",
"631 191 CURVE SMOOTH",
"631 213 OFFCURVE",
"634 230 OFFCURVE",
"639 254 CURVE",
"608 249 OFFCURVE",
"566 246 OFFCURVE",
"513 246 CURVE SMOOTH",
"451 246 OFFCURVE",
"397 250 OFFCURVE",
"372 254 CURVE",
"377 230 OFFCURVE",
"380 215 OFFCURVE",
"380 191 CURVE SMOOTH",
"380 176 OFFCURVE",
"380 152 OFFCURVE",
"369 133 CURVE",
"367 130 OFFCURVE",
"357 130 OFFCURVE",
"352 130 CURVE SMOOTH",
"346 130 OFFCURVE",
"336 131 OFFCURVE",
"331 133 CURVE",
"321 141 OFFCURVE",
"312 176 OFFCURVE",
"312 208 CURVE SMOOTH",
"313 239 OFFCURVE",
"325 270 OFFCURVE",
"336 273 CURVE",
"400 283 OFFCURVE",
"448 292 OFFCURVE",
"513 312 CURVE",
"526 348 OFFCURVE",
"538 387 OFFCURVE",
"538 430 CURVE SMOOTH",
"538 477 OFFCURVE",
"535 519 OFFCURVE",
"506 563 CURVE",
"451 595 OFFCURVE",
"356 605 OFFCURVE",
"251 605 CURVE SMOOTH"
);
},
{
closed = 1;
nodes = (
"872 625 OFFCURVE",
"855 594 OFFCURVE",
"696 605 CURVE SMOOTH",
"553 615 LINE",
"564 555 OFFCURVE",
"558 481 OFFCURVE",
"569 421 CURVE",
"610 429 OFFCURVE",
"634 429 OFFCURVE",
"654 427 CURVE SMOOTH",
"785 416 LINE SMOOTH",
"882 408 OFFCURVE",
"927 423 OFFCURVE",
"983 456 CURVE SMOOTH",
"1031 484 OFFCURVE",
"1065 535 OFFCURVE",
"1065 590 CURVE SMOOTH",
"1065 635 OFFCURVE",
"1053 672 OFFCURVE",
"1019 699 CURVE",
"988 699 OFFCURVE",
"936 702 OFFCURVE",
"905 707 CURVE"
);
}
);
width = 1065;
}
);
unicode = 0C9A;
},
{
glyphname = kn_Cha;
lastChange = "2015-10-09 20:52:09 +0000";
layers = (
{
layerId = "7A0FC40B-77F8-4D14-AD08-D047673E78CB";
name = Regular;
paths = (
{
closed = 1;
nodes = (
"239 605 OFFCURVE",
"187 591 OFFCURVE",
"95 558 CURVE",
"44 478 OFFCURVE",
"30 404 OFFCURVE",
"30 320 CURVE SMOOTH",
"30 235 OFFCURVE",
"53 94 OFFCURVE",
"83 34 CURVE",
"114 7 OFFCURVE",
"235 -11 OFFCURVE",
"355 -11 CURVE SMOOTH",
"485 -11 OFFCURVE",
"577 28 OFFCURVE",
"631 55 CURVE",
"685 28 OFFCURVE",
"736 -11 OFFCURVE",
"840 -11 CURVE SMOOTH",
"958 -11 OFFCURVE",
"1045 7 OFFCURVE",
"1113 47 CURVE",
"1169 123 OFFCURVE",
"1171 227 OFFCURVE",
"1171 332 CURVE SMOOTH",
"1171 403 OFFCURVE",
"1139 521 OFFCURVE",
"1132 576 CURVE",
"1093 575 OFFCURVE",
"1085 574 OFFCURVE",
"1045 574 CURVE SMOOTH",
"988 574 OFFCURVE",
"930 576 OFFCURVE",
"869 583 CURVE",
"875 528 OFFCURVE",
"869 369 OFFCURVE",
"869 331 CURVE SMOOTH",
"869 289 OFFCURVE",
"864 170 OFFCURVE",
"849 139 CURVE",
"839 130 OFFCURVE",
"827 126 OFFCURVE",
"817 126 CURVE SMOOTH",
"808 126 OFFCURVE",
"797 127 OFFCURVE",
"785 135 CURVE",
"774 154 OFFCURVE",
"774 208 OFFCURVE",
"774 208 CURVE",
"774 249 OFFCURVE",
"774 249 OFFCURVE",
"777 272 CURVE",
"752 268 OFFCURVE",
"693 264 OFFCURVE",
"631 264 CURVE SMOOTH",
"569 264 OFFCURVE",
"510 268 OFFCURVE",
"485 272 CURVE",
"488 249 OFFCURVE",
"488 249 OFFCURVE",
"488 208 CURVE",
"488 208 OFFCURVE",
"488 154 OFFCURVE",
"477 135 CURVE",
"465 132 OFFCURVE",
"430 130 OFFCURVE",
"415 130 CURVE SMOOTH",
"401 130 OFFCURVE",
"368 135 OFFCURVE",
"358 145 CURVE",
"354 159 OFFCURVE",
"350 283 OFFCURVE",
"345 300 CURVE",
"372 297 OFFCURVE",
"412 297 OFFCURVE",
"442 297 CURVE SMOOTH",
"507 297 OFFCURVE",
"570 298 OFFCURVE",
"615 309 CURVE",
"632 352 OFFCURVE",
"642 406 OFFCURVE",
"642 450 CURVE SMOOTH",
"642 494 OFFCURVE",
"638 525 OFFCURVE",
"624 561 CURVE",
"577 589 OFFCURVE",
"468 605 OFFCURVE",
"356 605 CURVE SMOOTH"
);
},
{
closed = 1;
nodes = (
"563 -12 OFFCURVE",
"517 -56 OFFCURVE",
"472 -101 CURVE",
"487 -145 OFFCURVE",
"496 -187 OFFCURVE",
"527 -209 CURVE SMOOTH",
"560 -232 OFFCURVE",
"595 -254 OFFCURVE",
"629 -254 CURVE SMOOTH",
"687 -254 OFFCURVE",
"715 -236 OFFCURVE",
"738 -208 CURVE SMOOTH",
"771 -169 OFFCURVE",
"776 -120 OFFCURVE",
"789 -71 CURVE",
"732 -39 OFFCURVE",
"688 -4 OFFCURVE",
"633 16 CURVE"
);
},
{
closed = 1;
nodes = (
"413 458 OFFCURVE",
"418 429 OFFCURVE",
"419 420 CURVE",
"385 415 OFFCURVE",
"364 415 OFFCURVE",
"337 415 CURVE",
"339 433 OFFCURVE",
"342 447 OFFCURVE",
"348 455 CURVE",
"362 462 OFFCURVE",
"387 470 OFFCURVE",
"410 470 CURVE"
);
},
{
closed = 1;
nodes = (
"1018 625 OFFCURVE",
"1001 596 OFFCURVE",
"842 605 CURVE SMOOTH",
"666 615 LINE",
"677 555 OFFCURVE",
"681 481 OFFCURVE",
"682 421 CURVE",
"754 429 OFFCURVE",
"770 434 OFFCURVE",
"833 427 CURVE SMOOTH",
"931 416 LINE SMOOTH",
"1028 405 OFFCURVE",
"1073 423 OFFCURVE",
"1129 456 CURVE SMOOTH",
"1177 484 OFFCURVE",
"1211 535 OFFCURVE",
"1211 590 CURVE SMOOTH",
"1211 635 OFFCURVE",
"1199 672 OFFCURVE",
"1165 699 CURVE",
"1134 699 OFFCURVE",
"1082 702 OFFCURVE",
"1051 707 CURVE"
);
}
);
width = 1213;
}
);
unicode = 0C9B;
},
{
glyphname = kn_Ja;
lastChange = "2015-10-12 19:34:37 +0000";
layers = (
{
layerId = "7A0FC40B-77F8-4D14-AD08-D047673E78CB";
name = Regular;
paths = (
{
closed = 1;
nodes = (
"164 605 OFFCURVE",
"96 597 OFFCURVE",
"24 580 CURVE",
"43 531 OFFCURVE",
"48 482 OFFCURVE",
"51 435 CURVE",
"76 442 OFFCURVE",
"110 445 OFFCURVE",
"146 445 CURVE SMOOTH",
"175 445 OFFCURVE",
"207 443 OFFCURVE",
"241 439 CURVE",
"241 424 OFFCURVE",
"245 394 OFFCURVE",
"237 383 CURVE",
"158 350 OFFCURVE",
"86 323 OFFCURVE",
"70 309 CURVE SMOOTH",
"56 297 OFFCURVE",
"32 253 OFFCURVE",
"32 195 CURVE SMOOTH",
"32 150 OFFCURVE",
"36 94 OFFCURVE",
"73 38 CURVE",
"147 0 OFFCURVE",
"197 -11 OFFCURVE",
"293 -11 CURVE SMOOTH",
"398 -11 OFFCURVE",
"461 23 OFFCURVE",
"497 55 CURVE",
"522 28 OFFCURVE",
"595 -11 OFFCURVE",
"686 -11 CURVE SMOOTH",
"737 -11 OFFCURVE",
"927 7 OFFCURVE",
"958 34 CURVE",
"989 90 OFFCURVE",
"1003 126 OFFCURVE",
"1003 173 CURVE SMOOTH",
"1003 262 OFFCURVE",
"994 281 OFFCURVE",
"966 324 CURVE",
"900 310 OFFCURVE",
"744 290 OFFCURVE",
"676 283 CURVE",
"693 256 OFFCURVE",
"699 213 OFFCURVE",
"699 199 CURVE SMOOTH",
"699 181 OFFCURVE",
"699 171 OFFCURVE",
"683 136 CURVE",
"678 133 OFFCURVE",
"669 130 OFFCURVE",
"659 130 CURVE SMOOTH",
"654 130 OFFCURVE",
"648 130 OFFCURVE",
"643 132 CURVE",
"632 141 OFFCURVE",
"631 170 OFFCURVE",
"631 191 CURVE SMOOTH",
"631 213 OFFCURVE",
"634 230 OFFCURVE",
"639 254 CURVE",
"608 249 OFFCURVE",
"566 246 OFFCURVE",
"513 246 CURVE SMOOTH",
"451 246 OFFCURVE",
"397 250 OFFCURVE",
"372 254 CURVE",
"377 230 OFFCURVE",
"380 215 OFFCURVE",
"380 191 CURVE SMOOTH",
"380 176 OFFCURVE",
"380 152 OFFCURVE",
"369 133 CURVE",
"367 130 OFFCURVE",
"357 130 OFFCURVE",
"352 130 CURVE SMOOTH",
"346 130 OFFCURVE",
"336 131 OFFCURVE",
"331 133 CURVE",
"321 141 OFFCURVE",
"312 176 OFFCURVE",
"312 208 CURVE SMOOTH",
"313 239 OFFCURVE",
"325 270 OFFCURVE",
"336 273 CURVE",
"400 283 OFFCURVE",
"448 292 OFFCURVE",
"513 312 CURVE",
"526 348 OFFCURVE",
"538 387 OFFCURVE",
"538 430 CURVE SMOOTH",
"538 477 OFFCURVE",
"535 519 OFFCURVE",
"506 563 CURVE",
"451 595 OFFCURVE",
"356 605 OFFCURVE",
"251 605 CURVE SMOOTH"
);
},
{
closed = 1;
nodes = (
"681 563 OFFCURVE",
"681 535 OFFCURVE",
"681 518 CURVE SMOOTH",
"681 506 OFFCURVE",
"681 480 OFFCURVE",
"671 462 CURVE",
"661 452 OFFCURVE",
"630 445 OFFCURVE",
"608 445 CURVE SMOOTH",
"583 445 OFFCURVE",
"573 452 OFFCURVE",
"545 462 CURVE SMOOTH",
"517 471 OFFCURVE",
"507 484 OFFCURVE",
"482 497 CURVE",
"454 360 LINE",
"480 345 OFFCURVE",
"505 338 OFFCURVE",
"562 323 CURVE SMOOTH",
"609 311 OFFCURVE",
"638 304 OFFCURVE",
"680 304 CURVE SMOOTH",
"692 304 OFFCURVE",
"758 307 OFFCURVE",
"817 315 CURVE SMOOTH",
"878 323 OFFCURVE",
"930 335 OFFCURVE",
"946 349 CURVE",
"965 383 OFFCURVE",
"985 419 OFFCURVE",
"985 483 CURVE SMOOTH",
"985 530 OFFCURVE",
"978 565 OFFCURVE",
"958 599 CURVE",
"888 599 OFFCURVE",
"755 605 OFFCURVE",
"681 605 CURVE"
);
}
);
width = 1023;
}
);
unicode = 0C9C;
},
{
glyphname = kn_Jha;
lastChange = "2015-09-03 19:02:26 +0000";
layers = (
{
layerId = "7A0FC40B-77F8-4D14-AD08-D047673E78CB";
name = Regular;
paths = (
{
closed = 1;
nodes = (
"184 581 OFFCURVE",
"155 566 OFFCURVE",
"120 545 CURVE",
"80 491 OFFCURVE",
"40 374 OFFCURVE",
"40 301 CURVE SMOOTH",
"40 200 OFFCURVE",
"58 97 OFFCURVE",
"114 29 CURVE",
"181 0 OFFCURVE",
"357 -12 OFFCURVE",
"494 -12 CURVE SMOOTH",
"614 -12 OFFCURVE",
"739 11 OFFCURVE",
"807 57 CURVE",
"839 128 OFFCURVE",
"854 199 OFFCURVE",
"854 287 CURVE SMOOTH",
"854 368 OFFCURVE",
"834 477 OFFCURVE",
"789 542 CURVE",
"755 564 OFFCURVE",
"720 580 OFFCURVE",
"658 590 CURVE",
"248 591 LINE"
);
},
{
closed = 1;
nodes = (
"462 446 OFFCURVE",
"527 444 OFFCURVE",
"534 438 CURVE",
"544 419 OFFCURVE",
"549 350 OFFCURVE",
"549 297 CURVE SMOOTH",
"549 208 OFFCURVE",
"534 129 OFFCURVE",
"503 129 CURVE SMOOTH",
"464 129 OFFCURVE",
"364 133 OFFCURVE",
"357 141 CURVE",
"350 153 OFFCURVE",
"344 229 OFFCURVE",
"344 274 CURVE SMOOTH",
"344 315 OFFCURVE",
"348 398 OFFCURVE",
"363 432 CURVE",
"373 441 OFFCURVE",
"426 446 OFFCURVE",
"450 446 CURVE SMOOTH"
);
},
{
closed = 1;
nodes = (
"691 625 OFFCURVE",
"674 609 OFFCURVE",
"515 605 CURVE SMOOTH",
"10 591 LINE",
"21 529 OFFCURVE",
"11 467 OFFCURVE",
"0 405 CURVE",
"330 422 LINE",
"440 485 LINE",
"581 424 LINE",
"614 416 LINE SMOOTH",
"709 393 OFFCURVE",
"756 423 OFFCURVE",
"812 456 CURVE SMOOTH",
"860 484 OFFCURVE",
"894 535 OFFCURVE",
"894 590 CURVE SMOOTH",
"894 635 OFFCURVE",
"882 672 OFFCURVE",
"848 699 CURVE",
"817 699 OFFCURVE",
"755 702 OFFCURVE",
"724 707 CURVE"
);
},
{
closed = 1;
nodes = (
"1111 -12 OFFCURVE",
"1065 -56 OFFCURVE",
"1020 -101 CURVE",
"1035 -145 OFFCURVE",
"1044 -187 OFFCURVE",
"1075 -209 CURVE SMOOTH",
"1108 -232 OFFCURVE",
"1143 -254 OFFCURVE",
"1177 -254 CURVE SMOOTH",
"1235 -254 OFFCURVE",
"1263 -236 OFFCURVE",
"1286 -208 CURVE SMOOTH",
"1319 -169 OFFCURVE",
"1324 -120 OFFCURVE",
"1337 -71 CURVE",
"1280 -39 OFFCURVE",
"1236 -4 OFFCURVE",
"1181 16 CURVE"
);
},
{
closed = 1;
nodes = (
"982 550 OFFCURVE",
"976 370 OFFCURVE",
"976 332 CURVE SMOOTH",
"976 290 OFFCURVE",
"971 171 OFFCURVE",
"956 140 CURVE",
"946 131 OFFCURVE",
"918 127 OFFCURVE",
"906 127 CURVE SMOOTH",
"879 127 OFFCURVE",
"843 140 OFFCURVE",
"816 156 CURVE SMOOTH",
"779 178 OFFCURVE",
"751 207 OFFCURVE",
"740 222 CURVE",
"614 138 LINE",
"647 105 OFFCURVE",
"695 51 OFFCURVE",
"756 27 CURVE SMOOTH",
"813 5 OFFCURVE",
"850 -11 OFFCURVE",
"907 -11 CURVE SMOOTH",
"1052 -11 OFFCURVE",
"1152 28 OFFCURVE",
"1220 68 CURVE",
"1276 144 OFFCURVE",
"1278 228 OFFCURVE",
"1278 333 CURVE SMOOTH",
"1278 404 OFFCURVE",
"1267 550 OFFCURVE",
"1260 598 CURVE",
"1221 597 OFFCURVE",
"1192 596 OFFCURVE",
"1152 596 CURVE SMOOTH",
"1095 596 OFFCURVE",
"1037 598 OFFCURVE",
"976 605 CURVE"
);
},
{
closed = 1;
nodes = (
"1403 550 OFFCURVE",
"1397 370 OFFCURVE",
"1397 332 CURVE SMOOTH",
"1397 290 OFFCURVE",
"1392 171 OFFCURVE",
"1377 140 CURVE",
"1367 131 OFFCURVE",
"1339 127 OFFCURVE",
"1327 127 CURVE SMOOTH",
"1300 127 OFFCURVE",
"1264 140 OFFCURVE",
"1237 156 CURVE SMOOTH",
"1200 178 OFFCURVE",
"1172 207 OFFCURVE",
"1161 222 CURVE",
"1035 138 LINE",
"1068 105 OFFCURVE",
"1116 70 OFFCURVE",
"1177 46 CURVE SMOOTH",
"1234 24 OFFCURVE",
"1271 -11 OFFCURVE",
"1328 -11 CURVE SMOOTH",
"1473 -11 OFFCURVE",
"1573 8 OFFCURVE",
"1641 48 CURVE",
"1697 124 OFFCURVE",
"1699 228 OFFCURVE",
"1699 333 CURVE SMOOTH",
"1699 404 OFFCURVE",
"1688 550 OFFCURVE",
"1681 598 CURVE",
"1642 597 OFFCURVE",
"1613 596 OFFCURVE",
"1573 596 CURVE SMOOTH",
"1516 596 OFFCURVE",
"1458 598 OFFCURVE",
"1397 605 CURVE"
);
}
);
width = 1739;
}
);
unicode = 0C9D;
},
{
glyphname = kn_Nya;
lastChange = "2015-10-05 20:59:26 +0000";
layers = (
{
layerId = "7A0FC40B-77F8-4D14-AD08-D047673E78CB";
name = Regular;
paths = (
{
closed = 1;
nodes = (
"620 605 OFFCURVE",
"529 556 OFFCURVE",
"504 529 CURVE",
"477 561 OFFCURVE",
"410 605 OFFCURVE",
"307 605 CURVE SMOOTH",
"200 605 OFFCURVE",
"96 587 OFFCURVE",
"65 560 CURVE",
"44 536 OFFCURVE",
"20 485 OFFCURVE",
"20 438 CURVE SMOOTH",
"20 388 OFFCURVE",
"26 315 OFFCURVE",
"48 285 CURVE",
"99 299 OFFCURVE",
"270 313 OFFCURVE",
"338 313 CURVE",
"327 332 OFFCURVE",
"324 374 OFFCURVE",
"324 398 CURVE SMOOTH",
"324 436 OFFCURVE",
"332 464 OFFCURVE",
"341 464 CURVE SMOOTH",
"349 464 OFFCURVE",
"352 462 OFFCURVE",
"356 459 CURVE",
"367 440 OFFCURVE",
"367 398 OFFCURVE",
"367 383 CURVE SMOOTH",
"367 359 OFFCURVE",
"364 344 OFFCURVE",
"359 320 CURVE",
"384 324 OFFCURVE",
"448 328 OFFCURVE",
"510 328 CURVE SMOOTH",
"563 328 OFFCURVE",
"615 325 OFFCURVE",
"646 320 CURVE",
"641 344 OFFCURVE",
"638 361 OFFCURVE",
"638 383 CURVE SMOOTH",
"638 404 OFFCURVE",
"639 435 OFFCURVE",
"650 459 CURVE",
"655 459 OFFCURVE",
"658 458 OFFCURVE",
"663 451 CURVE",
"682 420 OFFCURVE",
"683 339 OFFCURVE",
"683 297 CURVE SMOOTH",
"683 283 OFFCURVE",
"679 269 OFFCURVE",
"678 264 CURVE",
"665 264 OFFCURVE",
"570 281 OFFCURVE",
"533 284 CURVE SMOOTH",
"469 289 OFFCURVE",
"420 291 OFFCURVE",
"386 291 CURVE SMOOTH",
"325 291 OFFCURVE",
"261 296 OFFCURVE",
"216 276 CURVE",
"192 228 OFFCURVE",
"184 223 OFFCURVE",
"184 175 CURVE SMOOTH",
"184 122 OFFCURVE",
"194 78 OFFCURVE",
"226 30 CURVE",
"310 1 OFFCURVE",
"378 -11 OFFCURVE",
"490 -11 CURVE SMOOTH",
"615 -11 OFFCURVE",
"704 1 OFFCURVE",
"766 23 CURVE",
"838 64 OFFCURVE",
"984 176 OFFCURVE",
"984 297 CURVE SMOOTH",
"984 402 OFFCURVE",
"982 471 OFFCURVE",
"926 547 CURVE",
"858 587 OFFCURVE",
"803 605 OFFCURVE",
"705 605 CURVE SMOOTH"
);
},
{
closed = 1;
nodes = (
"625 141 LINE",
"623 123 OFFCURVE",
"622 136 OFFCURVE",
"619 121 CURVE",
"610 119 OFFCURVE",
"431 130 OFFCURVE",
"415 130 CURVE",
"411 151 OFFCURVE",
"409 141 OFFCURVE",
"410 163 CURVE"
);
},
{
closed = 1;
nodes = (
"637 71 LINE",
"651 71 OFFCURVE",
"664 66 OFFCURVE",
"674 56 CURVE",
"682 48 OFFCURVE",
"690 9 OFFCURVE",
"690 -23 CURVE SMOOTH",
"690 -47 OFFCURVE",
"687 -83 OFFCURVE",
"676 -102 CURVE",
"744 -107 OFFCURVE",
"895 -121 OFFCURVE",
"946 -130 CURVE",
"968 -100 OFFCURVE",
"974 -26 OFFCURVE",
"974 24 CURVE SMOOTH",
"974 71 OFFCURVE",
"959 133 OFFCURVE",
"946 148 CURVE",
"915 175 OFFCURVE",
"708 212 OFFCURVE",
"657 212 CURVE"
);
},
{
closed = 1;
nodes = (
"999 577 OFFCURVE",
"987 576 OFFCURVE",
"975 574 CURVE",
"939 522 OFFCURVE",
"916 487 OFFCURVE",
"900 407 CURVE",
"900 309 LINE",
"931 373 OFFCURVE",
"957 419 OFFCURVE",
"992 464 CURVE",
"1005 471 OFFCURVE",
"1013 472 OFFCURVE",
"1019 472 CURVE",
"1026 451 OFFCURVE",
"1028 430 OFFCURVE",
"1028 410 CURVE SMOOTH",
"1028 370 OFFCURVE",
"1023 342 OFFCURVE",
"1003 299 CURVE",
"1255 289 LINE",
"1274 326 OFFCURVE",
"1286 374 OFFCURVE",
"1286 424 CURVE SMOOTH",
"1286 480 OFFCURVE",
"1280 516 OFFCURVE",
"1267 546 CURVE",
"1246 566 OFFCURVE",
"1042 577 OFFCURVE",
"1011 577 CURVE"
);
}
);
width = 1297;
}
);
unicode = 0C9E;
},
{
glyphname = kn_Tta;
lastChange = "2015-09-03 19:02:26 +0000";
layers = (
{
layerId = "7A0FC40B-77F8-4D14-AD08-D047673E78CB";
name = Regular;
paths = (
{
closed = 1;
nodes = (
"634 455 LINE",
"648 462 OFFCURVE",
"660 466 OFFCURVE",
"678 466 CURVE SMOOTH",
"697 466 OFFCURVE",
"713 456 OFFCURVE",
"713 429 CURVE SMOOTH",
"713 408 OFFCURVE",
"703 396 OFFCURVE",
"690 396 CURVE SMOOTH",
"681 396 OFFCURVE",
"665 396 OFFCURVE",
"661 398 CURVE",
"671 222 LINE",
"685 227 OFFCURVE",
"691 230 OFFCURVE",
"705 230 CURVE SMOOTH",
"720 230 OFFCURVE",
"738 213 OFFCURVE",
"738 182 CURVE SMOOTH",
"738 150 OFFCURVE",
"721 130 OFFCURVE",
"707 130 CURVE SMOOTH",
"692 130 OFFCURVE",
"672 132 OFFCURVE",
"660 135 CURVE",
"649 154 OFFCURVE",
"649 196 OFFCURVE",
"649 211 CURVE SMOOTH",
"649 235 OFFCURVE",
"652 265 OFFCURVE",
"657 289 CURVE",
"632 285 OFFCURVE",
"584 281 OFFCURVE",
"532 281 CURVE SMOOTH",
"480 281 OFFCURVE",
"432 285 OFFCURVE",
"407 289 CURVE",
"412 265 OFFCURVE",
"415 235 OFFCURVE",
"415 211 CURVE SMOOTH",
"415 196 OFFCURVE",
"415 154 OFFCURVE",
"404 135 CURVE",
"392 132 OFFCURVE",
"372 130 OFFCURVE",
"357 130 CURVE SMOOTH",
"343 130 OFFCURVE",
"326 150 OFFCURVE",
"326 182 CURVE SMOOTH",
"326 213 OFFCURVE",
"344 230 OFFCURVE",
"359 230 CURVE SMOOTH",
"373 230 OFFCURVE",
"379 227 OFFCURVE",
"393 222 CURVE",
"403 398 LINE",
"399 396 OFFCURVE",
"383 396 OFFCURVE",
"374 396 CURVE SMOOTH",
"361 396 OFFCURVE",
"351 408 OFFCURVE",
"351 429 CURVE SMOOTH",
"351 456 OFFCURVE",
"367 466 OFFCURVE",
"386 466 CURVE SMOOTH",
"404 466 OFFCURVE",
"416 462 OFFCURVE",
"430 455 CURVE",
"438 605 LINE",
"329 605 OFFCURVE",
"218 605 OFFCURVE",
"121 581 CURVE",
"85 554 OFFCURVE",
"65 489 OFFCURVE",
"65 448 CURVE SMOOTH",
"65 416 OFFCURVE",
"77 367 OFFCURVE",
"103 341 CURVE",
"72 325 OFFCURVE",
"52 301 OFFCURVE",
"38 266 CURVE SMOOTH",
"29 243 OFFCURVE",
"20 224 OFFCURVE",
"20 186 CURVE SMOOTH",
"20 142 OFFCURVE",
"46 59 OFFCURVE",
"89 15 CURVE",
"165 -3 OFFCURVE",
"234 -11 OFFCURVE",
"325 -11 CURVE SMOOTH",
"403 -11 OFFCURVE",
"462 8 OFFCURVE",
"532 40 CURVE",
"602 8 OFFCURVE",
"661 -11 OFFCURVE",
"739 -11 CURVE SMOOTH",
"830 -11 OFFCURVE",
"899 -3 OFFCURVE",
"975 15 CURVE",
"1018 59 OFFCURVE",
"1044 142 OFFCURVE",
"1044 186 CURVE SMOOTH",
"1044 224 OFFCURVE",
"1035 243 OFFCURVE",
"1026 266 CURVE SMOOTH",
"1012 301 OFFCURVE",
"992 325 OFFCURVE",
"961 341 CURVE",
"987 367 OFFCURVE",
"999 416 OFFCURVE",
"999 448 CURVE SMOOTH",
"999 489 OFFCURVE",
"979 554 OFFCURVE",
"943 581 CURVE",
"846 605 OFFCURVE",
"735 605 OFFCURVE",
"626 605 CURVE"
);
}
);
width = 1064;
}
);
unicode = 0C9F;
},
{
glyphname = kn_Ttha;
lastChange = "2015-10-08 18:10:28 +0000";
layers = (
{
layerId = "7A0FC40B-77F8-4D14-AD08-D047673E78CB";
name = Regular;
paths = (
{
closed = 1;
nodes = (
"184 581 OFFCURVE",
"155 566 OFFCURVE",
"120 545 CURVE",
"80 491 OFFCURVE",
"40 374 OFFCURVE",
"40 301 CURVE SMOOTH",
"40 200 OFFCURVE",
"58 97 OFFCURVE",
"114 29 CURVE",
"181 0 OFFCURVE",
"357 -12 OFFCURVE",
"514 -12 CURVE SMOOTH",
"644 -12 OFFCURVE",
"779 11 OFFCURVE",
"847 57 CURVE",
"879 128 OFFCURVE",
"894 199 OFFCURVE",
"894 287 CURVE SMOOTH",
"894 368 OFFCURVE",
"874 477 OFFCURVE",
"829 542 CURVE",
"795 564 OFFCURVE",
"760 580 OFFCURVE",
"698 590 CURVE",
"248 591 LINE"
);
},
{
closed = 1;
nodes = (
"446 416 OFFCURVE",
"403 411 OFFCURVE",
"393 402 CURVE",
"378 368 OFFCURVE",
"374 315 OFFCURVE",
"374 274 CURVE SMOOTH",
"374 229 OFFCURVE",
"380 183 OFFCURVE",
"387 171 CURVE",
"394 163 OFFCURVE",
"474 159 OFFCURVE",
"513 159 CURVE SMOOTH",
"544 159 OFFCURVE",
"559 208 OFFCURVE",
"559 297 CURVE SMOOTH",
"559 350 OFFCURVE",
"554 389 OFFCURVE",
"544 408 CURVE",
"537 414 OFFCURVE",
"482 416 OFFCURVE",
"470 416 CURVE SMOOTH"
);
},
{
closed = 1;
nodes = (
"482 446 OFFCURVE",
"567 444 OFFCURVE",
"574 438 CURVE",
"584 419 OFFCURVE",
"589 350 OFFCURVE",
"589 297 CURVE SMOOTH",
"589 208 OFFCURVE",
"574 129 OFFCURVE",
"543 129 CURVE SMOOTH",
"504 129 OFFCURVE",
"364 133 OFFCURVE",
"357 141 CURVE",
"350 153 OFFCURVE",
"344 229 OFFCURVE",
"344 274 CURVE SMOOTH",
"344 315 OFFCURVE",
"348 398 OFFCURVE",
"363 432 CURVE",
"373 441 OFFCURVE",
"446 446 OFFCURVE",
"470 446 CURVE SMOOTH"
);
},
{
closed = 1;
nodes = (
"731 625 OFFCURVE",
"714 609 OFFCURVE",
"555 605 CURVE SMOOTH",
"10 591 LINE",
"21 529 OFFCURVE",
"11 467 OFFCURVE",
"0 405 CURVE",
"330 422 LINE",
"460 485 LINE",
"601 424 LINE",
"644 416 LINE SMOOTH",
"749 396 OFFCURVE",
"796 423 OFFCURVE",
"852 456 CURVE SMOOTH",
"900 484 OFFCURVE",
"934 535 OFFCURVE",
"934 590 CURVE SMOOTH",
"934 635 OFFCURVE",
"922 672 OFFCURVE",
"888 699 CURVE",
"857 699 OFFCURVE",
"795 702 OFFCURVE",
"764 707 CURVE"
);
}
);
width = 938;
}
);
unicode = 0CA0;
},
{
glyphname = kn_Dda;
lastChange = "2015-09-03 19:02:26 +0000";
layers = (
{
layerId = "7A0FC40B-77F8-4D14-AD08-D047673E78CB";
name = Regular;
paths = (
{
closed = 1;
nodes = (
"865 528 OFFCURVE",
"754 507 OFFCURVE",
"686 500 CURVE",
"731 458 OFFCURVE",
"777 414 OFFCURVE",
"799 362 CURVE SMOOTH",
"822 307 OFFCURVE",
"819 255 OFFCURVE",
"819 236 CURVE SMOOTH",
"819 204 OFFCURVE",
"789 180 OFFCURVE",
"773 145 CURVE",
"763 135 OFFCURVE",
"739 126 OFFCURVE",
"716 126 CURVE SMOOTH",
"703 126 OFFCURVE",
"691 126 OFFCURVE",
"669 131 CURVE",
"658 155 OFFCURVE",
"658 202 OFFCURVE",
"658 222 CURVE SMOOTH",
"658 238 OFFCURVE",
"656 284 OFFCURVE",
"666 302 CURVE",
"635 297 OFFCURVE",
"583 294 OFFCURVE",
"530 294 CURVE SMOOTH",
"468 294 OFFCURVE",
"404 298 OFFCURVE",
"379 302 CURVE",
"384 278 OFFCURVE",
"387 241 OFFCURVE",
"387 222 CURVE SMOOTH",
"387 208 OFFCURVE",
"387 154 OFFCURVE",
"376 135 CURVE",
"372 132 OFFCURVE",
"368 130 OFFCURVE",
"362 130 CURVE SMOOTH",
"357 130 OFFCURVE",
"353 133 OFFCURVE",
"350 136 CURVE",
"334 171 OFFCURVE",
"334 204 OFFCURVE",
"334 236 CURVE SMOOTH",
"334 256 OFFCURVE",
"331 312 OFFCURVE",
"357 371 CURVE SMOOTH",
"379 420 OFFCURVE",
"445 470 OFFCURVE",
"487 500 CURVE",
"419 507 OFFCURVE",
"228 528 OFFCURVE",
"177 552 CURVE",
"136 525 OFFCURVE",
"103 472 OFFCURVE",
"79 412 CURVE SMOOTH",
"47 334 OFFCURVE",
"30 286 OFFCURVE",
"30 236 CURVE SMOOTH",
"30 129 OFFCURVE",
"44 90 OFFCURVE",
"75 34 CURVE",
"106 7 OFFCURVE",
"244 -11 OFFCURVE",
"297 -11 CURVE SMOOTH",
"402 -11 OFFCURVE",
"478 37 OFFCURVE",
"514 69 CURVE",
"539 42 OFFCURVE",
"662 -11 OFFCURVE",
"753 -11 CURVE SMOOTH",
"878 -11 OFFCURVE",
"987 7 OFFCURVE",
"1018 34 CURVE",
"1049 90 OFFCURVE",
"1063 129 OFFCURVE",
"1063 236 CURVE",
"992 261 LINE",
"1049 285 OFFCURVE",
"1035 368 OFFCURVE",
"1007 429 CURVE SMOOTH",
"983 481 OFFCURVE",
"953 527 OFFCURVE",
"916 552 CURVE"
);
},
{
closed = 1;
nodes = (
"657 353 OFFCURVE",
"644 313 OFFCURVE",
"644 287 CURVE SMOOTH",
"644 262 OFFCURVE",
"645 231 OFFCURVE",
"653 205 CURVE",
"737 150 OFFCURVE",
"883 162 OFFCURVE",
"973 261 CURVE",
"820 378 LINE",
"768 389 OFFCURVE",
"703 388 OFFCURVE",
"657 379 CURVE"
);
},
{
closed = 1;
nodes = (
"890 625 OFFCURVE",
"873 615 OFFCURVE",
"714 605 CURVE SMOOTH",
"509 592 LINE SMOOTH",
"409 586 OFFCURVE",
"216 614 OFFCURVE",
"40 625 CURVE",
"51 565 OFFCURVE",
"29 484 OFFCURVE",
"0 434 CURVE",
"108 442 OFFCURVE",
"233 447 OFFCURVE",
"341 441 CURVE SMOOTH",
"780 416 LINE SMOOTH",
"877 410 OFFCURVE",
"945 423 OFFCURVE",
"1001 456 CURVE SMOOTH",
"1049 484 OFFCURVE",
"1083 535 OFFCURVE",
"1083 590 CURVE SMOOTH",
"1083 635 OFFCURVE",
"1071 672 OFFCURVE",
"1037 699 CURVE",
"1006 699 OFFCURVE",
"954 702 OFFCURVE",
"923 707 CURVE"
);
}
);
width = 1083;
}
);
unicode = 0CA1;
},
{
glyphname = kn_Ddha;
lastChange = "2015-09-03 19:02:26 +0000";
layers = (
{
layerId = "7A0FC40B-77F8-4D14-AD08-D047673E78CB";
name = Regular;
paths = (
{
closed = 1;
nodes = (
"865 528 OFFCURVE",
"754 507 OFFCURVE",
"686 500 CURVE",
"731 458 OFFCURVE",
"777 414 OFFCURVE",
"799 362 CURVE SMOOTH",
"822 307 OFFCURVE",
"819 255 OFFCURVE",
"819 236 CURVE SMOOTH",
"819 204 OFFCURVE",
"789 180 OFFCURVE",
"773 145 CURVE",
"763 135 OFFCURVE",
"739 126 OFFCURVE",
"716 126 CURVE SMOOTH",
"703 126 OFFCURVE",
"691 126 OFFCURVE",
"669 131 CURVE",
"658 155 OFFCURVE",
"658 202 OFFCURVE",
"658 222 CURVE SMOOTH",
"658 238 OFFCURVE",
"656 284 OFFCURVE",
"666 302 CURVE",
"635 297 OFFCURVE",
"583 294 OFFCURVE",
"530 294 CURVE SMOOTH",
"468 294 OFFCURVE",
"404 298 OFFCURVE",
"379 302 CURVE",
"384 278 OFFCURVE",
"387 241 OFFCURVE",
"387 222 CURVE SMOOTH",
"387 208 OFFCURVE",
"387 154 OFFCURVE",
"376 135 CURVE",
"372 132 OFFCURVE",
"368 130 OFFCURVE",
"362 130 CURVE SMOOTH",
"357 130 OFFCURVE",
"353 133 OFFCURVE",
"350 136 CURVE",
"334 171 OFFCURVE",
"334 204 OFFCURVE",
"334 236 CURVE SMOOTH",
"334 256 OFFCURVE",
"331 312 OFFCURVE",
"357 371 CURVE SMOOTH",
"379 420 OFFCURVE",
"445 470 OFFCURVE",
"487 500 CURVE",
"419 507 OFFCURVE",
"228 528 OFFCURVE",
"177 552 CURVE",
"136 525 OFFCURVE",
"103 472 OFFCURVE",
"79 412 CURVE SMOOTH",
"47 334 OFFCURVE",
"30 286 OFFCURVE",
"30 236 CURVE SMOOTH",
"30 129 OFFCURVE",
"44 90 OFFCURVE",
"75 34 CURVE",
"106 7 OFFCURVE",
"244 -11 OFFCURVE",
"297 -11 CURVE SMOOTH",
"402 -11 OFFCURVE",
"478 37 OFFCURVE",
"514 69 CURVE",
"539 42 OFFCURVE",
"662 -11 OFFCURVE",
"753 -11 CURVE SMOOTH",
"878 -11 OFFCURVE",
"987 7 OFFCURVE",
"1018 34 CURVE",
"1049 90 OFFCURVE",
"1063 129 OFFCURVE",
"1063 236 CURVE",
"992 261 LINE",
"1049 285 OFFCURVE",
"1035 368 OFFCURVE",
"1007 429 CURVE SMOOTH",
"983 481 OFFCURVE",
"953 527 OFFCURVE",
"916 552 CURVE"
);
},
{
closed = 1;
nodes = (
"448 -12 OFFCURVE",
"402 -56 OFFCURVE",
"357 -101 CURVE",
"372 -145 OFFCURVE",
"381 -187 OFFCURVE",
"412 -209 CURVE SMOOTH",
"445 -232 OFFCURVE",
"480 -254 OFFCURVE",
"514 -254 CURVE SMOOTH",
"572 -254 OFFCURVE",
"600 -236 OFFCURVE",
"623 -208 CURVE SMOOTH",
"656 -169 OFFCURVE",
"661 -120 OFFCURVE",
"674 -71 CURVE",
"617 -39 OFFCURVE",
"573 -4 OFFCURVE",
"518 16 CURVE"
);
},
{
closed = 1;
nodes = (
"657 353 OFFCURVE",
"644 313 OFFCURVE",
"644 287 CURVE SMOOTH",
"644 262 OFFCURVE",
"645 231 OFFCURVE",
"653 205 CURVE",
"737 150 OFFCURVE",
"883 162 OFFCURVE",
"973 261 CURVE",
"820 378 LINE",
"768 389 OFFCURVE",
"703 388 OFFCURVE",
"657 379 CURVE"
);
},
{
closed = 1;
nodes = (
"890 625 OFFCURVE",
"873 615 OFFCURVE",
"714 605 CURVE SMOOTH",
"509 592 LINE SMOOTH",
"409 586 OFFCURVE",
"216 614 OFFCURVE",
"40 625 CURVE",
"51 565 OFFCURVE",
"29 484 OFFCURVE",
"0 434 CURVE",
"108 442 OFFCURVE",
"233 447 OFFCURVE",
"341 441 CURVE SMOOTH",
"780 416 LINE SMOOTH",
"877 410 OFFCURVE",
"945 423 OFFCURVE",
"1001 456 CURVE SMOOTH",
"1049 484 OFFCURVE",
"1083 535 OFFCURVE",
"1083 590 CURVE SMOOTH",
"1083 635 OFFCURVE",
"1071 672 OFFCURVE",
"1037 699 CURVE",
"1006 699 OFFCURVE",
"954 702 OFFCURVE",
"923 707 CURVE"
);
}
);
width = 1083;
}
);
unicode = 0CA2;
},
{
glyphname = kn_Nna;
lastChange = "2015-09-03 19:02:26 +0000";
layers = (
{
layerId = "7A0FC40B-77F8-4D14-AD08-D047673E78CB";
name = Regular;
paths = (
{
closed = 1;
nodes = (
"710 605 OFFCURVE",
"597 566 OFFCURVE",
"572 539 CURVE",
"536 571 OFFCURVE",
"429 605 OFFCURVE",
"303 605 CURVE SMOOTH",
"214 605 OFFCURVE",
"104 587 OFFCURVE",
"73 560 CURVE",
"42 506 OFFCURVE",
"28 458 OFFCURVE",
"28 409 CURVE SMOOTH",
"28 346 OFFCURVE",
"59 307 OFFCURVE",
"100 279 CURVE",
"39 262 OFFCURVE",
"20 191 OFFCURVE",
"20 159 CURVE SMOOTH",
"20 111 OFFCURVE",
"33 49 OFFCURVE",
"101 13 CURVE",
"185 -13 OFFCURVE",
"358 -11 OFFCURVE",
"498 -11 CURVE",
"479 168 LINE",
"426 135 OFFCURVE",
"397 129 OFFCURVE",
"374 129 CURVE SMOOTH",
"347 129 OFFCURVE",
"320 144 OFFCURVE",
"320 168 CURVE SMOOTH",
"320 190 OFFCURVE",
"340 196 OFFCURVE",
"371 200 CURVE SMOOTH",
"380 201 OFFCURVE",
"452 198 OFFCURVE",
"463 189 CURVE",
"492 331 LINE",
"468 339 OFFCURVE",
"388 336 OFFCURVE",
"374 336 CURVE SMOOTH",
"343 336 OFFCURVE",
"332 371 OFFCURVE",
"332 399 CURVE SMOOTH",
"332 420 OFFCURVE",
"337 438 OFFCURVE",
"348 449 CURVE",
"358 459 OFFCURVE",
"371 464 OFFCURVE",
"385 464 CURVE SMOOTH",
"400 464 OFFCURVE",
"422 462 OFFCURVE",
"434 459 CURVE",
"445 440 OFFCURVE",
"445 418 OFFCURVE",
"445 403 CURVE SMOOTH",
"445 379 OFFCURVE",
"442 369 OFFCURVE",
"437 345 CURVE",
"462 349 OFFCURVE",
"526 353 OFFCURVE",
"588 353 CURVE SMOOTH",
"641 353 OFFCURVE",
"693 355 OFFCURVE",
"724 350 CURVE",
"719 374 OFFCURVE",
"716 381 OFFCURVE",
"716 403 CURVE SMOOTH",
"716 424 OFFCURVE",
"717 435 OFFCURVE",
"728 459 CURVE",
"737 462 OFFCURVE",
"748 464 OFFCURVE",
"761 464 CURVE SMOOTH",
"775 464 OFFCURVE",
"788 459 OFFCURVE",
"798 449 CURVE",
"807 433 OFFCURVE",
"813 406 OFFCURVE",
"814 390 CURVE SMOOTH",
"816 367 OFFCURVE",
"818 355 OFFCURVE",
"818 334 CURVE",
"791 337 OFFCURVE",
"751 337 OFFCURVE",
"721 337 CURVE SMOOTH",
"656 337 OFFCURVE",
"593 336 OFFCURVE",
"548 325 CURVE",
"531 282 OFFCURVE",
"521 216 OFFCURVE",
"521 154 CURVE SMOOTH",
"521 110 OFFCURVE",
"525 69 OFFCURVE",
"539 33 CURVE",
"586 5 OFFCURVE",
"695 -11 OFFCURVE",
"807 -11 CURVE SMOOTH",
"924 -11 OFFCURVE",
"976 3 OFFCURVE",
"1068 36 CURVE",
"1119 116 OFFCURVE",
"1133 190 OFFCURVE",
"1133 274 CURVE SMOOTH",
"1133 311 OFFCURVE",
"1130 356 OFFCURVE",
"1124 400 CURVE",
"1116 447 OFFCURVE",
"1104 504 OFFCURVE",
"1073 560 CURVE",
"1042 587 OFFCURVE",
"906 605 OFFCURVE",
"801 605 CURVE SMOOTH"
);
},
{
closed = 1;
nodes = (
"824 185 OFFCURVE",
"821 167 OFFCURVE",
"815 149 CURVE",
"801 142 OFFCURVE",
"776 134 OFFCURVE",
"753 134 CURVE",
"749 150 OFFCURVE",
"745 185 OFFCURVE",
"744 198 CURVE",
"778 203 OFFCURVE",
"799 203 OFFCURVE",
"826 203 CURVE"
);
}
);
width = 1163;
}
);
unicode = 0CA3;
},
{
glyphname = kn_Ta;
lastChange = "2015-09-03 19:02:26 +0000";
layers = (
{
layerId = "7A0FC40B-77F8-4D14-AD08-D047673E78CB";
name = Regular;
paths = (
{
closed = 1;
nodes = (
"452 463 LINE",
"459 466 OFFCURVE",
"466 467 OFFCURVE",
"476 467 CURVE SMOOTH",
"503 467 OFFCURVE",
"524 457 OFFCURVE",
"524 432 CURVE SMOOTH",
"524 428 OFFCURVE",
"524 424 OFFCURVE",
"523 420 CURVE",
"451 430 OFFCURVE",
"378 417 OFFCURVE",
"335 382 CURVE",
"323 366 OFFCURVE",
"312 335 OFFCURVE",
"312 300 CURVE SMOOTH",
"312 245 OFFCURVE",
"327 216 OFFCURVE",
"339 198 CURVE",
"373 179 OFFCURVE",
"470 168 OFFCURVE",
"522 179 CURVE",
"549 198 LINE",
"549 194 LINE",
"549 172 OFFCURVE",
"525 130 OFFCURVE",
"449 130 CURVE SMOOTH",
"409 130 OFFCURVE",
"343 135 OFFCURVE",
"333 145 CURVE",
"317 180 OFFCURVE",
"314 199 OFFCURVE",
"314 231 CURVE SMOOTH",
"314 251 OFFCURVE",
"328 316 OFFCURVE",
"340 340 CURVE",
"272 347 OFFCURVE",
"121 368 OFFCURVE",
"70 392 CURVE",
"59 369 OFFCURVE",
"50 343 OFFCURVE",
"45 317 CURVE SMOOTH",
"36 273 OFFCURVE",
"30 243 OFFCURVE",
"30 191 CURVE SMOOTH",
"30 144 OFFCURVE",
"47 90 OFFCURVE",
"78 34 CURVE",
"109 7 OFFCURVE",
"323 -11 OFFCURVE",
"440 -11 CURVE SMOOTH",
"551 -11 OFFCURVE",
"696 -4 OFFCURVE",
"772 26 CURVE",
"827 69 OFFCURVE",
"855 126 OFFCURVE",
"855 196 CURVE SMOOTH",
"855 234 OFFCURVE",
"849 264 OFFCURVE",
"837 286 CURVE",
"823 309 OFFCURVE",
"803 325 OFFCURVE",
"772 341 CURVE",
"798 367 OFFCURVE",
"810 416 OFFCURVE",
"810 448 CURVE SMOOTH",
"810 496 OFFCURVE",
"792 545 OFFCURVE",
"743 581 CURVE",
"659 607 OFFCURVE",
"603 605 OFFCURVE",
"453 605 CURVE"
);
},
{
closed = 1;
nodes = (
"513 326 OFFCURVE",
"520 325 OFFCURVE",
"529 322 CURVE",
"529 312 OFFCURVE",
"528 299 OFFCURVE",
"522 290 CURVE",
"509 287 OFFCURVE",
"505 287 OFFCURVE",
"500 287 CURVE SMOOTH",
"494 287 OFFCURVE",
"487 288 OFFCURVE",
"482 290 CURVE",
"476 299 OFFCURVE",
"478 309 OFFCURVE",
"483 323 CURVE",
"490 325 OFFCURVE",
"498 326 OFFCURVE",
"504 326 CURVE SMOOTH"
);
},
{
closed = 1;
nodes = (
"692 625 OFFCURVE",
"675 605 OFFCURVE",
"506 605 CURVE SMOOTH",
"24 606 LINE",
"19 540 OFFCURVE",
"13 488 OFFCURVE",
"0 422 CURVE",
"310 422 LINE",
"506 446 LINE",
"592 446 LINE SMOOTH",
"689 446 OFFCURVE",
"762 443 OFFCURVE",
"803 456 CURVE SMOOTH",
"856 473 OFFCURVE",
"885 535 OFFCURVE",
"885 590 CURVE SMOOTH",
"885 635 OFFCURVE",
"873 672 OFFCURVE",
"839 699 CURVE",
"808 699 OFFCURVE",
"756 702 OFFCURVE",
"725 707 CURVE"
);
}
);
width = 885;
}
);
unicode = 0CA4;
},
{
glyphname = kn_Tha;
lastChange = "2015-10-11 22:35:20 +0000";
layers = (
{
layerId = "7A0FC40B-77F8-4D14-AD08-D047673E78CB";
name = Regular;
paths = (
{
closed = 1;
nodes = (
"812 528 OFFCURVE",
"641 507 OFFCURVE",
"573 500 CURVE",
"618 468 OFFCURVE",
"664 414 OFFCURVE",
"686 362 CURVE SMOOTH",
"709 307 OFFCURVE",
"706 255 OFFCURVE",
"706 236 CURVE SMOOTH",
"706 204 OFFCURVE",
"706 168 OFFCURVE",
"690 133 CURVE",
"685 129 OFFCURVE",
"683 126 OFFCURVE",
"678 126 CURVE SMOOTH",
"673 126 OFFCURVE",
"669 129 OFFCURVE",
"669 131 CURVE",
"658 155 OFFCURVE",
"658 175 OFFCURVE",
"658 189 CURVE SMOOTH",
"658 201 OFFCURVE",
"661 214 OFFCURVE",
"666 248 CURVE",
"635 243 OFFCURVE",
"583 240 OFFCURVE",
"530 240 CURVE SMOOTH",
"468 240 OFFCURVE",
"404 244 OFFCURVE",
"379 248 CURVE",
"384 224 OFFCURVE",
"387 204 OFFCURVE",
"387 189 CURVE SMOOTH",
"387 176 OFFCURVE",
"387 155 OFFCURVE",
"376 135 CURVE",
"372 132 OFFCURVE",
"369 130 OFFCURVE",
"362 130 CURVE SMOOTH",
"356 130 OFFCURVE",
"353 134 OFFCURVE",
"350 137 CURVE",
"334 172 OFFCURVE",
"334 204 OFFCURVE",
"334 236 CURVE SMOOTH",
"334 256 OFFCURVE",
"331 312 OFFCURVE",
"357 371 CURVE SMOOTH",
"379 420 OFFCURVE",
"425 470 OFFCURVE",
"467 500 CURVE",
"399 507 OFFCURVE",
"228 528 OFFCURVE",
"177 552 CURVE",
"136 525 OFFCURVE",
"103 472 OFFCURVE",
"79 412 CURVE SMOOTH",
"47 334 OFFCURVE",
"30 286 OFFCURVE",
"30 236 CURVE SMOOTH",
"30 129 OFFCURVE",
"44 90 OFFCURVE",
"75 34 CURVE",
"106 7 OFFCURVE",
"246 -11 OFFCURVE",
"297 -11 CURVE SMOOTH",
"402 -11 OFFCURVE",
"478 23 OFFCURVE",
"514 55 CURVE",
"539 28 OFFCURVE",
"652 -11 OFFCURVE",
"743 -11 CURVE SMOOTH",
"794 -11 OFFCURVE",
"934 7 OFFCURVE",
"965 34 CURVE",
"996 90 OFFCURVE",
"1010 129 OFFCURVE",
"1010 236 CURVE SMOOTH",
"1010 289 OFFCURVE",
"991 347 OFFCURVE",
"954 429 CURVE SMOOTH",
"930 481 OFFCURVE",
"900 527 OFFCURVE",
"863 552 CURVE"
);
},
{
closed = 1;
nodes = (
"446 -12 OFFCURVE",
"400 -56 OFFCURVE",
"355 -101 CURVE",
"370 -145 OFFCURVE",
"379 -187 OFFCURVE",
"410 -209 CURVE SMOOTH",
"443 -232 OFFCURVE",
"478 -254 OFFCURVE",
"512 -254 CURVE SMOOTH",
"570 -254 OFFCURVE",
"598 -236 OFFCURVE",
"621 -208 CURVE SMOOTH",
"654 -169 OFFCURVE",
"659 -120 OFFCURVE",
"672 -71 CURVE",
"615 -39 OFFCURVE",
"571 -4 OFFCURVE",
"516 16 CURVE"
);
},
{
closed = 1;
nodes = (
"367 407 LINE",
"381 317 OFFCURVE",
"383 306 OFFCURVE",
"380 260 CURVE",
"429 263 OFFCURVE",
"467 265 OFFCURVE",
"510 265 CURVE SMOOTH",
"552 265 OFFCURVE",
"596 262 OFFCURVE",
"654 256 CURVE",
"701 420 LINE"
);
},
{
closed = 1;
nodes = (
"847 625 OFFCURVE",
"830 603 OFFCURVE",
"671 605 CURVE SMOOTH",
"14 615 LINE",
"15 555 OFFCURVE",
"19 494 OFFCURVE",
"0 434 CURVE",
"108 442 OFFCURVE",
"227 447 OFFCURVE",
"335 441 CURVE SMOOTH",
"760 416 LINE SMOOTH",
"857 410 OFFCURVE",
"902 423 OFFCURVE",
"958 456 CURVE SMOOTH",
"1006 484 OFFCURVE",
"1040 535 OFFCURVE",
"1040 590 CURVE SMOOTH",
"1040 635 OFFCURVE",
"1028 672 OFFCURVE",
"994 699 CURVE",
"963 699 OFFCURVE",
"911 702 OFFCURVE",
"880 707 CURVE"
);
}
);
width = 1040;
}
);
unicode = 0CA5;
},
{
glyphname = kn_Da;
lastChange = "2015-09-03 19:02:26 +0000";
layers = (
{
layerId = "7A0FC40B-77F8-4D14-AD08-D047673E78CB";
name = Regular;
paths = (
{
closed = 1;
nodes = (
"812 528 OFFCURVE",
"641 507 OFFCURVE",
"573 500 CURVE",
"618 468 OFFCURVE",
"664 414 OFFCURVE",
"686 362 CURVE SMOOTH",
"709 307 OFFCURVE",
"706 255 OFFCURVE",
"706 236 CURVE SMOOTH",
"706 204 OFFCURVE",
"706 168 OFFCURVE",
"690 133 CURVE",
"685 129 OFFCURVE",
"683 126 OFFCURVE",
"678 126 CURVE SMOOTH",
"673 126 OFFCURVE",
"669 129 OFFCURVE",
"669 131 CURVE",
"658 165 OFFCURVE",
"658 188 OFFCURVE",
"658 229 CURVE SMOOTH",
"658 261 OFFCURVE",
"661 274 OFFCURVE",
"666 308 CURVE",
"635 303 OFFCURVE",
"583 300 OFFCURVE",
"530 300 CURVE SMOOTH",
"468 300 OFFCURVE",
"404 304 OFFCURVE",
"379 308 CURVE",
"384 284 OFFCURVE",
"387 253 OFFCURVE",
"387 229 CURVE SMOOTH",
"387 194 OFFCURVE",
"387 164 OFFCURVE",
"376 135 CURVE",
"372 132 OFFCURVE",
"369 130 OFFCURVE",
"362 130 CURVE SMOOTH",
"356 130 OFFCURVE",
"353 134 OFFCURVE",
"350 137 CURVE",
"334 172 OFFCURVE",
"334 204 OFFCURVE",
"334 236 CURVE SMOOTH",
"334 256 OFFCURVE",
"331 312 OFFCURVE",
"357 371 CURVE SMOOTH",
"379 420 OFFCURVE",
"425 470 OFFCURVE",
"467 500 CURVE",
"399 507 OFFCURVE",
"228 528 OFFCURVE",
"177 552 CURVE",
"136 525 OFFCURVE",
"103 472 OFFCURVE",
"79 412 CURVE SMOOTH",
"47 334 OFFCURVE",
"30 286 OFFCURVE",
"30 236 CURVE SMOOTH",
"30 129 OFFCURVE",
"44 90 OFFCURVE",
"75 34 CURVE",
"106 7 OFFCURVE",
"246 -11 OFFCURVE",
"297 -11 CURVE SMOOTH",
"402 -11 OFFCURVE",
"478 23 OFFCURVE",
"514 55 CURVE",
"539 28 OFFCURVE",
"652 -11 OFFCURVE",
"743 -11 CURVE SMOOTH",
"794 -11 OFFCURVE",
"934 7 OFFCURVE",
"965 34 CURVE",
"996 90 OFFCURVE",
"1010 129 OFFCURVE",
"1010 236 CURVE SMOOTH",
"1010 289 OFFCURVE",
"991 347 OFFCURVE",
"954 429 CURVE SMOOTH",
"930 481 OFFCURVE",
"900 527 OFFCURVE",
"863 552 CURVE"
);
},
{
closed = 1;
nodes = (
"847 625 OFFCURVE",
"830 603 OFFCURVE",
"671 605 CURVE SMOOTH",
"14 615 LINE",
"15 555 OFFCURVE",
"19 494 OFFCURVE",
"0 434 CURVE",
"108 442 OFFCURVE",
"227 447 OFFCURVE",
"335 441 CURVE SMOOTH",
"760 416 LINE SMOOTH",
"857 410 OFFCURVE",
"902 423 OFFCURVE",
"958 456 CURVE SMOOTH",
"1006 484 OFFCURVE",
"1040 535 OFFCURVE",
"1040 590 CURVE SMOOTH",
"1040 635 OFFCURVE",
"1028 672 OFFCURVE",
"994 699 CURVE",
"963 699 OFFCURVE",
"911 702 OFFCURVE",
"880 707 CURVE"
);
}
);
width = 1040;
}
);
unicode = 0CA6;
},
{
glyphname = kn_Dha;
lastChange = "2015-09-03 19:02:26 +0000";
layers = (
{
layerId = "7A0FC40B-77F8-4D14-AD08-D047673E78CB";
name = Regular;
paths = (
{
closed = 1;
nodes = (
"812 528 OFFCURVE",
"641 507 OFFCURVE",
"573 500 CURVE",
"618 468 OFFCURVE",
"664 414 OFFCURVE",
"686 362 CURVE SMOOTH",
"709 307 OFFCURVE",
"706 255 OFFCURVE",
"706 236 CURVE SMOOTH",
"706 204 OFFCURVE",
"706 168 OFFCURVE",
"690 133 CURVE",
"685 129 OFFCURVE",
"683 126 OFFCURVE",
"678 126 CURVE SMOOTH",
"673 126 OFFCURVE",
"669 129 OFFCURVE",
"669 131 CURVE",
"658 165 OFFCURVE",
"658 188 OFFCURVE",
"658 229 CURVE SMOOTH",
"658 261 OFFCURVE",
"661 274 OFFCURVE",
"666 308 CURVE",
"635 303 OFFCURVE",
"583 300 OFFCURVE",
"530 300 CURVE SMOOTH",
"468 300 OFFCURVE",
"404 304 OFFCURVE",
"379 308 CURVE",
"384 284 OFFCURVE",
"387 253 OFFCURVE",
"387 229 CURVE SMOOTH",
"387 194 OFFCURVE",
"387 164 OFFCURVE",
"376 135 CURVE",
"372 132 OFFCURVE",
"369 130 OFFCURVE",
"362 130 CURVE SMOOTH",
"356 130 OFFCURVE",
"353 134 OFFCURVE",
"350 137 CURVE",
"334 172 OFFCURVE",
"334 204 OFFCURVE",
"334 236 CURVE SMOOTH",
"334 256 OFFCURVE",
"331 312 OFFCURVE",
"357 371 CURVE SMOOTH",
"379 420 OFFCURVE",
"425 470 OFFCURVE",
"467 500 CURVE",
"399 507 OFFCURVE",
"228 528 OFFCURVE",
"177 552 CURVE",
"136 525 OFFCURVE",
"103 472 OFFCURVE",
"79 412 CURVE SMOOTH",
"47 334 OFFCURVE",
"30 286 OFFCURVE",
"30 236 CURVE SMOOTH",
"30 129 OFFCURVE",
"44 90 OFFCURVE",
"75 34 CURVE",
"106 7 OFFCURVE",
"246 -11 OFFCURVE",
"297 -11 CURVE SMOOTH",
"402 -11 OFFCURVE",
"478 23 OFFCURVE",
"514 55 CURVE",
"539 28 OFFCURVE",
"652 -11 OFFCURVE",
"743 -11 CURVE SMOOTH",
"794 -11 OFFCURVE",
"934 7 OFFCURVE",
"965 34 CURVE",
"996 90 OFFCURVE",
"1010 129 OFFCURVE",
"1010 236 CURVE SMOOTH",
"1010 289 OFFCURVE",
"991 347 OFFCURVE",
"954 429 CURVE SMOOTH",
"930 481 OFFCURVE",
"900 527 OFFCURVE",
"863 552 CURVE"
);
},
{
closed = 1;
nodes = (
"446 -12 OFFCURVE",
"400 -56 OFFCURVE",
"355 -101 CURVE",
"370 -145 OFFCURVE",
"379 -187 OFFCURVE",
"410 -209 CURVE SMOOTH",
"443 -232 OFFCURVE",
"478 -254 OFFCURVE",
"512 -254 CURVE SMOOTH",
"570 -254 OFFCURVE",
"598 -236 OFFCURVE",
"621 -208 CURVE SMOOTH",
"654 -169 OFFCURVE",
"659 -120 OFFCURVE",
"672 -71 CURVE",
"615 -39 OFFCURVE",
"571 -4 OFFCURVE",
"516 16 CURVE"
);
},
{
closed = 1;
nodes = (
"847 625 OFFCURVE",
"830 603 OFFCURVE",
"671 605 CURVE SMOOTH",
"14 615 LINE",
"15 555 OFFCURVE",
"19 494 OFFCURVE",
"0 434 CURVE",
"108 442 OFFCURVE",
"227 447 OFFCURVE",
"335 441 CURVE SMOOTH",
"760 416 LINE SMOOTH",
"857 410 OFFCURVE",
"902 423 OFFCURVE",
"958 456 CURVE SMOOTH",
"1006 484 OFFCURVE",
"1040 535 OFFCURVE",
"1040 590 CURVE SMOOTH",
"1040 635 OFFCURVE",
"1028 672 OFFCURVE",
"994 699 CURVE",
"963 699 OFFCURVE",
"911 702 OFFCURVE",
"880 707 CURVE"
);
}
);
width = 1040;
}
);
unicode = 0CA7;
},
{
glyphname = kn_Na;
lastChange = "2015-10-09 20:52:27 +0000";
layers = (
{
layerId = "7A0FC40B-77F8-4D14-AD08-D047673E78CB";
name = Regular;
paths = (
{
closed = 1;
nodes = (
"687 529 OFFCURVE",
"681 370 OFFCURVE",
"681 332 CURVE SMOOTH",
"681 290 OFFCURVE",
"676 171 OFFCURVE",
"661 140 CURVE",
"651 131 OFFCURVE",
"642 134 OFFCURVE",
"637 134 CURVE SMOOTH",
"628 134 OFFCURVE",
"614 146 OFFCURVE",
"605 156 CURVE",
"568 207 OFFCURVE",
"545 267 OFFCURVE",
"510 312 CURVE",
"474 334 OFFCURVE",
"351 344 OFFCURVE",
"288 344 CURVE SMOOTH",
"166 344 OFFCURVE",
"96 318 OFFCURVE",
"65 298 CURVE",
"34 271 OFFCURVE",
"16 163 OFFCURVE",
"16 116 CURVE SMOOTH",
"16 90 OFFCURVE",
"20 16 OFFCURVE",
"43 -10 CURVE",
"104 10 OFFCURVE",
"253 16 OFFCURVE",
"333 6 CURVE",
"326 27 OFFCURVE",
"320 56 OFFCURVE",
"320 84 CURVE SMOOTH",
"320 104 OFFCURVE",
"324 168 OFFCURVE",
"333 181 CURVE",
"340 192 OFFCURVE",
"345 196 OFFCURVE",
"351 196 CURVE SMOOTH",
"358 196 OFFCURVE",
"361 186 OFFCURVE",
"370 180 CURVE",
"397 139 OFFCURVE",
"438 77 OFFCURVE",
"481 21 CURVE",
"527 -3 OFFCURVE",
"549 -9 OFFCURVE",
"660 -9 CURVE",
"763 -9 OFFCURVE",
"857 8 OFFCURVE",
"925 48 CURVE",
"981 124 OFFCURVE",
"983 228 OFFCURVE",
"983 333 CURVE SMOOTH",
"983 404 OFFCURVE",
"972 529 OFFCURVE",
"965 577 CURVE",
"926 576 OFFCURVE",
"897 575 OFFCURVE",
"857 575 CURVE SMOOTH",
"800 575 OFFCURVE",
"742 577 OFFCURVE",
"681 584 CURVE"
);
},
{
closed = 1;
nodes = (
"830 626 OFFCURVE",
"813 604 OFFCURVE",
"654 606 CURVE SMOOTH",
"12 615 LINE",
"18 547 OFFCURVE",
"6 494 OFFCURVE",
"0 434 CURVE",
"108 442 OFFCURVE",
"229 447 OFFCURVE",
"337 441 CURVE SMOOTH",
"743 417 LINE SMOOTH",
"840 411 OFFCURVE",
"885 424 OFFCURVE",
"941 457 CURVE SMOOTH",
"989 485 OFFCURVE",
"1023 536 OFFCURVE",
"1023 591 CURVE SMOOTH",
"1023 636 OFFCURVE",
"1011 673 OFFCURVE",
"977 700 CURVE",
"946 700 OFFCURVE",
"894 703 OFFCURVE",
"863 708 CURVE"
);
}
);
width = 1027;
}
);
unicode = 0CA8;
},
{
glyphname = kn_Pa;
lastChange = "2015-10-12 20:46:04 +0000";
layers = (
{
layerId = "7A0FC40B-77F8-4D14-AD08-D047673E78CB";
name = Regular;
paths = (
{
closed = 1;
nodes = (
"932 373 OFFCURVE",
"761 352 OFFCURVE",
"693 345 CURVE",
"702 326 OFFCURVE",
"709 304 OFFCURVE",
"713 278 CURVE SMOOTH",
"715 265 OFFCURVE",
"716 251 OFFCURVE",
"716 236 CURVE SMOOTH",
"716 204 OFFCURVE",
"716 171 OFFCURVE",
"700 136 CURVE",
"695 133 OFFCURVE",
"681 130 OFFCURVE",
"678 130 CURVE SMOOTH",
"673 130 OFFCURVE",
"665 130 OFFCURVE",
"660 132 CURVE",
"649 156 OFFCURVE",
"648 170 OFFCURVE",
"648 191 CURVE SMOOTH",
"648 213 OFFCURVE",
"651 230 OFFCURVE",
"656 254 CURVE",
"625 249 OFFCURVE",
"583 246 OFFCURVE",
"530 246 CURVE SMOOTH",
"468 246 OFFCURVE",
"414 250 OFFCURVE",
"389 254 CURVE",
"394 230 OFFCURVE",
"397 215 OFFCURVE",
"397 191 CURVE SMOOTH",
"397 176 OFFCURVE",
"397 152 OFFCURVE",
"386 133 CURVE",
"384 130 OFFCURVE",
"376 130 OFFCURVE",
"372 130 CURVE SMOOTH",
"365 130 OFFCURVE",
"354 132 OFFCURVE",
"350 136 CURVE",
"334 171 OFFCURVE",
"334 204 OFFCURVE",
"334 236 CURVE SMOOTH",
"334 251 OFFCURVE",
"335 265 OFFCURVE",
"337 278 CURVE SMOOTH",
"341 304 OFFCURVE",
"348 326 OFFCURVE",
"357 345 CURVE",
"289 352 OFFCURVE",
"118 373 OFFCURVE",
"67 397 CURVE",
"56 374 OFFCURVE",
"47 353 OFFCURVE",
"42 327 CURVE SMOOTH",
"33 283 OFFCURVE",
"30 248 OFFCURVE",
"30 196 CURVE SMOOTH",
"30 149 OFFCURVE",
"44 90 OFFCURVE",
"75 34 CURVE",
"106 7 OFFCURVE",
"286 -11 OFFCURVE",
"337 -11 CURVE SMOOTH",
"442 -11 OFFCURVE",
"478 23 OFFCURVE",
"514 55 CURVE",
"539 28 OFFCURVE",
"612 -11 OFFCURVE",
"703 -11 CURVE SMOOTH",
"754 -11 OFFCURVE",
"944 7 OFFCURVE",
"975 34 CURVE",
"1006 90 OFFCURVE",
"1020 149 OFFCURVE",
"1020 196 CURVE SMOOTH",
"1020 248 OFFCURVE",
"1017 283 OFFCURVE",
"1008 327 CURVE SMOOTH",
"1003 353 OFFCURVE",
"994 374 OFFCURVE",
"983 397 CURVE"
);
},
{
closed = 1;
nodes = (
"383 425 LINE",
"397 335 OFFCURVE",
"399 314 OFFCURVE",
"396 268 CURVE",
"445 271 OFFCURVE",
"473 273 OFFCURVE",
"516 273 CURVE SMOOTH",
"558 273 OFFCURVE",
"592 270 OFFCURVE",
"650 264 CURVE",
"697 438 LINE"
);
},
{
closed = 1;
nodes = (
"857 631 OFFCURVE",
"823 609 OFFCURVE",
"718 605 CURVE SMOOTH",
"460 596 LINE",
"13 621 LINE",
"49 586 OFFCURVE",
"0 477 OFFCURVE",
"0 440 CURVE",
"108 448 OFFCURVE",
"243 453 OFFCURVE",
"351 447 CURVE SMOOTH",
"770 422 LINE SMOOTH",
"867 416 OFFCURVE",
"912 429 OFFCURVE",
"968 462 CURVE SMOOTH",
"1016 490 OFFCURVE",
"1050 541 OFFCURVE",
"1050 596 CURVE SMOOTH",
"1050 641 OFFCURVE",
"1038 678 OFFCURVE",
"1004 705 CURVE",
"973 705 OFFCURVE",
"921 708 OFFCURVE",
"900 713 CURVE"
);
}
);
width = 1052;
}
);
unicode = 0CAA;
},
{
glyphname = kn_Pha;
lastChange = "2015-10-12 19:34:56 +0000";
layers = (
{
layerId = "7A0FC40B-77F8-4D14-AD08-D047673E78CB";
name = Regular;
paths = (
{
closed = 1;
nodes = (
"932 373 OFFCURVE",
"761 352 OFFCURVE",
"693 345 CURVE",
"702 326 OFFCURVE",
"709 304 OFFCURVE",
"713 278 CURVE SMOOTH",
"715 265 OFFCURVE",
"716 251 OFFCURVE",
"716 236 CURVE SMOOTH",
"716 204 OFFCURVE",
"716 171 OFFCURVE",
"700 136 CURVE",
"695 133 OFFCURVE",
"681 130 OFFCURVE",
"678 130 CURVE SMOOTH",
"673 130 OFFCURVE",
"665 130 OFFCURVE",
"660 132 CURVE",
"649 156 OFFCURVE",
"648 170 OFFCURVE",
"648 191 CURVE SMOOTH",
"648 213 OFFCURVE",
"651 230 OFFCURVE",
"656 254 CURVE",
"625 249 OFFCURVE",
"583 246 OFFCURVE",
"530 246 CURVE SMOOTH",
"468 246 OFFCURVE",
"414 250 OFFCURVE",
"389 254 CURVE",
"394 230 OFFCURVE",
"397 215 OFFCURVE",
"397 191 CURVE SMOOTH",
"397 176 OFFCURVE",
"397 152 OFFCURVE",
"386 133 CURVE",
"384 130 OFFCURVE",
"376 130 OFFCURVE",
"372 130 CURVE SMOOTH",
"365 130 OFFCURVE",
"354 132 OFFCURVE",
"350 136 CURVE",
"334 171 OFFCURVE",
"334 204 OFFCURVE",
"334 236 CURVE SMOOTH",
"334 251 OFFCURVE",
"335 265 OFFCURVE",
"337 278 CURVE SMOOTH",
"341 304 OFFCURVE",
"348 326 OFFCURVE",
"357 345 CURVE",
"289 352 OFFCURVE",
"118 373 OFFCURVE",
"67 397 CURVE",
"56 374 OFFCURVE",
"47 353 OFFCURVE",
"42 327 CURVE SMOOTH",
"33 283 OFFCURVE",
"30 248 OFFCURVE",
"30 196 CURVE SMOOTH",
"30 149 OFFCURVE",
"44 90 OFFCURVE",
"75 34 CURVE",
"106 7 OFFCURVE",
"286 -11 OFFCURVE",
"337 -11 CURVE SMOOTH",
"442 -11 OFFCURVE",
"478 23 OFFCURVE",
"514 55 CURVE",
"539 28 OFFCURVE",
"612 -11 OFFCURVE",
"703 -11 CURVE SMOOTH",
"754 -11 OFFCURVE",
"944 7 OFFCURVE",
"975 34 CURVE",
"1006 90 OFFCURVE",
"1020 149 OFFCURVE",
"1020 196 CURVE SMOOTH",
"1020 248 OFFCURVE",
"1017 283 OFFCURVE",
"1008 327 CURVE SMOOTH",
"1003 353 OFFCURVE",
"994 374 OFFCURVE",
"983 397 CURVE"
);
},
{
closed = 1;
nodes = (
"447 -12 OFFCURVE",
"401 -56 OFFCURVE",
"356 -101 CURVE",
"371 -145 OFFCURVE",
"380 -187 OFFCURVE",
"411 -209 CURVE SMOOTH",
"444 -232 OFFCURVE",
"479 -254 OFFCURVE",
"513 -254 CURVE SMOOTH",
"571 -254 OFFCURVE",
"599 -236 OFFCURVE",
"622 -208 CURVE SMOOTH",
"655 -169 OFFCURVE",
"660 -120 OFFCURVE",
"673 -71 CURVE",
"616 -39 OFFCURVE",
"572 -4 OFFCURVE",
"517 16 CURVE"
);
},
{
closed = 1;
nodes = (
"383 425 LINE",
"397 335 OFFCURVE",
"399 314 OFFCURVE",
"396 268 CURVE",
"445 271 OFFCURVE",
"473 273 OFFCURVE",
"516 273 CURVE SMOOTH",
"558 273 OFFCURVE",
"592 270 OFFCURVE",
"650 264 CURVE",
"697 438 LINE"
);
},
{
closed = 1;
nodes = (
"857 631 OFFCURVE",
"823 609 OFFCURVE",
"718 605 CURVE SMOOTH",
"460 596 LINE",
"13 621 LINE",
"49 586 OFFCURVE",
"0 477 OFFCURVE",
"0 440 CURVE",
"108 448 OFFCURVE",
"243 453 OFFCURVE",
"351 447 CURVE SMOOTH",
"770 422 LINE SMOOTH",
"867 416 OFFCURVE",
"912 429 OFFCURVE",
"968 462 CURVE SMOOTH",
"1016 490 OFFCURVE",
"1050 541 OFFCURVE",
"1050 596 CURVE SMOOTH",
"1050 641 OFFCURVE",
"1038 678 OFFCURVE",
"1004 705 CURVE",
"973 705 OFFCURVE",
"921 708 OFFCURVE",
"900 713 CURVE"
);
}
);
width = 1051;
}
);
unicode = 0CAB;
},
{
glyphname = kn_Ba;
lastChange = "2015-10-08 20:31:00 +0000";
layers = (
{
layerId = "7A0FC40B-77F8-4D14-AD08-D047673E78CB";
name = Regular;
paths = (
{
closed = 1;
nodes = (
"711 550 OFFCURVE",
"705 369 OFFCURVE",
"705 331 CURVE SMOOTH",
"705 289 OFFCURVE",
"700 164 OFFCURVE",
"685 133 CURVE",
"684 131 OFFCURVE",
"667 130 OFFCURVE",
"663 130 CURVE SMOOTH",
"661 130 OFFCURVE",
"644 130 OFFCURVE",
"643 132 CURVE",
"632 156 OFFCURVE",
"631 170 OFFCURVE",
"631 191 CURVE SMOOTH",
"631 213 OFFCURVE",
"634 230 OFFCURVE",
"639 254 CURVE",
"608 249 OFFCURVE",
"566 246 OFFCURVE",
"513 246 CURVE SMOOTH",
"451 246 OFFCURVE",
"397 250 OFFCURVE",
"372 254 CURVE",
"377 230 OFFCURVE",
"380 215 OFFCURVE",
"380 191 CURVE SMOOTH",
"380 176 OFFCURVE",
"380 152 OFFCURVE",
"369 133 CURVE",
"367 130 OFFCURVE",
"357 130 OFFCURVE",
"352 130 CURVE SMOOTH",
"346 130 OFFCURVE",
"336 131 OFFCURVE",
"331 133 CURVE",
"321 141 OFFCURVE",
"312 176 OFFCURVE",
"312 208 CURVE SMOOTH",
"313 239 OFFCURVE",
"325 270 OFFCURVE",
"336 273 CURVE",
"400 283 OFFCURVE",
"448 292 OFFCURVE",
"513 312 CURVE",
"526 348 OFFCURVE",
"538 387 OFFCURVE",
"538 430 CURVE SMOOTH",
"538 477 OFFCURVE",
"535 519 OFFCURVE",
"506 563 CURVE",
"451 595 OFFCURVE",
"356 605 OFFCURVE",
"251 605 CURVE SMOOTH",
"164 605 OFFCURVE",
"96 597 OFFCURVE",
"24 580 CURVE",
"43 531 OFFCURVE",
"48 482 OFFCURVE",
"51 435 CURVE",
"76 442 OFFCURVE",
"110 445 OFFCURVE",
"146 445 CURVE SMOOTH",
"175 445 OFFCURVE",
"207 443 OFFCURVE",
"241 439 CURVE",
"241 424 OFFCURVE",
"245 394 OFFCURVE",
"237 383 CURVE",
"158 350 OFFCURVE",
"86 323 OFFCURVE",
"70 309 CURVE SMOOTH",
"56 297 OFFCURVE",
"32 253 OFFCURVE",
"32 195 CURVE SMOOTH",
"32 150 OFFCURVE",
"36 94 OFFCURVE",
"73 38 CURVE",
"147 0 OFFCURVE",
"197 -11 OFFCURVE",
"293 -11 CURVE SMOOTH",
"398 -11 OFFCURVE",
"461 23 OFFCURVE",
"497 55 CURVE",
"522 28 OFFCURVE",
"585 -11 OFFCURVE",
"676 -11 CURVE SMOOTH",
"774 -11 OFFCURVE",
"881 7 OFFCURVE",
"949 47 CURVE",
"1005 123 OFFCURVE",
"1007 227 OFFCURVE",
"1007 332 CURVE SMOOTH",
"1007 403 OFFCURVE",
"996 550 OFFCURVE",
"989 598 CURVE",
"950 597 OFFCURVE",
"921 596 OFFCURVE",
"881 596 CURVE SMOOTH",
"824 596 OFFCURVE",
"766 598 OFFCURVE",
"705 605 CURVE"
);
}
);
width = 1049;
}
);
unicode = 0CAC;
},
{
glyphname = kn_Bha;
lastChange = "2015-10-08 18:14:18 +0000";
layers = (
{
layerId = "7A0FC40B-77F8-4D14-AD08-D047673E78CB";
name = Regular;
paths = (
{
closed = 1;
nodes = (
"691 550 OFFCURVE",
"685 369 OFFCURVE",
"685 331 CURVE SMOOTH",
"685 289 OFFCURVE",
"680 164 OFFCURVE",
"665 133 CURVE",
"664 131 OFFCURVE",
"652 130 OFFCURVE",
"648 130 CURVE SMOOTH",
"646 130 OFFCURVE",
"634 130 OFFCURVE",
"633 132 CURVE",
"622 156 OFFCURVE",
"621 170 OFFCURVE",
"621 191 CURVE SMOOTH",
"621 213 OFFCURVE",
"624 230 OFFCURVE",
"629 254 CURVE",
"598 249 OFFCURVE",
"556 246 OFFCURVE",
"503 246 CURVE SMOOTH",
"441 246 OFFCURVE",
"387 250 OFFCURVE",
"362 254 CURVE",
"367 230 OFFCURVE",
"370 215 OFFCURVE",
"370 191 CURVE SMOOTH",
"370 176 OFFCURVE",
"370 152 OFFCURVE",
"359 133 CURVE",
"357 130 OFFCURVE",
"352 130 OFFCURVE",
"347 130 CURVE SMOOTH",
"341 130 OFFCURVE",
"336 131 OFFCURVE",
"331 133 CURVE",
"321 141 OFFCURVE",
"312 176 OFFCURVE",
"312 208 CURVE SMOOTH",
"313 239 OFFCURVE",
"325 270 OFFCURVE",
"336 273 CURVE",
"400 283 OFFCURVE",
"448 292 OFFCURVE",
"513 312 CURVE",
"526 348 OFFCURVE",
"538 387 OFFCURVE",
"538 430 CURVE SMOOTH",
"538 477 OFFCURVE",
"535 519 OFFCURVE",
"506 563 CURVE",
"451 595 OFFCURVE",
"356 605 OFFCURVE",
"251 605 CURVE SMOOTH",
"164 605 OFFCURVE",
"96 597 OFFCURVE",
"24 580 CURVE",
"43 531 OFFCURVE",
"48 482 OFFCURVE",
"51 435 CURVE",
"76 442 OFFCURVE",
"110 445 OFFCURVE",
"146 445 CURVE SMOOTH",
"175 445 OFFCURVE",
"207 443 OFFCURVE",
"241 439 CURVE",
"241 424 OFFCURVE",
"245 394 OFFCURVE",
"237 383 CURVE",
"158 350 OFFCURVE",
"86 323 OFFCURVE",
"70 309 CURVE SMOOTH",
"56 297 OFFCURVE",
"32 253 OFFCURVE",
"32 195 CURVE SMOOTH",
"32 150 OFFCURVE",
"36 94 OFFCURVE",
"73 38 CURVE",
"147 0 OFFCURVE",
"197 -11 OFFCURVE",
"293 -11 CURVE SMOOTH",
"398 -11 OFFCURVE",
"451 23 OFFCURVE",
"487 55 CURVE",
"512 28 OFFCURVE",
"575 -11 OFFCURVE",
"666 -11 CURVE SMOOTH",
"764 -11 OFFCURVE",
"861 7 OFFCURVE",
"929 47 CURVE",
"985 123 OFFCURVE",
"987 227 OFFCURVE",
"987 332 CURVE SMOOTH",
"987 403 OFFCURVE",
"937 549 OFFCURVE",
"930 597 CURVE",
"891 596 OFFCURVE",
"901 596 OFFCURVE",
"861 596 CURVE SMOOTH",
"804 596 OFFCURVE",
"746 598 OFFCURVE",
"685 605 CURVE"
);
},
{
closed = 1;
nodes = (
"418 -12 OFFCURVE",
"372 -56 OFFCURVE",
"327 -101 CURVE",
"342 -145 OFFCURVE",
"351 -187 OFFCURVE",
"382 -209 CURVE SMOOTH",
"415 -232 OFFCURVE",
"450 -254 OFFCURVE",
"484 -254 CURVE SMOOTH",
"542 -254 OFFCURVE",
"570 -236 OFFCURVE",
"593 -208 CURVE SMOOTH",
"626 -169 OFFCURVE",
"631 -120 OFFCURVE",
"644 -71 CURVE",
"587 -39 OFFCURVE",
"543 -4 OFFCURVE",
"488 16 CURVE"
);
},
{
closed = 1;
nodes = (
"834 625 OFFCURVE",
"817 590 OFFCURVE",
"658 605 CURVE SMOOTH",
"555 615 LINE",
"566 555 OFFCURVE",
"570 481 OFFCURVE",
"571 421 CURVE",
"670 432 OFFCURVE",
"692 416 OFFCURVE",
"747 416 CURVE",
"843 416 OFFCURVE",
"889 423 OFFCURVE",
"945 456 CURVE SMOOTH",
"993 484 OFFCURVE",
"1027 535 OFFCURVE",
"1027 590 CURVE SMOOTH",
"1027 635 OFFCURVE",
"1015 672 OFFCURVE",
"981 699 CURVE",
"950 699 OFFCURVE",
"898 702 OFFCURVE",
"867 707 CURVE"
);
}
);
width = 1028;
}
);
unicode = 0CAD;
},
{
glyphname = kn_Ma;
lastChange = "2015-09-03 19:02:26 +0000";
layers = (
{
layerId = "7A0FC40B-77F8-4D14-AD08-D047673E78CB";
name = Regular;
paths = (
{
closed = 1;
nodes = (
"729 528 OFFCURVE",
"723 369 OFFCURVE",
"723 331 CURVE SMOOTH",
"723 289 OFFCURVE",
"718 170 OFFCURVE",
"703 139 CURVE",
"700 134 OFFCURVE",
"691 130 OFFCURVE",
"679 130 CURVE SMOOTH",
"674 130 OFFCURVE",
"665 130 OFFCURVE",
"660 132 CURVE",
"649 156 OFFCURVE",
"648 188 OFFCURVE",
"648 209 CURVE SMOOTH",
"648 265 OFFCURVE",
"651 282 OFFCURVE",
"656 306 CURVE",
"625 301 OFFCURVE",
"583 298 OFFCURVE",
"530 298 CURVE SMOOTH",
"468 298 OFFCURVE",
"414 302 OFFCURVE",
"389 306 CURVE",
"394 282 OFFCURVE",
"397 267 OFFCURVE",
"397 209 CURVE SMOOTH",
"397 194 OFFCURVE",
"397 152 OFFCURVE",
"386 133 CURVE",
"384 130 OFFCURVE",
"375 130 OFFCURVE",
"371 130 CURVE SMOOTH",
"364 130 OFFCURVE",
"354 132 OFFCURVE",
"350 136 CURVE",
"334 171 OFFCURVE",
"334 204 OFFCURVE",
"334 236 CURVE SMOOTH",
"334 251 OFFCURVE",
"335 265 OFFCURVE",
"337 278 CURVE SMOOTH",
"341 304 OFFCURVE",
"348 326 OFFCURVE",
"357 345 CURVE",
"289 352 OFFCURVE",
"118 373 OFFCURVE",
"67 397 CURVE",
"56 374 OFFCURVE",
"47 353 OFFCURVE",
"42 327 CURVE SMOOTH",
"33 283 OFFCURVE",
"30 248 OFFCURVE",
"30 196 CURVE SMOOTH",
"30 149 OFFCURVE",
"44 90 OFFCURVE",
"75 34 CURVE",
"106 7 OFFCURVE",
"235 -11 OFFCURVE",
"286 -11 CURVE SMOOTH",
"391 -11 OFFCURVE",
"478 23 OFFCURVE",
"514 55 CURVE",
"539 28 OFFCURVE",
"618 -11 OFFCURVE",
"709 -11 CURVE SMOOTH",
"827 -11 OFFCURVE",
"889 7 OFFCURVE",
"957 47 CURVE",
"1013 123 OFFCURVE",
"1015 227 OFFCURVE",
"1015 332 CURVE SMOOTH",
"1015 403 OFFCURVE",
"980 528 OFFCURVE",
"973 576 CURVE",
"934 575 OFFCURVE",
"929 574 OFFCURVE",
"889 574 CURVE SMOOTH",
"832 574 OFFCURVE",
"784 576 OFFCURVE",
"723 583 CURVE"
);
},
{
closed = 1;
nodes = (
"866 631 OFFCURVE",
"842 608 OFFCURVE",
"737 605 CURVE SMOOTH",
"460 596 LINE",
"13 621 LINE",
"49 586 OFFCURVE",
"0 477 OFFCURVE",
"0 440 CURVE",
"108 448 OFFCURVE",
"243 453 OFFCURVE",
"351 447 CURVE SMOOTH",
"789 422 LINE SMOOTH",
"876 417 OFFCURVE",
"921 429 OFFCURVE",
"977 462 CURVE SMOOTH",
"1025 490 OFFCURVE",
"1059 541 OFFCURVE",
"1059 596 CURVE SMOOTH",
"1059 641 OFFCURVE",
"1047 678 OFFCURVE",
"1013 705 CURVE",
"982 705 OFFCURVE",
"930 708 OFFCURVE",
"909 713 CURVE"
);
},
{
closed = 1;
nodes = (
"1146 550 OFFCURVE",
"1136 369 OFFCURVE",
"1136 331 CURVE SMOOTH",
"1136 289 OFFCURVE",
"1131 170 OFFCURVE",
"1116 139 CURVE",
"1106 130 OFFCURVE",
"1078 126 OFFCURVE",
"1066 126 CURVE SMOOTH",
"1039 126 OFFCURVE",
"1003 139 OFFCURVE",
"976 155 CURVE SMOOTH",
"939 177 OFFCURVE",
"911 206 OFFCURVE",
"900 221 CURVE",
"774 137 LINE",
"807 104 OFFCURVE",
"855 50 OFFCURVE",
"916 26 CURVE SMOOTH",
"973 4 OFFCURVE",
"1010 -12 OFFCURVE",
"1067 -12 CURVE SMOOTH",
"1212 -12 OFFCURVE",
"1312 7 OFFCURVE",
"1380 47 CURVE",
"1436 123 OFFCURVE",
"1438 227 OFFCURVE",
"1438 332 CURVE SMOOTH",
"1438 403 OFFCURVE",
"1427 550 OFFCURVE",
"1420 598 CURVE",
"1381 597 OFFCURVE",
"1352 596 OFFCURVE",
"1312 596 CURVE SMOOTH",
"1255 596 OFFCURVE",
"1197 598 OFFCURVE",
"1136 605 CURVE"
);
}
);
width = 1478;
}
);
unicode = 0CAE;
},
{
glyphname = kn_Ya;
lastChange = "2015-10-11 16:03:50 +0000";
layers = (
{
layerId = "7A0FC40B-77F8-4D14-AD08-D047673E78CB";
name = Regular;
paths = (
{
closed = 1;
nodes = (
"270 605 OFFCURVE",
"157 585 OFFCURVE",
"89 545 CURVE",
"50 491 OFFCURVE",
"30 398 OFFCURVE",
"30 301 CURVE SMOOTH",
"30 200 OFFCURVE",
"48 97 OFFCURVE",
"104 29 CURVE",
"171 0 OFFCURVE",
"297 -12 OFFCURVE",
"454 -12 CURVE SMOOTH",
"595 -12 OFFCURVE",
"731 11 OFFCURVE",
"798 57 CURVE",
"830 128 OFFCURVE",
"845 220 OFFCURVE",
"845 308 CURVE SMOOTH",
"845 389 OFFCURVE",
"831 477 OFFCURVE",
"799 542 CURVE",
"732 585 OFFCURVE",
"576 605 OFFCURVE",
"444 605 CURVE SMOOTH"
);
},
{
closed = 1;
nodes = (
"452 446 OFFCURVE",
"517 444 OFFCURVE",
"524 438 CURVE",
"534 419 OFFCURVE",
"539 350 OFFCURVE",
"539 297 CURVE SMOOTH",
"539 208 OFFCURVE",
"524 129 OFFCURVE",
"493 129 CURVE SMOOTH",
"454 129 OFFCURVE",
"354 133 OFFCURVE",
"347 141 CURVE",
"340 153 OFFCURVE",
"334 229 OFFCURVE",
"334 274 CURVE SMOOTH",
"334 315 OFFCURVE",
"338 398 OFFCURVE",
"353 432 CURVE",
"363 441 OFFCURVE",
"416 446 OFFCURVE",
"440 446 CURVE SMOOTH"
);
},
{
closed = 1;
nodes = (
"1211 597 OFFCURVE",
"1182 596 OFFCURVE",
"1142 596 CURVE SMOOTH",
"1085 596 OFFCURVE",
"1027 572 OFFCURVE",
"966 579 CURVE",
"972 524 OFFCURVE",
"966 370 OFFCURVE",
"966 332 CURVE SMOOTH",
"966 290 OFFCURVE",
"961 171 OFFCURVE",
"946 140 CURVE",
"936 131 OFFCURVE",
"908 127 OFFCURVE",
"896 127 CURVE SMOOTH",
"869 127 OFFCURVE",
"833 140 OFFCURVE",
"806 156 CURVE SMOOTH",
"769 178 OFFCURVE",
"741 207 OFFCURVE",
"730 222 CURVE",
"604 138 LINE",
"637 105 OFFCURVE",
"685 51 OFFCURVE",
"746 27 CURVE SMOOTH",
"803 5 OFFCURVE",
"840 -11 OFFCURVE",
"897 -11 CURVE SMOOTH",
"1042 -11 OFFCURVE",
"1142 28 OFFCURVE",
"1210 68 CURVE",
"1266 144 OFFCURVE",
"1268 228 OFFCURVE",
"1268 333 CURVE SMOOTH",
"1268 404 OFFCURVE",
"1257 550 OFFCURVE",
"1250 598 CURVE"
);
},
{
closed = 1;
nodes = (
"1403 550 OFFCURVE",
"1397 370 OFFCURVE",
"1397 332 CURVE SMOOTH",
"1397 290 OFFCURVE",
"1392 171 OFFCURVE",
"1377 140 CURVE",
"1367 131 OFFCURVE",
"1339 127 OFFCURVE",
"1327 127 CURVE SMOOTH",
"1300 127 OFFCURVE",
"1264 140 OFFCURVE",
"1237 156 CURVE SMOOTH",
"1200 178 OFFCURVE",
"1172 207 OFFCURVE",
"1161 222 CURVE",
"1035 138 LINE",
"1068 105 OFFCURVE",
"1116 70 OFFCURVE",
"1177 46 CURVE SMOOTH",
"1234 24 OFFCURVE",
"1271 -11 OFFCURVE",
"1328 -11 CURVE SMOOTH",
"1473 -11 OFFCURVE",
"1573 8 OFFCURVE",
"1641 48 CURVE",
"1697 124 OFFCURVE",
"1699 228 OFFCURVE",
"1699 333 CURVE SMOOTH",
"1699 404 OFFCURVE",
"1688 550 OFFCURVE",
"1681 598 CURVE",
"1642 597 OFFCURVE",
"1613 596 OFFCURVE",
"1573 596 CURVE SMOOTH",
"1516 596 OFFCURVE",
"1458 598 OFFCURVE",
"1397 605 CURVE"
);
},
{
closed = 1;
nodes = (
"1150 625 OFFCURVE",
"1132 593 OFFCURVE",
"994 605 CURVE SMOOTH",
"876 615 LINE",
"887 555 OFFCURVE",
"893 494 OFFCURVE",
"892 434 CURVE",
"1001 424 LINE",
"1083 416 LINE SMOOTH",
"1160 408 OFFCURVE",
"1205 423 OFFCURVE",
"1261 456 CURVE SMOOTH",
"1309 484 OFFCURVE",
"1343 535 OFFCURVE",
"1343 590 CURVE SMOOTH",
"1343 635 OFFCURVE",
"1331 672 OFFCURVE",
"1297 699 CURVE",
"1266 699 OFFCURVE",
"1214 702 OFFCURVE",
"1183 707 CURVE"
);
}
);
width = 1741;
}
);
unicode = 0CAF;
},
{
glyphname = kn_Ra;
lastChange = "2015-10-08 17:23:20 +0000";
layers = (
{
layerId = "7A0FC40B-77F8-4D14-AD08-D047673E78CB";
name = Regular;
paths = (
{
closed = 1;
nodes = (
"184 581 OFFCURVE",
"155 566 OFFCURVE",
"120 545 CURVE",
"80 491 OFFCURVE",
"40 374 OFFCURVE",
"40 301 CURVE SMOOTH",
"40 200 OFFCURVE",
"58 97 OFFCURVE",
"114 29 CURVE",
"181 0 OFFCURVE",
"357 -12 OFFCURVE",
"494 -12 CURVE SMOOTH",
"614 -12 OFFCURVE",
"739 11 OFFCURVE",
"807 57 CURVE",
"839 128 OFFCURVE",
"854 199 OFFCURVE",
"854 287 CURVE SMOOTH",
"854 368 OFFCURVE",
"834 477 OFFCURVE",
"789 542 CURVE",
"755 564 OFFCURVE",
"720 580 OFFCURVE",
"658 590 CURVE",
"248 591 LINE"
);
},
{
closed = 1;
nodes = (
"462 446 OFFCURVE",
"527 444 OFFCURVE",
"534 438 CURVE",
"544 419 OFFCURVE",
"549 350 OFFCURVE",
"549 297 CURVE SMOOTH",
"549 208 OFFCURVE",
"534 129 OFFCURVE",
"503 129 CURVE SMOOTH",
"464 129 OFFCURVE",
"364 133 OFFCURVE",
"357 141 CURVE",
"350 153 OFFCURVE",
"344 229 OFFCURVE",
"344 274 CURVE SMOOTH",
"344 315 OFFCURVE",
"348 398 OFFCURVE",
"363 432 CURVE",
"373 441 OFFCURVE",
"426 446 OFFCURVE",
"450 446 CURVE SMOOTH"
);
},
{
closed = 1;
nodes = (
"691 625 OFFCURVE",
"674 609 OFFCURVE",
"515 605 CURVE SMOOTH",
"10 591 LINE",
"21 529 OFFCURVE",
"11 467 OFFCURVE",
"0 405 CURVE",
"330 422 LINE",
"440 485 LINE",
"581 424 LINE",
"614 416 LINE SMOOTH",
"709 393 OFFCURVE",
"756 423 OFFCURVE",
"812 456 CURVE SMOOTH",
"860 484 OFFCURVE",
"894 535 OFFCURVE",
"894 590 CURVE SMOOTH",
"894 635 OFFCURVE",
"882 672 OFFCURVE",
"848 699 CURVE",
"817 699 OFFCURVE",
"755 702 OFFCURVE",
"724 707 CURVE"
);
}
);
width = 895;
}
);
unicode = 0CB0;
},
{
glyphname = kn_Rra;
lastChange = "2015-09-03 19:02:26 +0000";
layers = (
{
layerId = "7A0FC40B-77F8-4D14-AD08-D047673E78CB";
name = Regular;
paths = (
{
closed = 1;
nodes = (
"824 605 OFFCURVE",
"745 589 OFFCURVE",
"698 561 CURVE",
"684 525 OFFCURVE",
"680 494 OFFCURVE",
"680 450 CURVE SMOOTH",
"680 406 OFFCURVE",
"690 332 OFFCURVE",
"707 289 CURVE",
"752 278 OFFCURVE",
"775 277 OFFCURVE",
"840 277 CURVE SMOOTH",
"870 277 OFFCURVE",
"910 277 OFFCURVE",
"937 280 CURVE",
"932 263 OFFCURVE",
"928 159 OFFCURVE",
"924 145 CURVE",
"914 135 OFFCURVE",
"881 130 OFFCURVE",
"867 130 CURVE SMOOTH",
"852 130 OFFCURVE",
"807 132 OFFCURVE",
"795 135 CURVE",
"784 154 OFFCURVE",
"784 208 OFFCURVE",
"784 208 CURVE",
"784 249 OFFCURVE",
"784 249 OFFCURVE",
"787 272 CURVE",
"762 268 OFFCURVE",
"703 264 OFFCURVE",
"641 264 CURVE SMOOTH",
"579 264 OFFCURVE",
"520 268 OFFCURVE",
"495 272 CURVE",
"498 249 OFFCURVE",
"498 249 OFFCURVE",
"498 208 CURVE",
"498 208 OFFCURVE",
"498 154 OFFCURVE",
"487 135 CURVE",
"475 132 OFFCURVE",
"430 130 OFFCURVE",
"415 130 CURVE SMOOTH",
"401 130 OFFCURVE",
"368 135 OFFCURVE",
"358 145 CURVE",
"354 159 OFFCURVE",
"350 263 OFFCURVE",
"345 280 CURVE",
"372 277 OFFCURVE",
"412 277 OFFCURVE",
"442 277 CURVE SMOOTH",
"507 277 OFFCURVE",
"530 278 OFFCURVE",
"575 289 CURVE",
"592 332 OFFCURVE",
"602 406 OFFCURVE",
"602 450 CURVE SMOOTH",
"602 494 OFFCURVE",
"598 525 OFFCURVE",
"584 561 CURVE",
"537 589 OFFCURVE",
"468 605 OFFCURVE",
"356 605 CURVE SMOOTH",
"239 605 OFFCURVE",
"187 591 OFFCURVE",
"95 558 CURVE",
"44 478 OFFCURVE",
"30 404 OFFCURVE",
"30 320 CURVE SMOOTH",
"30 235 OFFCURVE",
"53 94 OFFCURVE",
"83 34 CURVE",
"114 7 OFFCURVE",
"235 -11 OFFCURVE",
"355 -11 CURVE SMOOTH",
"485 -11 OFFCURVE",
"587 28 OFFCURVE",
"641 55 CURVE",
"695 28 OFFCURVE",
"823 -11 OFFCURVE",
"927 -11 CURVE SMOOTH",
"1057 -11 OFFCURVE",
"1168 7 OFFCURVE",
"1199 34 CURVE",
"1229 94 OFFCURVE",
"1252 235 OFFCURVE",
"1252 320 CURVE SMOOTH",
"1252 404 OFFCURVE",
"1238 478 OFFCURVE",
"1187 558 CURVE",
"1095 591 OFFCURVE",
"1053 605 OFFCURVE",
"936 605 CURVE SMOOTH"
);
},
{
closed = 1;
nodes = (
"413 458 OFFCURVE",
"418 409 OFFCURVE",
"419 400 CURVE",
"385 395 OFFCURVE",
"364 395 OFFCURVE",
"337 395 CURVE",
"339 413 OFFCURVE",
"342 447 OFFCURVE",
"348 455 CURVE",
"362 462 OFFCURVE",
"387 470 OFFCURVE",
"410 470 CURVE"
);
},
{
closed = 1;
nodes = (
"729 438 OFFCURVE",
"685 435 OFFCURVE",
"643 435 CURVE SMOOTH",
"600 435 OFFCURVE",
"562 437 OFFCURVE",
"513 440 CURVE",
"442 277 LINE",
"840 277 LINE",
"787 444 LINE"
);
},
{
closed = 1;
nodes = (
"895 470 OFFCURVE",
"920 462 OFFCURVE",
"934 455 CURVE",
"940 447 OFFCURVE",
"943 413 OFFCURVE",
"945 395 CURVE",
"918 395 OFFCURVE",
"897 395 OFFCURVE",
"863 400 CURVE",
"864 409 OFFCURVE",
"869 458 OFFCURVE",
"872 470 CURVE"
);
}
);
width = 1283;
}
);
unicode = 0CB1;
},
{
glyphname = kn_La;
lastChange = "2015-09-03 19:02:26 +0000";
layers = (
{
layerId = "7A0FC40B-77F8-4D14-AD08-D047673E78CB";
name = Regular;
paths = (
{
closed = 1;
nodes = (
"676 538 OFFCURVE",
"675 363 OFFCURVE",
"675 318 CURVE SMOOTH",
"675 265 OFFCURVE",
"670 175 OFFCURVE",
"661 155 CURVE",
"640 142 OFFCURVE",
"553 130 OFFCURVE",
"509 130 CURVE SMOOTH",
"450 130 OFFCURVE",
"409 137 OFFCURVE",
"358 147 CURVE",
"354 161 OFFCURVE",
"350 243 OFFCURVE",
"345 260 CURVE",
"372 257 OFFCURVE",
"412 257 OFFCURVE",
"442 257 CURVE SMOOTH",
"507 257 OFFCURVE",
"560 258 OFFCURVE",
"605 269 CURVE",
"622 312 OFFCURVE",
"632 378 OFFCURVE",
"632 440 CURVE SMOOTH",
"632 484 OFFCURVE",
"628 525 OFFCURVE",
"614 561 CURVE",
"567 589 OFFCURVE",
"468 605 OFFCURVE",
"356 605 CURVE SMOOTH",
"239 605 OFFCURVE",
"187 591 OFFCURVE",
"95 558 CURVE",
"44 478 OFFCURVE",
"30 404 OFFCURVE",
"30 320 CURVE SMOOTH",
"30 235 OFFCURVE",
"46 110 OFFCURVE",
"76 50 CURVE",
"193 0 OFFCURVE",
"368 -11 OFFCURVE",
"522 -11 CURVE SMOOTH",
"606 -11 OFFCURVE",
"804 9 OFFCURVE",
"934 51 CURVE",
"966 117 OFFCURVE",
"980 204 OFFCURVE",
"980 285 CURVE SMOOTH",
"980 335 OFFCURVE",
"976 362 OFFCURVE",
"971 411 CURVE SMOOTH",
"964 461 OFFCURVE",
"960 543 OFFCURVE",
"957 596 CURVE",
"907 595 OFFCURVE",
"856 594 OFFCURVE",
"806 594 CURVE SMOOTH",
"740 594 OFFCURVE",
"731 597 OFFCURVE",
"661 605 CURVE"
);
},
{
closed = 1;
nodes = (
"413 448 OFFCURVE",
"415 435 OFFCURVE",
"416 426 CURVE SMOOTH",
"417 415 OFFCURVE",
"418 405 OFFCURVE",
"419 396 CURVE",
"385 391 OFFCURVE",
"364 391 OFFCURVE",
"337 391 CURVE",
"339 409 OFFCURVE",
"342 427 OFFCURVE",
"348 445 CURVE",
"362 452 OFFCURVE",
"387 460 OFFCURVE",
"410 460 CURVE"
);
}
);
width = 1020;
}
);
unicode = 0CB2;
},
{
glyphname = kn_Lla;
lastChange = "2015-10-13 16:17:08 +0000";
layers = (
{
layerId = "7A0FC40B-77F8-4D14-AD08-D047673E78CB";
name = Regular;
paths = (
{
closed = 1;
nodes = (
"824 589 OFFCURVE",
"683 586 OFFCURVE",
"601 586 CURVE",
"629 528 OFFCURVE",
"642 479 OFFCURVE",
"642 437 CURVE SMOOTH",
"642 388 OFFCURVE",
"635 343 OFFCURVE",
"626 325 CURVE",
"616 315 OFFCURVE",
"516 299 OFFCURVE",
"467 299 CURVE SMOOTH",
"424 299 OFFCURVE",
"373 300 OFFCURVE",
"338 307 CURVE",
"334 311 OFFCURVE",
"328 335 OFFCURVE",
"325 340 CURVE",
"352 337 OFFCURVE",
"392 337 OFFCURVE",
"422 337 CURVE SMOOTH",
"487 337 OFFCURVE",
"490 338 OFFCURVE",
"535 349 CURVE",
"552 392 OFFCURVE",
"562 406 OFFCURVE",
"562 450 CURVE SMOOTH",
"562 494 OFFCURVE",
"558 525 OFFCURVE",
"544 561 CURVE",
"497 589 OFFCURVE",
"448 605 OFFCURVE",
"336 605 CURVE SMOOTH",
"219 605 OFFCURVE",
"177 591 OFFCURVE",
"85 558 CURVE",
"42 519 OFFCURVE",
"20 450 OFFCURVE",
"20 379 CURVE SMOOTH",
"20 314 OFFCURVE",
"36 258 OFFCURVE",
"66 230 CURVE",
"165 184 OFFCURVE",
"247 178 OFFCURVE",
"457 178 CURVE SMOOTH",
"620 178 OFFCURVE",
"836 198 OFFCURVE",
"881 237 CURVE",
"912 293 OFFCURVE",
"926 332 OFFCURVE",
"926 402 CURVE SMOOTH",
"926 478 OFFCURVE",
"915 530 OFFCURVE",
"879 605 CURVE"
);
},
{
closed = 1;
nodes = (
"714 302 OFFCURVE",
"555 254 OFFCURVE",
"493 254 CURVE",
"415 254 OFFCURVE",
"266 293 OFFCURVE",
"178 253 CURVE SMOOTH",
"166 219 OFFCURVE",
"159 187 OFFCURVE",
"159 155 CURVE",
"159 112 OFFCURVE",
"171 72 OFFCURVE",
"199 29 CURVE",
"260 -4 OFFCURVE",
"382 -11 OFFCURVE",
"436 -11 CURVE SMOOTH",
"488 -11 OFFCURVE",
"644 -11 OFFCURVE",
"710 21 CURVE",
"770 74 OFFCURVE",
"792 140 OFFCURVE",
"792 214 CURVE",
"792 234 OFFCURVE",
"790 254 OFFCURVE",
"787 276 CURVE SMOOTH"
);
},
{
closed = 1;
nodes = (
"492 202 OFFCURVE",
"529 195 OFFCURVE",
"543 189 CURVE SMOOTH",
"553 179 OFFCURVE",
"557 169 OFFCURVE",
"557 159 CURVE",
"557 147 OFFCURVE",
"560 135 OFFCURVE",
"548 127 CURVE",
"526 112 OFFCURVE",
"498 106 OFFCURVE",
"459 106 CURVE SMOOTH",
"433 106 OFFCURVE",
"421 112 OFFCURVE",
"407 120 CURVE",
"407 142 OFFCURVE",
"407 169 OFFCURVE",
"419 186 CURVE",
"435 191 OFFCURVE",
"449 202 OFFCURVE",
"476 202 CURVE"
);
},
{
closed = 1;
nodes = (
"383 479 OFFCURVE",
"388 450 OFFCURVE",
"389 441 CURVE",
"355 436 OFFCURVE",
"314 436 OFFCURVE",
"287 436 CURVE",
"289 445 OFFCURVE",
"295 473 OFFCURVE",
"298 476 CURVE",
"312 483 OFFCURVE",
"357 491 OFFCURVE",
"380 491 CURVE"
);
},
{
closed = 1;
nodes = (
"769 625 OFFCURVE",
"734 605 OFFCURVE",
"625 605 CURVE",
"558 605 LINE",
"569 545 OFFCURVE",
"585 480 OFFCURVE",
"584 420 CURVE",
"645 416 LINE",
"682 416 LINE SMOOTH",
"779 416 OFFCURVE",
"824 423 OFFCURVE",
"880 456 CURVE SMOOTH",
"928 484 OFFCURVE",
"962 535 OFFCURVE",
"962 590 CURVE SMOOTH",
"962 635 OFFCURVE",
"950 672 OFFCURVE",
"916 699 CURVE",
"885 699 OFFCURVE",
"833 702 OFFCURVE",
"802 707 CURVE"
);
}
);
width = 962;
}
);
unicode = 0CB3;
},
{
glyphname = kn_Va;
lastChange = "2015-10-11 16:03:58 +0000";
layers = (
{
layerId = "7A0FC40B-77F8-4D14-AD08-D047673E78CB";
name = Regular;
paths = (
{
closed = 1;
nodes = (
"729 528 OFFCURVE",
"723 369 OFFCURVE",
"723 331 CURVE SMOOTH",
"723 289 OFFCURVE",
"718 170 OFFCURVE",
"703 139 CURVE",
"700 134 OFFCURVE",
"691 130 OFFCURVE",
"679 130 CURVE SMOOTH",
"674 130 OFFCURVE",
"665 130 OFFCURVE",
"660 132 CURVE",
"649 156 OFFCURVE",
"648 188 OFFCURVE",
"648 209 CURVE SMOOTH",
"648 265 OFFCURVE",
"651 282 OFFCURVE",
"656 306 CURVE",
"625 301 OFFCURVE",
"583 298 OFFCURVE",
"530 298 CURVE SMOOTH",
"468 298 OFFCURVE",
"414 302 OFFCURVE",
"389 306 CURVE",
"394 282 OFFCURVE",
"397 267 OFFCURVE",
"397 209 CURVE SMOOTH",
"397 194 OFFCURVE",
"397 152 OFFCURVE",
"386 133 CURVE",
"384 130 OFFCURVE",
"375 130 OFFCURVE",
"371 130 CURVE SMOOTH",
"364 130 OFFCURVE",
"354 132 OFFCURVE",
"350 136 CURVE",
"334 171 OFFCURVE",
"334 204 OFFCURVE",
"334 236 CURVE SMOOTH",
"334 251 OFFCURVE",
"335 265 OFFCURVE",
"337 278 CURVE SMOOTH",
"341 304 OFFCURVE",
"348 326 OFFCURVE",
"357 345 CURVE",
"289 352 OFFCURVE",
"118 373 OFFCURVE",
"67 397 CURVE",
"56 374 OFFCURVE",
"47 353 OFFCURVE",
"42 327 CURVE SMOOTH",
"33 283 OFFCURVE",
"30 248 OFFCURVE",
"30 196 CURVE SMOOTH",
"30 149 OFFCURVE",
"44 90 OFFCURVE",
"75 34 CURVE",
"106 7 OFFCURVE",
"235 -11 OFFCURVE",
"286 -11 CURVE SMOOTH",
"391 -11 OFFCURVE",
"478 23 OFFCURVE",
"514 55 CURVE",
"539 28 OFFCURVE",
"618 -11 OFFCURVE",
"709 -11 CURVE SMOOTH",
"827 -11 OFFCURVE",
"899 7 OFFCURVE",
"967 47 CURVE",
"1023 123 OFFCURVE",
"1025 227 OFFCURVE",
"1025 332 CURVE SMOOTH",
"1025 403 OFFCURVE",
"990 528 OFFCURVE",
"983 576 CURVE",
"944 575 OFFCURVE",
"939 574 OFFCURVE",
"899 574 CURVE SMOOTH",
"842 574 OFFCURVE",
"784 576 OFFCURVE",
"723 583 CURVE"
);
},
{
closed = 1;
nodes = (
"876 631 OFFCURVE",
"842 608 OFFCURVE",
"737 605 CURVE SMOOTH",
"460 596 LINE",
"13 621 LINE",
"49 586 OFFCURVE",
"0 477 OFFCURVE",
"0 440 CURVE",
"108 448 OFFCURVE",
"243 453 OFFCURVE",
"351 447 CURVE SMOOTH",
"789 422 LINE SMOOTH",
"886 416 OFFCURVE",
"931 429 OFFCURVE",
"987 462 CURVE SMOOTH",
"1035 490 OFFCURVE",
"1069 541 OFFCURVE",
"1069 596 CURVE SMOOTH",
"1069 641 OFFCURVE",
"1057 678 OFFCURVE",
"1023 705 CURVE",
"992 705 OFFCURVE",
"940 708 OFFCURVE",
"919 713 CURVE"
);
}
);
width = 1073;
}
);
unicode = 0CB5;
},
{
glyphname = kn_Sha;
lastChange = "2015-09-03 19:02:26 +0000";
layers = (
{
layerId = "7A0FC40B-77F8-4D14-AD08-D047673E78CB";
name = Regular;
paths = (
{
closed = 1;
nodes = (
"716 596 OFFCURVE",
"658 579 OFFCURVE",
"597 586 CURVE",
"603 531 OFFCURVE",
"597 369 OFFCURVE",
"597 331 CURVE SMOOTH",
"597 289 OFFCURVE",
"592 180 OFFCURVE",
"577 149 CURVE",
"567 140 OFFCURVE",
"538 130 OFFCURVE",
"457 130 CURVE SMOOTH",
"371 130 OFFCURVE",
"341 143 OFFCURVE",
"329 146 CURVE",
"319 154 OFFCURVE",
"310 164 OFFCURVE",
"310 180 CURVE SMOOTH",
"310 211 OFFCURVE",
"323 221 OFFCURVE",
"334 224 CURVE",
"398 235 OFFCURVE",
"476 243 OFFCURVE",
"541 263 CURVE",
"554 299 OFFCURVE",
"566 338 OFFCURVE",
"566 381 CURVE SMOOTH",
"566 428 OFFCURVE",
"563 470 OFFCURVE",
"534 514 CURVE",
"336 428 LINE",
"336 413 OFFCURVE",
"340 335 OFFCURVE",
"332 324 CURVE",
"281 303 OFFCURVE",
"92 258 OFFCURVE",
"68 258 CURVE",
"54 246 OFFCURVE",
"30 223 OFFCURVE",
"30 165 CURVE SMOOTH",
"30 120 OFFCURVE",
"34 94 OFFCURVE",
"71 38 CURVE",
"166 3 OFFCURVE",
"344 -11 OFFCURVE",
"440 -11 CURVE SMOOTH",
"538 -11 OFFCURVE",
"773 7 OFFCURVE",
"841 47 CURVE",
"897 123 OFFCURVE",
"899 227 OFFCURVE",
"899 332 CURVE SMOOTH",
"899 403 OFFCURVE",
"853 538 OFFCURVE",
"846 586 CURVE",
"807 585 OFFCURVE",
"813 596 OFFCURVE",
"773 596 CURVE SMOOTH"
);
},
{
closed = 1;
nodes = (
"49 441 LINE",
"49 403 OFFCURVE",
"40 336 OFFCURVE",
"68 276 CURVE",
"119 300 OFFCURVE",
"242 321 OFFCURVE",
"310 328 CURVE",
"296 349 OFFCURVE",
"295 382 OFFCURVE",
"295 401 CURVE SMOOTH",
"295 433 OFFCURVE",
"295 457 OFFCURVE",
"311 492 CURVE",
"321 502 OFFCURVE",
"334 507 OFFCURVE",
"348 507 CURVE",
"233 547 LINE"
);
},
{
closed = 1;
nodes = (
"736 625 OFFCURVE",
"719 605 OFFCURVE",
"560 605 CURVE SMOOTH",
"26 606 LINE",
"21 540 OFFCURVE",
"13 474 OFFCURVE",
"0 408 CURVE",
"346 422 LINE",
"649 416 LINE SMOOTH",
"746 414 OFFCURVE",
"791 423 OFFCURVE",
"847 456 CURVE SMOOTH",
"895 484 OFFCURVE",
"929 535 OFFCURVE",
"929 590 CURVE SMOOTH",
"929 635 OFFCURVE",
"917 672 OFFCURVE",
"883 699 CURVE",
"852 699 OFFCURVE",
"800 702 OFFCURVE",
"769 707 CURVE"
);
}
);
width = 929;
}
);
unicode = 0CB6;
},
{
glyphname = kn_Ssa;
lastChange = "2015-10-12 20:29:22 +0000";
layers = (
{
layerId = "7A0FC40B-77F8-4D14-AD08-D047673E78CB";
name = Regular;
paths = (
{
closed = 1;
nodes = (
"992 373 OFFCURVE",
"821 352 OFFCURVE",
"753 345 CURVE",
"762 326 OFFCURVE",
"769 304 OFFCURVE",
"773 278 CURVE SMOOTH",
"775 265 OFFCURVE",
"776 251 OFFCURVE",
"776 236 CURVE SMOOTH",
"776 204 OFFCURVE",
"776 171 OFFCURVE",
"760 136 CURVE",
"755 133 OFFCURVE",
"716 130 OFFCURVE",
"713 130 CURVE SMOOTH",
"708 130 OFFCURVE",
"665 130 OFFCURVE",
"660 132 CURVE",
"649 156 OFFCURVE",
"648 170 OFFCURVE",
"648 191 CURVE SMOOTH",
"648 213 OFFCURVE",
"651 230 OFFCURVE",
"656 254 CURVE",
"625 249 OFFCURVE",
"583 246 OFFCURVE",
"530 246 CURVE SMOOTH",
"468 246 OFFCURVE",
"414 250 OFFCURVE",
"389 254 CURVE",
"394 230 OFFCURVE",
"397 215 OFFCURVE",
"397 191 CURVE SMOOTH",
"397 176 OFFCURVE",
"397 152 OFFCURVE",
"386 133 CURVE",
"384 130 OFFCURVE",
"376 130 OFFCURVE",
"372 130 CURVE SMOOTH",
"365 130 OFFCURVE",
"354 132 OFFCURVE",
"350 136 CURVE",
"334 171 OFFCURVE",
"334 204 OFFCURVE",
"334 236 CURVE SMOOTH",
"334 251 OFFCURVE",
"335 265 OFFCURVE",
"337 278 CURVE SMOOTH",
"341 304 OFFCURVE",
"348 326 OFFCURVE",
"367 345 CURVE",
"289 352 OFFCURVE",
"118 373 OFFCURVE",
"67 397 CURVE",
"56 374 OFFCURVE",
"47 353 OFFCURVE",
"42 327 CURVE SMOOTH",
"33 283 OFFCURVE",
"30 248 OFFCURVE",
"30 196 CURVE SMOOTH",
"30 149 OFFCURVE",
"44 90 OFFCURVE",
"75 34 CURVE",
"106 7 OFFCURVE",
"286 -11 OFFCURVE",
"337 -11 CURVE SMOOTH",
"442 -11 OFFCURVE",
"478 23 OFFCURVE",
"514 55 CURVE",
"539 28 OFFCURVE",
"672 -11 OFFCURVE",
"763 -11 CURVE SMOOTH",
"814 -11 OFFCURVE",
"1004 7 OFFCURVE",
"1035 34 CURVE",
"1066 90 OFFCURVE",
"1080 149 OFFCURVE",
"1080 196 CURVE SMOOTH",
"1080 248 OFFCURVE",
"1077 283 OFFCURVE",
"1068 327 CURVE SMOOTH",
"1063 353 OFFCURVE",
"1054 374 OFFCURVE",
"1043 397 CURVE"
);
},
{
closed = 1;
nodes = (
"383 425 LINE",
"397 335 OFFCURVE",
"399 314 OFFCURVE",
"396 268 CURVE",
"445 271 OFFCURVE",
"473 273 OFFCURVE",
"516 273 CURVE SMOOTH",
"558 273 OFFCURVE",
"592 270 OFFCURVE",
"650 264 CURVE",
"697 438 LINE"
);
},
{
closed = 1;
nodes = (
"667 251 LINE",
"656 170 LINE",
"807 -98 LINE",
"880 -85 OFFCURVE",
"925 -83 OFFCURVE",
"1008 -83 CURVE",
"785 204 LINE",
"756 282 LINE"
);
},
{
closed = 1;
nodes = (
"917 631 OFFCURVE",
"883 608 OFFCURVE",
"778 605 CURVE SMOOTH",
"450 596 LINE",
"13 621 LINE",
"49 586 OFFCURVE",
"0 477 OFFCURVE",
"0 440 CURVE",
"108 448 OFFCURVE",
"243 453 OFFCURVE",
"351 447 CURVE SMOOTH",
"830 422 LINE SMOOTH",
"927 417 OFFCURVE",
"972 429 OFFCURVE",
"1028 462 CURVE SMOOTH",
"1076 490 OFFCURVE",
"1110 541 OFFCURVE",
"1110 596 CURVE SMOOTH",
"1110 641 OFFCURVE",
"1098 678 OFFCURVE",
"1064 705 CURVE",
"1033 705 OFFCURVE",
"981 708 OFFCURVE",
"960 713 CURVE"
);
}
);
width = 1112;
}
);
unicode = 0CB7;
},
{
glyphname = kn_Sa;
lastChange = "2015-09-03 19:02:26 +0000";
layers = (
{
layerId = "7A0FC40B-77F8-4D14-AD08-D047673E78CB";
name = Regular;
paths = (
{
closed = 1;
nodes = (
"916 392 OFFCURVE",
"745 371 OFFCURVE",
"677 364 CURVE",
"686 345 OFFCURVE",
"693 305 OFFCURVE",
"697 279 CURVE SMOOTH",
"699 266 OFFCURVE",
"700 252 OFFCURVE",
"700 237 CURVE SMOOTH",
"700 205 OFFCURVE",
"700 181 OFFCURVE",
"684 146 CURVE",
"674 136 OFFCURVE",
"661 127 OFFCURVE",
"645 127 CURVE SMOOTH",
"620 127 OFFCURVE",
"614 135 OFFCURVE",
"605 140 CURVE",
"568 181 OFFCURVE",
"527 228 OFFCURVE",
"483 261 CURVE",
"447 283 OFFCURVE",
"351 304 OFFCURVE",
"288 304 CURVE SMOOTH",
"243 304 OFFCURVE",
"206 296 OFFCURVE",
"174 290 CURVE SMOOTH",
"120 281 OFFCURVE",
"85 271 OFFCURVE",
"65 258 CURVE",
"34 231 OFFCURVE",
"16 163 OFFCURVE",
"16 116 CURVE SMOOTH",
"16 90 OFFCURVE",
"20 16 OFFCURVE",
"43 -10 CURVE",
"104 10 OFFCURVE",
"253 16 OFFCURVE",
"333 6 CURVE",
"326 27 OFFCURVE",
"320 56 OFFCURVE",
"320 84 CURVE SMOOTH",
"320 104 OFFCURVE",
"324 128 OFFCURVE",
"333 141 CURVE",
"340 152 OFFCURVE",
"347 156 OFFCURVE",
"357 156 CURVE SMOOTH",
"364 156 OFFCURVE",
"375 146 OFFCURVE",
"384 135 CURVE",
"416 96 OFFCURVE",
"438 75 OFFCURVE",
"479 36 CURVE",
"487 30 LINE",
"533 6 OFFCURVE",
"627 -10 OFFCURVE",
"713 -10 CURVE",
"755 -10 OFFCURVE",
"805 -1 OFFCURVE",
"849 6 CURVE SMOOTH",
"899 14 OFFCURVE",
"942 21 OFFCURVE",
"959 35 CURVE",
"990 91 OFFCURVE",
"1004 150 OFFCURVE",
"1004 197 CURVE SMOOTH",
"1004 249 OFFCURVE",
"999 314 OFFCURVE",
"992 346 CURVE SMOOTH",
"988 364 OFFCURVE",
"978 393 OFFCURVE",
"967 416 CURVE"
);
},
{
closed = 1;
nodes = (
"347 425 LINE",
"361 335 OFFCURVE",
"363 314 OFFCURVE",
"360 268 CURVE",
"409 271 OFFCURVE",
"447 273 OFFCURVE",
"490 273 CURVE SMOOTH",
"532 273 OFFCURVE",
"576 270 OFFCURVE",
"634 264 CURVE",
"681 438 LINE"
);
},
{
closed = 1;
nodes = (
"841 625 OFFCURVE",
"824 603 OFFCURVE",
"665 605 CURVE SMOOTH",
"12 615 LINE",
"23 555 OFFCURVE",
"15 494 OFFCURVE",
"0 434 CURVE",
"108 442 OFFCURVE",
"201 464 OFFCURVE",
"337 452 CURVE SMOOTH",
"754 416 LINE SMOOTH",
"831 409 OFFCURVE",
"896 416 OFFCURVE",
"952 449 CURVE SMOOTH",
"1000 477 OFFCURVE",
"1034 535 OFFCURVE",
"1034 590 CURVE SMOOTH",
"1034 635 OFFCURVE",
"1022 672 OFFCURVE",
"988 699 CURVE",
"957 699 OFFCURVE",
"905 702 OFFCURVE",
"874 707 CURVE"
);
}
);
width = 1034;
}
);
unicode = 0CB8;
},
{
glyphname = kn_Ha;
lastChange = "2015-09-03 19:02:26 +0000";
layers = (
{
layerId = "7A0FC40B-77F8-4D14-AD08-D047673E78CB";
name = Regular;
paths = (
{
closed = 1;
nodes = (
"718 418 OFFCURVE",
"628 393 OFFCURVE",
"566 342 CURVE",
"505 393 OFFCURVE",
"415 418 OFFCURVE",
"307 418 CURVE SMOOTH",
"197 418 OFFCURVE",
"123 403 OFFCURVE",
"73 374 CURVE",
"44 335 OFFCURVE",
"30 269 OFFCURVE",
"30 197 CURVE SMOOTH",
"30 122 OFFCURVE",
"42 69 OFFCURVE",
"84 19 CURVE",
"133 -2 OFFCURVE",
"202 -11 OFFCURVE",
"299 -11 CURVE SMOOTH",
"405 -11 OFFCURVE",
"493 -1 OFFCURVE",
"553 48 CURVE",
"616 -2 OFFCURVE",
"708 -11 OFFCURVE",
"819 -11 CURVE SMOOTH",
"934 -11 OFFCURVE",
"1011 6 OFFCURVE",
"1061 40 CURVE",
"1085 93 OFFCURVE",
"1095 137 OFFCURVE",
"1095 202 CURVE SMOOTH",
"1095 263 OFFCURVE",
"1086 324 OFFCURVE",
"1062 372 CURVE",
"1012 403 OFFCURVE",
"936 418 OFFCURVE",
"827 418 CURVE SMOOTH"
);
},
{
closed = 1;
nodes = (
"387 270 OFFCURVE",
"410 262 OFFCURVE",
"413 252 CURVE",
"417 241 OFFCURVE",
"420 224 OFFCURVE",
"420 188 CURVE SMOOTH",
"420 156 OFFCURVE",
"399 126 OFFCURVE",
"374 126 CURVE SMOOTH",
"365 126 OFFCURVE",
"300 128 OFFCURVE",
"281 132 CURVE",
"278 142 OFFCURVE",
"265 172 OFFCURVE",
"265 196 CURVE SMOOTH",
"265 218 OFFCURVE",
"267 236 OFFCURVE",
"275 255 CURVE",
"280 259 OFFCURVE",
"301 270 OFFCURVE",
"346 270 CURVE SMOOTH"
);
},
{
closed = 1;
nodes = (
"278 466 LINE",
"341 421 OFFCURVE",
"364 358 OFFCURVE",
"410 312 CURVE",
"480 316 OFFCURVE",
"541 313 OFFCURVE",
"620 305 CURVE",
"496 509 LINE"
);
},
{
closed = 1;
nodes = (
"810 270 OFFCURVE",
"845 259 OFFCURVE",
"850 255 CURVE",
"858 236 OFFCURVE",
"860 218 OFFCURVE",
"860 196 CURVE SMOOTH",
"860 172 OFFCURVE",
"847 142 OFFCURVE",
"844 132 CURVE",
"825 128 OFFCURVE",
"760 126 OFFCURVE",
"751 126 CURVE SMOOTH",
"726 126 OFFCURVE",
"705 156 OFFCURVE",
"705 188 CURVE SMOOTH",
"705 224 OFFCURVE",
"708 241 OFFCURVE",
"712 252 CURVE",
"715 262 OFFCURVE",
"738 270 OFFCURVE",
"779 270 CURVE SMOOTH"
);
},
{
closed = 1;
nodes = (
"932 625 OFFCURVE",
"915 609 OFFCURVE",
"756 605 CURVE SMOOTH",
"544 600 LINE",
"23 606 LINE",
"16 546 OFFCURVE",
"13 494 OFFCURVE",
"0 434 CURVE",
"108 442 OFFCURVE",
"273 460 OFFCURVE",
"458 452 CURVE SMOOTH",
"845 436 LINE SMOOTH",
"942 432 OFFCURVE",
"997 433 OFFCURVE",
"1053 466 CURVE SMOOTH",
"1101 494 OFFCURVE",
"1125 535 OFFCURVE",
"1125 590 CURVE SMOOTH",
"1125 635 OFFCURVE",
"1113 672 OFFCURVE",
"1079 699 CURVE",
"1048 699 OFFCURVE",
"996 702 OFFCURVE",
"965 707 CURVE"
);
}
);
width = 1126;
}
);
unicode = 0CB9;
},
{
glyphname = kn_Avargha;
lastChange = "2015-09-03 19:02:26 +0000";
layers = (
{
layerId = "7A0FC40B-77F8-4D14-AD08-D047673E78CB";
name = Regular;
paths = (
{
closed = 1;
nodes = (
"533 604 OFFCURVE",
"466 602 OFFCURVE",
"366 602 CURVE SMOOTH",
"246 602 OFFCURVE",
"189 602 OFFCURVE",
"140 583 CURVE",
"101 549 OFFCURVE",
"79 509 OFFCURVE",
"79 463 CURVE SMOOTH",
"79 412 OFFCURVE",
"90 370 OFFCURVE",
"117 349 CURVE",
"181 310 OFFCURVE",
"260 280 OFFCURVE",
"310 259 CURVE",
"319 239 OFFCURVE",
"322 208 OFFCURVE",
"322 190 CURVE SMOOTH",
"322 172 OFFCURVE",
"318 157 OFFCURVE",
"307 148 CURVE",
"281 139 OFFCURVE",
"195 133 OFFCURVE",
"150 133 CURVE SMOOTH",
"113 133 OFFCURVE",
"64 139 OFFCURVE",
"40 143 CURVE",
"29 5 LINE",
"69 -6 OFFCURVE",
"171 -10 OFFCURVE",
"230 -10 CURVE SMOOTH",
"367 -10 OFFCURVE",
"522 7 OFFCURVE",
"586 40 CURVE",
"619 81 OFFCURVE",
"635 139 OFFCURVE",
"635 216 CURVE SMOOTH",
"635 274 OFFCURVE",
"621 314 OFFCURVE",
"602 340 CURVE",
"552 368 OFFCURVE",
"452 402 OFFCURVE",
"375 424 CURVE",
"364 434 OFFCURVE",
"359 436 OFFCURVE",
"359 448 CURVE SMOOTH",
"359 462 OFFCURVE",
"383 464 OFFCURVE",
"479 456 CURVE SMOOTH",
"617 445 LINE",
"616 505 OFFCURVE",
"622 547 OFFCURVE",
"633 607 CURVE"
);
},
{
closed = 1;
nodes = (
"29 5 LINE",
"204 88 LINE",
"236 240 LINE",
"10 288 LINE"
);
}
);
width = 665;
}
);
unicode = 0CBD;
},
{
glyphname = kn_Fa;
lastChange = "2015-09-03 19:02:26 +0000";
layers = (
{
layerId = "7A0FC40B-77F8-4D14-AD08-D047673E78CB";
name = Regular;
paths = (
{
closed = 1;
nodes = (
"824 605 OFFCURVE",
"715 589 OFFCURVE",
"668 561 CURVE",
"654 525 OFFCURVE",
"650 494 OFFCURVE",
"650 450 CURVE SMOOTH",
"650 406 OFFCURVE",
"660 332 OFFCURVE",
"677 289 CURVE",
"722 278 OFFCURVE",
"775 277 OFFCURVE",
"840 277 CURVE SMOOTH",
"870 277 OFFCURVE",
"910 277 OFFCURVE",
"937 280 CURVE",
"932 263 OFFCURVE",
"928 159 OFFCURVE",
"924 145 CURVE",
"914 135 OFFCURVE",
"881 130 OFFCURVE",
"867 130 CURVE SMOOTH",
"852 130 OFFCURVE",
"807 132 OFFCURVE",
"795 135 CURVE",
"784 154 OFFCURVE",
"784 208 OFFCURVE",
"784 208 CURVE",
"784 249 OFFCURVE",
"784 249 OFFCURVE",
"787 272 CURVE",
"762 268 OFFCURVE",
"703 264 OFFCURVE",
"641 264 CURVE SMOOTH",
"579 264 OFFCURVE",
"520 268 OFFCURVE",
"495 272 CURVE",
"498 249 OFFCURVE",
"498 249 OFFCURVE",
"498 208 CURVE",
"498 208 OFFCURVE",
"498 154 OFFCURVE",
"487 135 CURVE",
"475 132 OFFCURVE",
"430 130 OFFCURVE",
"415 130 CURVE SMOOTH",
"401 130 OFFCURVE",
"368 135 OFFCURVE",
"358 145 CURVE",
"354 159 OFFCURVE",
"350 263 OFFCURVE",
"345 280 CURVE",
"372 277 OFFCURVE",
"412 277 OFFCURVE",
"442 277 CURVE SMOOTH",
"507 277 OFFCURVE",
"560 278 OFFCURVE",
"605 289 CURVE",
"622 332 OFFCURVE",
"632 406 OFFCURVE",
"632 450 CURVE SMOOTH",
"632 494 OFFCURVE",
"628 525 OFFCURVE",
"614 561 CURVE",
"567 589 OFFCURVE",
"468 605 OFFCURVE",
"356 605 CURVE SMOOTH",
"239 605 OFFCURVE",
"187 591 OFFCURVE",
"95 558 CURVE",
"44 478 OFFCURVE",
"30 404 OFFCURVE",
"30 320 CURVE SMOOTH",
"30 235 OFFCURVE",
"53 94 OFFCURVE",
"83 34 CURVE",
"114 7 OFFCURVE",
"235 -11 OFFCURVE",
"355 -11 CURVE SMOOTH",
"485 -11 OFFCURVE",
"587 28 OFFCURVE",
"641 55 CURVE",
"695 28 OFFCURVE",
"823 -11 OFFCURVE",
"927 -11 CURVE SMOOTH",
"1057 -11 OFFCURVE",
"1168 7 OFFCURVE",
"1199 34 CURVE",
"1229 94 OFFCURVE",
"1252 235 OFFCURVE",
"1252 320 CURVE SMOOTH",
"1252 404 OFFCURVE",
"1238 478 OFFCURVE",
"1187 558 CURVE",
"1095 591 OFFCURVE",
"1053 605 OFFCURVE",
"936 605 CURVE SMOOTH"
);
},
{
closed = 1;
nodes = (
"413 458 OFFCURVE",
"418 409 OFFCURVE",
"419 400 CURVE",
"385 395 OFFCURVE",
"364 395 OFFCURVE",
"337 395 CURVE",
"339 413 OFFCURVE",
"342 447 OFFCURVE",
"348 455 CURVE",
"362 462 OFFCURVE",
"387 470 OFFCURVE",
"410 470 CURVE"
);
},
{
closed = 1;
nodes = (
"895 470 OFFCURVE",
"920 462 OFFCURVE",
"934 455 CURVE",
"940 447 OFFCURVE",
"943 413 OFFCURVE",
"945 395 CURVE",
"918 395 OFFCURVE",
"897 395 OFFCURVE",
"863 400 CURVE",
"864 409 OFFCURVE",
"869 458 OFFCURVE",
"872 470 CURVE"
);
}
);
width = 1282;
}
);
unicode = 0CDE;
},
{
glyphname = kn_VocRr;
lastChange = "2015-09-03 19:02:26 +0000";
layers = (
{
layerId = "7A0FC40B-77F8-4D14-AD08-D047673E78CB";
name = Regular;
paths = (
{
closed = 1;
nodes = (
"1620 605 OFFCURVE",
"1419 586 OFFCURVE",
"1352 544 CURVE",
"1320 478 OFFCURVE",
"1306 391 OFFCURVE",
"1306 310 CURVE SMOOTH",
"1306 268 OFFCURVE",
"1304 171 OFFCURVE",
"1289 140 CURVE",
"1279 131 OFFCURVE",
"1253 127 OFFCURVE",
"1241 127 CURVE SMOOTH",
"1214 127 OFFCURVE",
"1176 140 OFFCURVE",
"1149 156 CURVE SMOOTH",
"1112 178 OFFCURVE",
"1084 207 OFFCURVE",
"1073 222 CURVE",
"947 138 LINE",
"980 105 OFFCURVE",
"1028 51 OFFCURVE",
"1089 27 CURVE SMOOTH",
"1146 5 OFFCURVE",
"1183 -11 OFFCURVE",
"1240 -11 CURVE SMOOTH",
"1385 -11 OFFCURVE",
"1485 9 OFFCURVE",
"1553 49 CURVE",
"1610 143 OFFCURVE",
"1611 239 OFFCURVE",
"1611 302 CURVE SMOOTH",
"1611 355 OFFCURVE",
"1616 420 OFFCURVE",
"1625 440 CURVE",
"1646 453 OFFCURVE",
"1684 464 OFFCURVE",
"1768 464 CURVE SMOOTH",
"1827 464 OFFCURVE",
"1877 458 OFFCURVE",
"1928 448 CURVE",
"1932 434 OFFCURVE",
"1936 352 OFFCURVE",
"1941 335 CURVE",
"1914 338 OFFCURVE",
"1874 338 OFFCURVE",
"1844 338 CURVE SMOOTH",
"1779 338 OFFCURVE",
"1716 337 OFFCURVE",
"1671 326 CURVE",
"1654 283 OFFCURVE",
"1644 217 OFFCURVE",
"1644 155 CURVE SMOOTH",
"1644 111 OFFCURVE",
"1648 70 OFFCURVE",
"1662 34 CURVE",
"1709 6 OFFCURVE",
"1818 -10 OFFCURVE",
"1930 -10 CURVE SMOOTH",
"2047 -10 OFFCURVE",
"2099 4 OFFCURVE",
"2191 37 CURVE",
"2242 117 OFFCURVE",
"2256 191 OFFCURVE",
"2256 275 CURVE SMOOTH",
"2256 360 OFFCURVE",
"2240 485 OFFCURVE",
"2210 545 CURVE",
"1999 602 OFFCURVE",
"1888 605 OFFCURVE",
"1744 605 CURVE SMOOTH"
);
},
{
closed = 1;
nodes = (
"234 191 OFFCURVE",
"241 190 OFFCURVE",
"250 187 CURVE",
"250 165 OFFCURVE",
"249 165 OFFCURVE",
"243 142 CURVE",
"240 141 OFFCURVE",
"235 140 OFFCURVE",
"233 140 CURVE SMOOTH",
"230 139 OFFCURVE",
"226 139 OFFCURVE",
"221 139 CURVE SMOOTH",
"215 139 OFFCURVE",
"208 140 OFFCURVE",
"203 142 CURVE",
"200 147 OFFCURVE",
"200 153 OFFCURVE",
"200 161 CURVE SMOOTH",
"200 182 OFFCURVE",
"201 174 OFFCURVE",
"204 188 CURVE",
"211 190 OFFCURVE",
"219 191 OFFCURVE",
"225 191 CURVE SMOOTH"
);
},
{
closed = 1;
nodes = (
"226 455 OFFCURVE",
"230 455 OFFCURVE",
"233 454 CURVE SMOOTH",
"235 454 OFFCURVE",
"240 453 OFFCURVE",
"243 452 CURVE",
"249 429 OFFCURVE",
"250 429 OFFCURVE",
"250 407 CURVE",
"241 404 OFFCURVE",
"234 403 OFFCURVE",
"225 403 CURVE SMOOTH",
"219 403 OFFCURVE",
"211 404 OFFCURVE",
"204 406 CURVE",
"201 420 OFFCURVE",
"200 412 OFFCURVE",
"200 433 CURVE SMOOTH",
"200 441 OFFCURVE",
"200 447 OFFCURVE",
"203 452 CURVE",
"208 454 OFFCURVE",
"215 455 OFFCURVE",
"221 455 CURVE SMOOTH"
);
},
{
closed = 1;
nodes = (
"304 605 OFFCURVE",
"156 593 OFFCURVE",
"72 564 CURVE",
"40 516 OFFCURVE",
"30 472 OFFCURVE",
"30 419 CURVE SMOOTH",
"30 371 OFFCURVE",
"38 366 OFFCURVE",
"62 318 CURVE",
"107 298 OFFCURVE",
"172 303 OFFCURVE",
"232 303 CURVE SMOOTH",
"277 303 OFFCURVE",
"356 305 OFFCURVE",
"419 315 CURVE",
"413 383 OFFCURVE",
"404 410 OFFCURVE",
"413 478 CURVE",
"429 478 OFFCURVE",
"441 475 OFFCURVE",
"450 473 CURVE",
"460 431 OFFCURVE",
"464 384 OFFCURVE",
"464 299 CURVE SMOOTH",
"464 214 OFFCURVE",
"460 163 OFFCURVE",
"450 121 CURVE",
"441 119 OFFCURVE",
"429 116 OFFCURVE",
"413 116 CURVE",
"404 184 OFFCURVE",
"413 211 OFFCURVE",
"419 279 CURVE",
"356 289 OFFCURVE",
"277 291 OFFCURVE",
"232 291 CURVE SMOOTH",
"172 291 OFFCURVE",
"107 296 OFFCURVE",
"62 276 CURVE",
"38 228 OFFCURVE",
"30 223 OFFCURVE",
"30 175 CURVE SMOOTH",
"30 122 OFFCURVE",
"40 78 OFFCURVE",
"72 30 CURVE",
"156 1 OFFCURVE",
"304 -11 OFFCURVE",
"416 -11 CURVE SMOOTH",
"572 -11 OFFCURVE",
"652 8 OFFCURVE",
"723 41 CURVE",
"749 100 OFFCURVE",
"760 204 OFFCURVE",
"760 297 CURVE SMOOTH",
"760 390 OFFCURVE",
"749 494 OFFCURVE",
"723 553 CURVE",
"652 586 OFFCURVE",
"572 605 OFFCURVE",
"416 605 CURVE SMOOTH"
);
},
{
closed = 1;
nodes = (
"901 472 LINE",
"900 414 OFFCURVE",
"898 354 OFFCURVE",
"898 332 CURVE SMOOTH",
"898 290 OFFCURVE",
"893 171 OFFCURVE",
"878 140 CURVE",
"868 131 OFFCURVE",
"840 127 OFFCURVE",
"828 127 CURVE SMOOTH",
"801 127 OFFCURVE",
"765 140 OFFCURVE",
"738 156 CURVE SMOOTH",
"701 178 OFFCURVE",
"673 207 OFFCURVE",
"662 222 CURVE",
"536 138 LINE",
"569 105 OFFCURVE",
"617 51 OFFCURVE",
"678 27 CURVE SMOOTH",
"729 7 OFFCURVE",
"793 -11 OFFCURVE",
"851 -11 CURVE SMOOTH",
"976 -11 OFFCURVE",
"1064 18 OFFCURVE",
"1122 78 CURVE",
"1191 172 OFFCURVE",
"1180 228 OFFCURVE",
"1180 333 CURVE SMOOTH",
"1180 372 OFFCURVE",
"1177 428 OFFCURVE",
"1172 478 CURVE"
);
},
{
closed = 1;
nodes = (
"1076 625 OFFCURVE",
"1058 593 OFFCURVE",
"920 605 CURVE SMOOTH",
"802 615 LINE",
"813 555 OFFCURVE",
"819 494 OFFCURVE",
"818 434 CURVE",
"927 424 LINE",
"989 416 LINE SMOOTH",
"1086 404 OFFCURVE",
"1131 423 OFFCURVE",
"1187 456 CURVE SMOOTH",
"1235 484 OFFCURVE",
"1269 535 OFFCURVE",
"1269 590 CURVE SMOOTH",
"1269 635 OFFCURVE",
"1257 672 OFFCURVE",
"1223 699 CURVE",
"1192 699 OFFCURVE",
"1140 702 OFFCURVE",
"1109 707 CURVE"
);
},
{
closed = 1;
nodes = (
"1947 186 OFFCURVE",
"1944 168 OFFCURVE",
"1938 150 CURVE",
"1924 143 OFFCURVE",
"1899 135 OFFCURVE",
"1876 135 CURVE",
"1873 147 OFFCURVE",
"1871 160 OFFCURVE",
"1870 169 CURVE SMOOTH",
"1869 180 OFFCURVE",
"1868 190 OFFCURVE",
"1867 199 CURVE",
"1901 204 OFFCURVE",
"1922 204 OFFCURVE",
"1949 204 CURVE"
);
}
);
width = 2286;
}
);
unicode = 0CE0;
},
{
glyphname = kn_VocLl;
lastChange = "2015-09-03 19:02:26 +0000";
layers = (
{
layerId = "7A0FC40B-77F8-4D14-AD08-D047673E78CB";
name = Regular;
paths = (
{
closed = 1;
nodes = (
"1001 551 OFFCURVE",
"995 370 OFFCURVE",
"995 332 CURVE SMOOTH",
"995 290 OFFCURVE",
"990 175 OFFCURVE",
"975 144 CURVE",
"965 135 OFFCURVE",
"928 131 OFFCURVE",
"875 131 CURVE SMOOTH",
"846 131 OFFCURVE",
"804 133 OFFCURVE",
"770 137 CURVE",
"770 152 OFFCURVE",
"766 182 OFFCURVE",
"774 193 CURVE",
"853 226 OFFCURVE",
"925 275 OFFCURVE",
"941 286 CURVE SMOOTH",
"955 296 OFFCURVE",
"979 342 OFFCURVE",
"979 400 CURVE SMOOTH",
"979 445 OFFCURVE",
"975 501 OFFCURVE",
"938 557 CURVE",
"843 592 OFFCURVE",
"801 605 OFFCURVE",
"705 605 CURVE",
"620 605 OFFCURVE",
"529 556 OFFCURVE",
"504 529 CURVE",
"477 561 OFFCURVE",
"410 605 OFFCURVE",
"307 605 CURVE SMOOTH",
"200 605 OFFCURVE",
"96 587 OFFCURVE",
"65 560 CURVE",
"44 536 OFFCURVE",
"20 485 OFFCURVE",
"20 438 CURVE SMOOTH",
"20 388 OFFCURVE",
"26 315 OFFCURVE",
"48 285 CURVE",
"99 299 OFFCURVE",
"270 313 OFFCURVE",
"338 313 CURVE",
"327 332 OFFCURVE",
"324 374 OFFCURVE",
"324 398 CURVE SMOOTH",
"324 436 OFFCURVE",
"332 464 OFFCURVE",
"341 464 CURVE SMOOTH",
"349 464 OFFCURVE",
"352 462 OFFCURVE",
"356 459 CURVE",
"367 440 OFFCURVE",
"367 398 OFFCURVE",
"367 383 CURVE SMOOTH",
"367 359 OFFCURVE",
"364 344 OFFCURVE",
"359 320 CURVE",
"384 324 OFFCURVE",
"448 328 OFFCURVE",
"510 328 CURVE SMOOTH",
"563 328 OFFCURVE",
"615 325 OFFCURVE",
"646 320 CURVE",
"641 344 OFFCURVE",
"638 361 OFFCURVE",
"638 383 CURVE SMOOTH",
"638 404 OFFCURVE",
"640 435 OFFCURVE",
"662 459 CURVE",
"694 434 OFFCURVE",
"678 329 OFFCURVE",
"675 322 CURVE",
"635 300 OFFCURVE",
"579 288 OFFCURVE",
"498 272 CURVE",
"485 236 OFFCURVE",
"473 211 OFFCURVE",
"473 168 CURVE SMOOTH",
"473 121 OFFCURVE",
"476 79 OFFCURVE",
"505 35 CURVE",
"533 19 OFFCURVE",
"603 10 OFFCURVE",
"681 0 CURVE SMOOTH",
"758 -10 OFFCURVE",
"815 -11 OFFCURVE",
"878 -11 CURVE SMOOTH",
"950 -11 OFFCURVE",
"1007 -12 OFFCURVE",
"1075 -3 CURVE SMOOTH",
"1145 7 OFFCURVE",
"1205 28 OFFCURVE",
"1239 48 CURVE",
"1295 124 OFFCURVE",
"1297 228 OFFCURVE",
"1297 333 CURVE SMOOTH",
"1297 404 OFFCURVE",
"1286 551 OFFCURVE",
"1279 599 CURVE",
"1240 598 OFFCURVE",
"1211 597 OFFCURVE",
"1171 597 CURVE SMOOTH",
"1114 597 OFFCURVE",
"1056 599 OFFCURVE",
"995 606 CURVE"
);
},
{
closed = 1;
nodes = (
"1073 416 LINE",
"1538 446 LINE",
"1566 446 OFFCURVE",
"1603 446 OFFCURVE",
"1634 438 CURVE",
"1647 417 OFFCURVE",
"1655 353 OFFCURVE",
"1655 324 CURVE",
"1616 334 OFFCURVE",
"1564 341 OFFCURVE",
"1512 341 CURVE SMOOTH",
"1452 341 OFFCURVE",
"1412 336 OFFCURVE",
"1367 316 CURVE",
"1343 268 OFFCURVE",
"1325 223 OFFCURVE",
"1325 175 CURVE SMOOTH",
"1325 122 OFFCURVE",
"1335 78 OFFCURVE",
"1367 30 CURVE",
"1452 1 OFFCURVE",
"1533 -11 OFFCURVE",
"1640 -11 CURVE SMOOTH",
"1756 -11 OFFCURVE",
"1842 8 OFFCURVE",
"1913 41 CURVE",
"1939 100 OFFCURVE",
"1950 188 OFFCURVE",
"1950 281 CURVE SMOOTH",
"1950 334 OFFCURVE",
"1939 483 OFFCURVE",
"1891 549 CURVE",
"1846 574 OFFCURVE",
"1796 587 OFFCURVE",
"1743 595 CURVE SMOOTH",
"1690 603 OFFCURVE",
"1593 605 OFFCURVE",
"1538 605 CURVE",
"1015 606 LINE"
);
},
{
closed = 1;
nodes = (
"1644 227 OFFCURVE",
"1656 225 OFFCURVE",
"1673 221 CURVE",
"1672 180 OFFCURVE",
"1670 163 OFFCURVE",
"1660 121 CURVE",
"1654 120 OFFCURVE",
"1646 118 OFFCURVE",
"1641 118 CURVE SMOOTH",
"1637 117 OFFCURVE",
"1629 116 OFFCURVE",
"1620 116 CURVE SMOOTH",
"1610 116 OFFCURVE",
"1597 118 OFFCURVE",
"1588 122 CURVE",
"1583 130 OFFCURVE",
"1582 142 OFFCURVE",
"1582 155 CURVE SMOOTH",
"1582 194 OFFCURVE",
"1585 197 OFFCURVE",
"1590 222 CURVE",
"1602 226 OFFCURVE",
"1617 227 OFFCURVE",
"1628 227 CURVE SMOOTH"
);
}
);
width = 1980;
}
);
unicode = 0CE1;
},
{
glyphname = kn_Jihamuliya;
lastChange = "2015-09-03 19:02:26 +0000";
layers = (
{
layerId = "7A0FC40B-77F8-4D14-AD08-D047673E78CB";
name = Regular;
paths = (
{
closed = 1;
nodes = (
"10 562 LINE",
"66 454 OFFCURVE",
"120 378 OFFCURVE",
"158 271 CURVE",
"131 212 OFFCURVE",
"42 97 OFFCURVE",
"0 15 CURVE",
"7 -21 LINE",
"233 -10 OFFCURVE",
"449 -10 OFFCURVE",
"685 -11 CURVE",
"681 42 LINE",
"620 144 OFFCURVE",
"572 192 OFFCURVE",
"534 292 CURVE",
"558 336 OFFCURVE",
"645 470 OFFCURVE",
"688 559 CURVE",
"685 605 LINE",
"454 605 OFFCURVE",
"248 600 OFFCURVE",
"7 616 CURVE"
);
},
{
closed = 1;
nodes = (
"406 107 LINE",
"272 101 LINE",
"329 227 LINE",
"357 229 LINE"
);
},
{
closed = 1;
nodes = (
"363 359 LINE",
"335 357 LINE",
"286 477 LINE",
"420 483 LINE"
);
}
);
width = 688;
}
);
unicode = 0CF1;
},
{
glyphname = kn_Upadhmaniya;
lastChange = "2015-10-13 16:02:15 +0000";
layers = (
{
layerId = "7A0FC40B-77F8-4D14-AD08-D047673E78CB";
name = Regular;
paths = (
{
closed = 1;
nodes = (
"698 417 OFFCURVE",
"609 397 OFFCURVE",
"521 357 CURVE SMOOTH",
"509 323 OFFCURVE",
"502 291 OFFCURVE",
"502 259 CURVE",
"502 216 OFFCURVE",
"514 176 OFFCURVE",
"542 133 CURVE SMOOTH",
"603 107 OFFCURVE",
"665 93 OFFCURVE",
"719 93 CURVE",
"771 93 OFFCURVE",
"837 105 OFFCURVE",
"903 125 CURVE SMOOTH",
"963 178 OFFCURVE",
"985 244 OFFCURVE",
"985 318 CURVE",
"985 338 OFFCURVE",
"983 358 OFFCURVE",
"980 380 CURVE SMOOTH",
"907 406 OFFCURVE",
"838 417 OFFCURVE",
"776 417 CURVE"
);
},
{
closed = 1;
nodes = (
"206 417 OFFCURVE",
"117 397 OFFCURVE",
"29 357 CURVE SMOOTH",
"17 323 OFFCURVE",
"10 291 OFFCURVE",
"10 259 CURVE",
"10 216 OFFCURVE",
"22 176 OFFCURVE",
"50 133 CURVE SMOOTH",
"111 107 OFFCURVE",
"173 93 OFFCURVE",
"227 93 CURVE",
"279 93 OFFCURVE",
"345 105 OFFCURVE",
"411 125 CURVE SMOOTH",
"471 178 OFFCURVE",
"493 244 OFFCURVE",
"493 318 CURVE",
"493 338 OFFCURVE",
"491 358 OFFCURVE",
"488 380 CURVE SMOOTH",
"415 406 OFFCURVE",
"346 414 OFFCURVE",
"284 417 CURVE"
);
},
{
closed = 1;
nodes = (
"280 290 OFFCURVE",
"300 285 OFFCURVE",
"310 280 CURVE SMOOTH",
"318 273 OFFCURVE",
"321 265 OFFCURVE",
"321 258 CURVE",
"321 249 OFFCURVE",
"319 244 OFFCURVE",
"315 234 CURVE SMOOTH",
"291 224 OFFCURVE",
"268 218 OFFCURVE",
"256 218 CURVE",
"236 218 OFFCURVE",
"228 218 OFFCURVE",
"209 229 CURVE SMOOTH",
"209 245 OFFCURVE",
"209 265 OFFCURVE",
"219 278 CURVE",
"230 281 OFFCURVE",
"248 290 OFFCURVE",
"268 290 CURVE"
);
},
{
closed = 1;
nodes = (
"770 290 OFFCURVE",
"790 285 OFFCURVE",
"800 280 CURVE SMOOTH",
"808 273 OFFCURVE",
"811 265 OFFCURVE",
"811 258 CURVE",
"811 249 OFFCURVE",
"809 244 OFFCURVE",
"805 234 CURVE SMOOTH",
"781 224 OFFCURVE",
"758 218 OFFCURVE",
"746 218 CURVE",
"726 218 OFFCURVE",
"718 218 OFFCURVE",
"699 229 CURVE SMOOTH",
"699 245 OFFCURVE",
"699 265 OFFCURVE",
"709 278 CURVE",
"720 281 OFFCURVE",
"738 290 OFFCURVE",
"758 290 CURVE"
);
}
);
width = 995;
}
);
unicode = 0CF2;
},
{
glyphname = kn_Ta.ottu.AiLengthMark;
lastChange = "2015-10-17 19:06:37 +0000";
layers = (
{
layerId = "7A0FC40B-77F8-4D14-AD08-D047673E78CB";
name = Regular;
paths = (
{
closed = 1;
nodes = (
"299 35 OFFCURVE",
"311 84 OFFCURVE",
"311 116 CURVE SMOOTH",
"311 164 OFFCURVE",
"293 213 OFFCURVE",
"244 249 CURVE",
"160 275 OFFCURVE",
"133 279 OFFCURVE",
"-7 273 CURVE",
"-7 149 LINE",
"0 152 OFFCURVE",
"7 153 OFFCURVE",
"17 153 CURVE SMOOTH",
"44 153 OFFCURVE",
"65 140 OFFCURVE",
"65 114 CURVE SMOOTH",
"65 85 OFFCURVE",
"42 83 OFFCURVE",
"18 83 CURVE SMOOTH",
"0 83 OFFCURVE",
"-20 89 OFFCURVE",
"-27 94 CURVE",
"-27 -62 LINE",
"-13 -57 OFFCURVE",
"11 -59 OFFCURVE",
"25 -59 CURVE SMOOTH",
"83 -59 OFFCURVE",
"110 -133 OFFCURVE",
"110 -174 CURVE SMOOTH",
"110 -218 OFFCURVE",
"95 -296 OFFCURVE",
"30 -296 CURVE SMOOTH",
"19 -296 OFFCURVE",
"2 -298 OFFCURVE",
"-10 -296 CURVE",
"-15 -281 OFFCURVE",
"-16 -240 OFFCURVE",
"-16 -226 CURVE",
"18 -222 OFFCURVE",
"110 -222 OFFCURVE",
"137 -222 CURVE",
"129 -101 LINE",
"102 -98 OFFCURVE",
"31 -98 OFFCURVE",
"1 -98 CURVE SMOOTH",
"-64 -98 OFFCURVE",
"-97 -99 OFFCURVE",
"-142 -109 CURVE",
"-160 -153 OFFCURVE",
"-169 -179 OFFCURVE",
"-169 -244 CURVE SMOOTH",
"-168 -280 LINE",
"-318 -280 LINE",
"-460 -275 LINE",
"-460 -416 LINE",
"-399 -417 OFFCURVE",
"-403 -418 OFFCURVE",
"-275 -419 CURVE SMOOTH",
"-188 -419 OFFCURVE",
"56 -424 OFFCURVE",
"72 -424 CURVE SMOOTH",
"183 -424 OFFCURVE",
"209 -402 OFFCURVE",
"285 -374 CURVE",
"325 -331 OFFCURVE",
"356 -255 OFFCURVE",
"356 -185 CURVE SMOOTH",
"356 -85 OFFCURVE",
"324 -31 OFFCURVE",
"273 9 CURVE"
);
}
);
width = 356;
}
);
},
{
glyphname = kn_Ma.ottu.AiLengthMark;
lastChange = "2015-10-17 19:06:41 +0000";
layers = (
{
layerId = "7A0FC40B-77F8-4D14-AD08-D047673E78CB";
name = Regular;
paths = (
{
closed = 1;
nodes = (
"-161 -106 OFFCURVE",
"-244 -97 OFFCURVE",
"-327 -97 CURVE SMOOTH",
"-443 -97 OFFCURVE",
"-484 -110 OFFCURVE",
"-534 -133 CURVE",
"-552 -175 OFFCURVE",
"-560 -214 OFFCURVE",
"-560 -248 CURVE SMOOTH",
"-560 -285 OFFCURVE",
"-552 -359 OFFCURVE",
"-518 -405 CURVE",
"-487 -423 OFFCURVE",
"-452 -432 OFFCURVE",
"-415 -437 CURVE SMOOTH",
"-377 -443 OFFCURVE",
"-309 -444 OFFCURVE",
"-271 -444 CURVE SMOOTH",
"98 -444 LINE",
"91 -400 OFFCURVE",
"-80 -368 OFFCURVE",
"-73 -324 CURVE",
"-271 -333 LINE",
"-291 -333 OFFCURVE",
"-316 -333 OFFCURVE",
"-338 -328 CURVE",
"-347 -313 OFFCURVE",
"-352 -286 OFFCURVE",
"-352 -256 CURVE SMOOTH",
"-352 -229 OFFCURVE",
"-349 -219 OFFCURVE",
"-342 -190 CURVE",
"-336 -188 OFFCURVE",
"-328 -186 OFFCURVE",
"-316 -186 CURVE",
"-310 -226 OFFCURVE",
"-316 -253 OFFCURVE",
"-321 -300 CURVE",
"-277 -307 OFFCURVE",
"-221 -316 OFFCURVE",
"-190 -316 CURVE SMOOTH",
"-148 -316 OFFCURVE",
"-109 -312 OFFCURVE",
"-78 -298 CURVE",
"-61 -272 OFFCURVE",
"-48 -247 OFFCURVE",
"-48 -213 CURVE SMOOTH",
"-48 -176 OFFCURVE",
"-55 -159 OFFCURVE",
"-78 -126 CURVE"
);
},
{
closed = 1;
nodes = (
"-171 -188 OFFCURVE",
"-166 -189 OFFCURVE",
"-162 -190 CURVE",
"-160 -194 OFFCURVE",
"-160 -198 OFFCURVE",
"-160 -204 CURVE SMOOTH",
"-160 -218 OFFCURVE",
"-161 -220 OFFCURVE",
"-163 -229 CURVE",
"-168 -231 OFFCURVE",
"-174 -232 OFFCURVE",
"-178 -232 CURVE SMOOTH",
"-184 -232 OFFCURVE",
"-189 -231 OFFCURVE",
"-195 -229 CURVE",
"-195 -213 OFFCURVE",
"-195 -206 OFFCURVE",
"-190 -190 CURVE",
"-188 -190 OFFCURVE",
"-185 -189 OFFCURVE",
"-183 -189 CURVE SMOOTH",
"-181 -188 OFFCURVE",
"-178 -188 OFFCURVE",
"-175 -188 CURVE SMOOTH"
);
},
{
closed = 1;
nodes = (
"-224 -27 OFFCURVE",
"-313 -42 OFFCURVE",
"-360 -47 CURVE",
"-350 -55 OFFCURVE",
"-331 -104 OFFCURVE",
"-317 -156 CURVE",
"-136 -142 LINE",
"-152 -78 OFFCURVE",
"-177 -22 OFFCURVE",
"-189 -11 CURVE"
);
},
{
closed = 1;
nodes = (
"19 129 LINE",
"26 132 OFFCURVE",
"33 133 OFFCURVE",
"43 133 CURVE SMOOTH",
"70 133 OFFCURVE",
"91 120 OFFCURVE",
"91 94 CURVE SMOOTH",
"91 65 OFFCURVE",
"68 63 OFFCURVE",
"44 63 CURVE SMOOTH",
"26 63 OFFCURVE",
"6 69 OFFCURVE",
"-1 74 CURVE",
"-1 -82 LINE",
"13 -77 OFFCURVE",
"37 -79 OFFCURVE",
"51 -79 CURVE SMOOTH",
"109 -79 OFFCURVE",
"136 -153 OFFCURVE",
"136 -194 CURVE SMOOTH",
"136 -238 OFFCURVE",
"121 -316 OFFCURVE",
"56 -316 CURVE SMOOTH",
"45 -316 OFFCURVE",
"28 -318 OFFCURVE",
"16 -316 CURVE",
"11 -301 OFFCURVE",
"10 -260 OFFCURVE",
"10 -246 CURVE",
"44 -242 OFFCURVE",
"136 -242 OFFCURVE",
"163 -242 CURVE",
"155 -121 LINE",
"128 -118 OFFCURVE",
"57 -118 OFFCURVE",
"27 -118 CURVE",
"-38 -118 OFFCURVE",
"-71 -119 OFFCURVE",
"-116 -129 CURVE",
"-134 -173 OFFCURVE",
"-143 -199 OFFCURVE",
"-143 -264 CURVE SMOOTH",
"-143 -325 OFFCURVE",
"-139 -365 OFFCURVE",
"-125 -402 CURVE",
"-79 -430 OFFCURVE",
"-14 -444 OFFCURVE",
"98 -444 CURVE SMOOTH",
"209 -444 OFFCURVE",
"235 -422 OFFCURVE",
"311 -394 CURVE",
"351 -351 OFFCURVE",
"382 -275 OFFCURVE",
"382 -205 CURVE SMOOTH",
"382 -105 OFFCURVE",
"350 -51 OFFCURVE",
"299 -11 CURVE",
"325 15 OFFCURVE",
"337 64 OFFCURVE",
"337 96 CURVE SMOOTH",
"337 144 OFFCURVE",
"319 193 OFFCURVE",
"270 229 CURVE",
"186 255 OFFCURVE",
"159 259 OFFCURVE",
"19 253 CURVE"
);
}
);
width = 382;
}
);
},
{
glyphname = kn_Ta.ottu.MatraR;
lastChange = "2015-10-17 19:06:56 +0000";
layers = (
{
layerId = "7A0FC40B-77F8-4D14-AD08-D047673E78CB";
name = Regular;
paths = (
{
closed = 1;
nodes = (
"220 268 OFFCURVE",
"180 265 OFFCURVE",
"140 263 CURVE SMOOTH",
"92 260 OFFCURVE",
"62 259 OFFCURVE",
"7 259 CURVE",
"39 184 OFFCURVE",
"57 -3 OFFCURVE",
"57 -51 CURVE",
"30 -48 OFFCURVE",
"-10 -48 OFFCURVE",
"-40 -48 CURVE SMOOTH",
"-85 -48 OFFCURVE",
"-128 -49 OFFCURVE",
"-173 -59 CURVE",
"-191 -103 OFFCURVE",
"-200 -179 OFFCURVE",
"-200 -261 CURVE SMOOTH",
"-200 -280 LINE",
"-338 -280 LINE",
"-480 -275 LINE",
"-480 -416 LINE",
"-419 -417 OFFCURVE",
"-423 -418 OFFCURVE",
"-295 -419 CURVE SMOOTH",
"-190 -419 OFFCURVE",
"2 -424 OFFCURVE",
"26 -424 CURVE SMOOTH",
"142 -424 OFFCURVE",
"174 -412 OFFCURVE",
"267 -379 CURVE",
"318 -299 OFFCURVE",
"332 -215 OFFCURVE",
"332 -130 CURVE SMOOTH",
"332 -2 OFFCURVE",
"304 213 OFFCURVE",
"258 269 CURVE"
);
},
{
closed = 1;
nodes = (
"73 -200 OFFCURVE",
"70 -258 OFFCURVE",
"64 -275 CURVE",
"57 -279 OFFCURVE",
"48 -283 OFFCURVE",
"37 -286 CURVE SMOOTH",
"26 -289 OFFCURVE",
"14 -291 OFFCURVE",
"2 -291 CURVE",
"-1 -278 OFFCURVE",
"-3 -246 OFFCURVE",
"-4 -237 CURVE SMOOTH",
"-5 -226 OFFCURVE",
"-6 -196 OFFCURVE",
"-7 -186 CURVE",
"27 -182 OFFCURVE",
"48 -182 OFFCURVE",
"75 -182 CURVE"
);
}
);
width = 352;
}
);
},
{
glyphname = kn_Ma.ottu.MatraR;
lastChange = "2015-10-17 19:07:09 +0000";
layers = (
{
layerId = "7A0FC40B-77F8-4D14-AD08-D047673E78CB";
name = Regular;
paths = (
{
closed = 1;
nodes = (
"-241 -106 OFFCURVE",
"-324 -97 OFFCURVE",
"-407 -97 CURVE SMOOTH",
"-523 -97 OFFCURVE",
"-564 -110 OFFCURVE",
"-614 -133 CURVE",
"-632 -175 OFFCURVE",
"-640 -214 OFFCURVE",
"-640 -248 CURVE SMOOTH",
"-640 -285 OFFCURVE",
"-632 -359 OFFCURVE",
"-598 -405 CURVE",
"-567 -423 OFFCURVE",
"-532 -432 OFFCURVE",
"-495 -437 CURVE SMOOTH",
"-457 -443 OFFCURVE",
"-389 -444 OFFCURVE",
"-351 -444 CURVE SMOOTH",
"18 -444 LINE",
"11 -400 OFFCURVE",
"-160 -368 OFFCURVE",
"-153 -324 CURVE",
"-351 -333 LINE",
"-371 -333 OFFCURVE",
"-396 -333 OFFCURVE",
"-418 -328 CURVE",
"-427 -313 OFFCURVE",
"-432 -286 OFFCURVE",
"-432 -256 CURVE SMOOTH",
"-432 -229 OFFCURVE",
"-429 -219 OFFCURVE",
"-422 -190 CURVE",
"-416 -188 OFFCURVE",
"-408 -186 OFFCURVE",
"-396 -186 CURVE",
"-390 -226 OFFCURVE",
"-396 -253 OFFCURVE",
"-401 -300 CURVE",
"-357 -307 OFFCURVE",
"-301 -316 OFFCURVE",
"-270 -316 CURVE SMOOTH",
"-228 -316 OFFCURVE",
"-189 -312 OFFCURVE",
"-158 -298 CURVE",
"-141 -272 OFFCURVE",
"-128 -247 OFFCURVE",
"-128 -213 CURVE SMOOTH",
"-128 -176 OFFCURVE",
"-135 -159 OFFCURVE",
"-158 -126 CURVE"
);
},
{
closed = 1;
nodes = (
"-251 -188 OFFCURVE",
"-246 -189 OFFCURVE",
"-242 -190 CURVE",
"-240 -194 OFFCURVE",
"-240 -198 OFFCURVE",
"-240 -204 CURVE SMOOTH",
"-240 -218 OFFCURVE",
"-241 -220 OFFCURVE",
"-243 -229 CURVE",
"-248 -231 OFFCURVE",
"-254 -232 OFFCURVE",
"-258 -232 CURVE SMOOTH",
"-264 -232 OFFCURVE",
"-269 -231 OFFCURVE",
"-275 -229 CURVE",
"-275 -213 OFFCURVE",
"-275 -206 OFFCURVE",
"-270 -190 CURVE",
"-268 -190 OFFCURVE",
"-265 -189 OFFCURVE",
"-263 -189 CURVE SMOOTH",
"-261 -188 OFFCURVE",
"-258 -188 OFFCURVE",
"-255 -188 CURVE SMOOTH"
);
},
{
closed = 1;
nodes = (
"-304 -27 OFFCURVE",
"-393 -42 OFFCURVE",
"-440 -47 CURVE",
"-430 -55 OFFCURVE",
"-411 -104 OFFCURVE",
"-397 -156 CURVE",
"-216 -142 LINE",
"-232 -78 OFFCURVE",
"-257 -22 OFFCURVE",
"-269 -11 CURVE"
);
},
{
closed = 1;
nodes = (
"212 248 OFFCURVE",
"172 245 OFFCURVE",
"132 243 CURVE SMOOTH",
"84 240 OFFCURVE",
"54 239 OFFCURVE",
"-1 239 CURVE",
"31 164 OFFCURVE",
"49 -23 OFFCURVE",
"49 -71 CURVE",
"22 -68 OFFCURVE",
"-18 -68 OFFCURVE",
"-48 -68 CURVE SMOOTH",
"-93 -68 OFFCURVE",
"-136 -69 OFFCURVE",
"-181 -79 CURVE",
"-199 -123 OFFCURVE",
"-208 -199 OFFCURVE",
"-208 -281 CURVE SMOOTH",
"-208 -325 OFFCURVE",
"-204 -365 OFFCURVE",
"-190 -402 CURVE",
"-144 -430 OFFCURVE",
"-74 -444 OFFCURVE",
"18 -444 CURVE SMOOTH",
"134 -444 OFFCURVE",
"166 -432 OFFCURVE",
"259 -399 CURVE",
"310 -319 OFFCURVE",
"324 -235 OFFCURVE",
"324 -150 CURVE SMOOTH",
"324 -22 OFFCURVE",
"296 193 OFFCURVE",
"250 249 CURVE"
);
},
{
closed = 1;
nodes = (
"65 -220 OFFCURVE",
"62 -278 OFFCURVE",
"56 -295 CURVE",
"49 -299 OFFCURVE",
"40 -303 OFFCURVE",
"29 -306 CURVE SMOOTH",
"18 -309 OFFCURVE",
"6 -311 OFFCURVE",
"-6 -311 CURVE",
"-9 -298 OFFCURVE",
"-11 -266 OFFCURVE",
"-12 -257 CURVE SMOOTH",
"-13 -246 OFFCURVE",
"-14 -216 OFFCURVE",
"-15 -206 CURVE",
"19 -202 OFFCURVE",
"40 -202 OFFCURVE",
"67 -202 CURVE"
);
}
);
width = 344;
}
);
},
{
glyphname = kn_Ra.ottu.alt1;
lastChange = "2015-10-17 19:07:21 +0000";
layers = (
{
layerId = "7A0FC40B-77F8-4D14-AD08-D047673E78CB";
name = Regular;
paths = (
{
closed = 1;
nodes = (
"272 -162 OFFCURVE",
"261 -101 OFFCURVE",
"250 -71 CURVE",
"189 -76 OFFCURVE",
"128 -77 OFFCURVE",
"57 -74 CURVE",
"62 -82 OFFCURVE",
"84 -149 OFFCURVE",
"84 -205 CURVE SMOOTH",
"84 -450 OFFCURVE",
"35 -548 OFFCURVE",
"-131 -548 CURVE SMOOTH",
"-256 -548 OFFCURVE",
"-248 -551 OFFCURVE",
"-313 -535 CURVE",
"-313 -582 OFFCURVE",
"-306 -612 OFFCURVE",
"-306 -669 CURVE",
"-258 -676 OFFCURVE",
"-203 -677 OFFCURVE",
"-132 -677 CURVE SMOOTH",
"174 -677 OFFCURVE",
"272 -539 OFFCURVE",
"272 -236 CURVE SMOOTH"
);
}
);
width = 272;
}
);
},
{
glyphname = kn_Ga.base;
lastChange = "2015-10-05 09:28:20 +0000";
layers = (
{
layerId = "7A0FC40B-77F8-4D14-AD08-D047673E78CB";
name = Regular;
paths = (
{
closed = 1;
nodes = (
"266 584 OFFCURVE",
"166 565 OFFCURVE",
"98 525 CURVE",
"46 431 OFFCURVE",
"40 345 OFFCURVE",
"40 240 CURVE SMOOTH",
"40 169 OFFCURVE",
"51 44 OFFCURVE",
"58 -4 CURVE",
"97 -3 OFFCURVE",
"126 -2 OFFCURVE",
"166 -2 CURVE SMOOTH",
"223 -2 OFFCURVE",
"281 -4 OFFCURVE",
"342 -11 CURVE",
"336 44 OFFCURVE",
"342 203 OFFCURVE",
"342 241 CURVE SMOOTH",
"342 283 OFFCURVE",
"347 402 OFFCURVE",
"362 433 CURVE",
"372 442 OFFCURVE",
"430 446 OFFCURVE",
"442 446 CURVE SMOOTH",
"450 446 OFFCURVE",
"505 444 OFFCURVE",
"513 439 CURVE",
"522 419 OFFCURVE",
"526 361 OFFCURVE",
"526 308 CURVE SMOOTH",
"526 262 OFFCURVE",
"527 57 OFFCURVE",
"512 -10 CURVE",
"582 -3 OFFCURVE",
"591 0 OFFCURVE",
"657 0 CURVE SMOOTH",
"707 0 OFFCURVE",
"758 -1 OFFCURVE",
"808 -2 CURVE",
"811 51 OFFCURVE",
"815 143 OFFCURVE",
"822 193 CURVE SMOOTH",
"827 242 OFFCURVE",
"831 269 OFFCURVE",
"831 319 CURVE SMOOTH",
"831 400 OFFCURVE",
"795 487 OFFCURVE",
"762 522 CURVE",
"696 565 OFFCURVE",
"615 584 OFFCURVE",
"431 584 CURVE SMOOTH"
);
},
{
closed = 1;
nodes = (
"21 540 OFFCURVE",
"13 474 OFFCURVE",
"0 408 CURVE",
"335 422 LINE",
"436 485 LINE",
"548 424 LINE",
"600 416 LINE SMOOTH",
"697 401 OFFCURVE",
"733 423 OFFCURVE",
"789 456 CURVE",
"559 605 LINE",
"26 606 LINE"
);
}
);
width = 871;
}
);
},
{
glyphname = kn_Ca.base;
lastChange = "2015-10-05 21:13:29 +0000";
layers = (
{
layerId = "7A0FC40B-77F8-4D14-AD08-D047673E78CB";
name = Regular;
paths = (
{
closed = 1;
nodes = (
"164 605 OFFCURVE",
"96 597 OFFCURVE",
"24 580 CURVE",
"43 531 OFFCURVE",
"48 482 OFFCURVE",
"51 435 CURVE",
"76 442 OFFCURVE",
"110 445 OFFCURVE",
"146 445 CURVE SMOOTH",
"175 445 OFFCURVE",
"207 443 OFFCURVE",
"241 439 CURVE",
"241 424 OFFCURVE",
"245 394 OFFCURVE",
"247 383 CURVE",
"168 350 OFFCURVE",
"86 323 OFFCURVE",
"70 309 CURVE SMOOTH",
"56 297 OFFCURVE",
"32 253 OFFCURVE",
"32 195 CURVE SMOOTH",
"32 150 OFFCURVE",
"36 94 OFFCURVE",
"73 38 CURVE",
"147 0 OFFCURVE",
"207 -11 OFFCURVE",
"303 -11 CURVE SMOOTH",
"408 -11 OFFCURVE",
"461 23 OFFCURVE",
"497 55 CURVE",
"522 28 OFFCURVE",
"617 -11 OFFCURVE",
"705 -11 CURVE SMOOTH",
"793 -11 OFFCURVE",
"876 -4 OFFCURVE",
"952 26 CURVE",
"1007 69 OFFCURVE",
"1035 106 OFFCURVE",
"1035 176 CURVE SMOOTH",
"1035 214 OFFCURVE",
"1029 244 OFFCURVE",
"1017 266 CURVE SMOOTH",
"1003 289 OFFCURVE",
"983 305 OFFCURVE",
"952 321 CURVE",
"989 347 OFFCURVE",
"990 394 OFFCURVE",
"990 426 CURVE SMOOTH",
"990 474 OFFCURVE",
"972 545 OFFCURVE",
"923 581 CURVE",
"839 607 OFFCURVE",
"783 601 OFFCURVE",
"643 601 CURVE",
"632 456 LINE",
"639 459 OFFCURVE",
"646 460 OFFCURVE",
"656 460 CURVE SMOOTH",
"683 460 OFFCURVE",
"704 433 OFFCURVE",
"704 386 CURVE SMOOTH",
"704 368 OFFCURVE",
"687 361 OFFCURVE",
"679 361 CURVE SMOOTH",
"671 361 OFFCURVE",
"648 363 OFFCURVE",
"642 366 CURVE",
"652 210 LINE",
"666 215 OFFCURVE",
"681 218 OFFCURVE",
"695 218 CURVE SMOOTH",
"711 218 OFFCURVE",
"729 207 OFFCURVE",
"729 172 CURVE SMOOTH",
"729 142 OFFCURVE",
"703 130 OFFCURVE",
"679 130 CURVE SMOOTH",
"658 130 OFFCURVE",
"648 130 OFFCURVE",
"643 132 CURVE",
"632 156 OFFCURVE",
"631 170 OFFCURVE",
"631 191 CURVE SMOOTH",
"631 213 OFFCURVE",
"634 230 OFFCURVE",
"639 254 CURVE",
"608 249 OFFCURVE",
"566 246 OFFCURVE",
"513 246 CURVE SMOOTH",
"451 246 OFFCURVE",
"397 250 OFFCURVE",
"372 254 CURVE",
"377 230 OFFCURVE",
"380 215 OFFCURVE",
"380 191 CURVE SMOOTH",
"380 176 OFFCURVE",
"380 152 OFFCURVE",
"369 133 CURVE",
"367 130 OFFCURVE",
"357 130 OFFCURVE",
"352 130 CURVE SMOOTH",
"346 130 OFFCURVE",
"336 131 OFFCURVE",
"331 133 CURVE",
"321 141 OFFCURVE",
"312 176 OFFCURVE",
"312 208 CURVE SMOOTH",
"313 239 OFFCURVE",
"325 270 OFFCURVE",
"336 273 CURVE",
"400 283 OFFCURVE",
"448 292 OFFCURVE",
"513 312 CURVE",
"526 348 OFFCURVE",
"538 387 OFFCURVE",
"538 430 CURVE SMOOTH",
"538 477 OFFCURVE",
"535 519 OFFCURVE",
"506 563 CURVE",
"451 595 OFFCURVE",
"356 605 OFFCURVE",
"251 605 CURVE SMOOTH"
);
},
{
closed = 1;
nodes = (
"564 555 OFFCURVE",
"558 481 OFFCURVE",
"569 421 CURVE",
"610 429 OFFCURVE",
"634 429 OFFCURVE",
"654 427 CURVE SMOOTH",
"785 416 LINE",
"755 605 LINE",
"553 615 LINE"
);
}
);
width = 1065;
}
);
},
{
glyphname = kn_Cha.base;
lastChange = "2015-10-12 20:56:34 +0000";
layers = (
{
layerId = "7A0FC40B-77F8-4D14-AD08-D047673E78CB";
name = Regular;
paths = (
{
closed = 1;
nodes = (
"239 605 OFFCURVE",
"187 591 OFFCURVE",
"95 558 CURVE",
"44 478 OFFCURVE",
"30 404 OFFCURVE",
"30 320 CURVE SMOOTH",
"30 235 OFFCURVE",
"53 94 OFFCURVE",
"83 34 CURVE",
"114 7 OFFCURVE",
"235 -11 OFFCURVE",
"355 -11 CURVE SMOOTH",
"485 -11 OFFCURVE",
"577 28 OFFCURVE",
"631 55 CURVE",
"685 28 OFFCURVE",
"736 -11 OFFCURVE",
"840 -11 CURVE SMOOTH",
"958 -11 OFFCURVE",
"1045 7 OFFCURVE",
"1113 47 CURVE",
"1169 123 OFFCURVE",
"1171 227 OFFCURVE",
"1171 332 CURVE SMOOTH",
"1171 403 OFFCURVE",
"1139 521 OFFCURVE",
"1132 576 CURVE",
"1093 575 OFFCURVE",
"1085 574 OFFCURVE",
"1045 574 CURVE SMOOTH",
"988 574 OFFCURVE",
"930 576 OFFCURVE",
"869 583 CURVE",
"875 528 OFFCURVE",
"869 369 OFFCURVE",
"869 331 CURVE SMOOTH",
"869 289 OFFCURVE",
"864 170 OFFCURVE",
"849 139 CURVE",
"839 130 OFFCURVE",
"827 126 OFFCURVE",
"817 126 CURVE SMOOTH",
"808 126 OFFCURVE",
"797 127 OFFCURVE",
"785 135 CURVE",
"774 154 OFFCURVE",
"774 208 OFFCURVE",
"774 208 CURVE",
"774 249 OFFCURVE",
"774 249 OFFCURVE",
"777 272 CURVE",
"752 268 OFFCURVE",
"693 264 OFFCURVE",
"631 264 CURVE SMOOTH",
"569 264 OFFCURVE",
"510 268 OFFCURVE",
"485 272 CURVE",
"488 249 OFFCURVE",
"488 249 OFFCURVE",
"488 208 CURVE",
"488 208 OFFCURVE",
"488 154 OFFCURVE",
"477 135 CURVE",
"465 132 OFFCURVE",
"430 130 OFFCURVE",
"415 130 CURVE SMOOTH",
"401 130 OFFCURVE",
"368 135 OFFCURVE",
"358 145 CURVE",
"354 159 OFFCURVE",
"350 283 OFFCURVE",
"345 300 CURVE",
"372 297 OFFCURVE",
"412 297 OFFCURVE",
"442 297 CURVE SMOOTH",
"507 297 OFFCURVE",
"570 298 OFFCURVE",
"615 309 CURVE",
"632 352 OFFCURVE",
"642 406 OFFCURVE",
"642 450 CURVE SMOOTH",
"642 494 OFFCURVE",
"638 525 OFFCURVE",
"624 561 CURVE",
"577 589 OFFCURVE",
"468 605 OFFCURVE",
"356 605 CURVE SMOOTH"
);
},
{
closed = 1;
nodes = (
"563 -12 OFFCURVE",
"517 -56 OFFCURVE",
"472 -101 CURVE",
"487 -145 OFFCURVE",
"496 -187 OFFCURVE",
"527 -209 CURVE SMOOTH",
"560 -232 OFFCURVE",
"595 -254 OFFCURVE",
"629 -254 CURVE SMOOTH",
"687 -254 OFFCURVE",
"715 -236 OFFCURVE",
"738 -208 CURVE SMOOTH",
"771 -169 OFFCURVE",
"776 -120 OFFCURVE",
"789 -71 CURVE",
"732 -39 OFFCURVE",
"688 -4 OFFCURVE",
"633 16 CURVE"
);
},
{
closed = 1;
nodes = (
"413 458 OFFCURVE",
"418 429 OFFCURVE",
"419 420 CURVE",
"385 415 OFFCURVE",
"364 415 OFFCURVE",
"337 415 CURVE",
"339 433 OFFCURVE",
"342 447 OFFCURVE",
"348 455 CURVE",
"362 462 OFFCURVE",
"387 470 OFFCURVE",
"410 470 CURVE"
);
},
{
closed = 1;
nodes = (
"677 555 OFFCURVE",
"681 481 OFFCURVE",
"682 421 CURVE",
"754 429 OFFCURVE",
"770 434 OFFCURVE",
"833 427 CURVE SMOOTH",
"931 416 LINE",
"906 605 LINE",
"666 615 LINE"
);
}
);
width = 1211;
}
);
},
{
glyphname = kn_Ttha.base;
lastChange = "2015-09-03 19:02:26 +0000";
layers = (
{
layerId = "7A0FC40B-77F8-4D14-AD08-D047673E78CB";
name = Regular;
paths = (
{
closed = 1;
nodes = (
"184 581 OFFCURVE",
"155 566 OFFCURVE",
"120 545 CURVE",
"80 491 OFFCURVE",
"40 374 OFFCURVE",
"40 301 CURVE SMOOTH",
"40 200 OFFCURVE",
"58 97 OFFCURVE",
"114 29 CURVE",
"181 0 OFFCURVE",
"357 -12 OFFCURVE",
"514 -12 CURVE SMOOTH",
"644 -12 OFFCURVE",
"779 11 OFFCURVE",
"847 57 CURVE",
"879 128 OFFCURVE",
"894 199 OFFCURVE",
"894 287 CURVE SMOOTH",
"894 368 OFFCURVE",
"874 477 OFFCURVE",
"829 542 CURVE",
"795 564 OFFCURVE",
"760 580 OFFCURVE",
"698 590 CURVE",
"248 591 LINE"
);
},
{
closed = 1;
nodes = (
"446 416 OFFCURVE",
"403 411 OFFCURVE",
"393 402 CURVE",
"378 368 OFFCURVE",
"374 315 OFFCURVE",
"374 274 CURVE SMOOTH",
"374 229 OFFCURVE",
"380 183 OFFCURVE",
"387 171 CURVE",
"394 163 OFFCURVE",
"474 159 OFFCURVE",
"513 159 CURVE SMOOTH",
"544 159 OFFCURVE",
"559 208 OFFCURVE",
"559 297 CURVE SMOOTH",
"559 350 OFFCURVE",
"554 389 OFFCURVE",
"544 408 CURVE",
"537 414 OFFCURVE",
"482 416 OFFCURVE",
"470 416 CURVE SMOOTH"
);
},
{
closed = 1;
nodes = (
"482 446 OFFCURVE",
"567 444 OFFCURVE",
"574 438 CURVE",
"584 419 OFFCURVE",
"589 350 OFFCURVE",
"589 297 CURVE SMOOTH",
"589 208 OFFCURVE",
"574 129 OFFCURVE",
"543 129 CURVE SMOOTH",
"504 129 OFFCURVE",
"364 133 OFFCURVE",
"357 141 CURVE",
"350 153 OFFCURVE",
"344 229 OFFCURVE",
"344 274 CURVE SMOOTH",
"344 315 OFFCURVE",
"348 398 OFFCURVE",
"363 432 CURVE",
"373 441 OFFCURVE",
"446 446 OFFCURVE",
"470 446 CURVE SMOOTH"
);
},
{
closed = 1;
nodes = (
"10 591 LINE",
"21 529 OFFCURVE",
"11 467 OFFCURVE",
"0 405 CURVE",
"330 422 LINE",
"460 485 LINE",
"601 424 LINE",
"644 416 LINE",
"626 605 LINE"
);
}
);
width = 934;
}
);
},
{
glyphname = kn_Dda.base;
lastChange = "2015-09-03 19:02:26 +0000";
layers = (
{
layerId = "7A0FC40B-77F8-4D14-AD08-D047673E78CB";
name = Regular;
paths = (
{
closed = 1;
nodes = (
"865 528 OFFCURVE",
"754 507 OFFCURVE",
"686 500 CURVE",
"731 458 OFFCURVE",
"777 414 OFFCURVE",
"799 362 CURVE SMOOTH",
"822 307 OFFCURVE",
"819 255 OFFCURVE",
"819 236 CURVE SMOOTH",
"819 204 OFFCURVE",
"789 180 OFFCURVE",
"773 145 CURVE",
"763 135 OFFCURVE",
"739 126 OFFCURVE",
"716 126 CURVE SMOOTH",
"703 126 OFFCURVE",
"691 126 OFFCURVE",
"669 131 CURVE",
"658 155 OFFCURVE",
"658 202 OFFCURVE",
"658 222 CURVE SMOOTH",
"658 238 OFFCURVE",
"656 284 OFFCURVE",
"666 302 CURVE",
"635 297 OFFCURVE",
"583 294 OFFCURVE",
"530 294 CURVE SMOOTH",
"468 294 OFFCURVE",
"404 298 OFFCURVE",
"379 302 CURVE",
"384 278 OFFCURVE",
"387 241 OFFCURVE",
"387 222 CURVE SMOOTH",
"387 208 OFFCURVE",
"387 154 OFFCURVE",
"376 135 CURVE",
"372 132 OFFCURVE",
"368 130 OFFCURVE",
"362 130 CURVE SMOOTH",
"357 130 OFFCURVE",
"353 133 OFFCURVE",
"350 136 CURVE",
"334 171 OFFCURVE",
"334 204 OFFCURVE",
"334 236 CURVE SMOOTH",
"334 256 OFFCURVE",
"331 312 OFFCURVE",
"357 371 CURVE SMOOTH",
"379 420 OFFCURVE",
"445 470 OFFCURVE",
"487 500 CURVE",
"419 507 OFFCURVE",
"228 528 OFFCURVE",
"177 552 CURVE",
"136 525 OFFCURVE",
"103 472 OFFCURVE",
"79 412 CURVE SMOOTH",
"47 334 OFFCURVE",
"30 286 OFFCURVE",
"30 236 CURVE SMOOTH",
"30 129 OFFCURVE",
"44 90 OFFCURVE",
"75 34 CURVE",
"106 7 OFFCURVE",
"244 -11 OFFCURVE",
"297 -11 CURVE SMOOTH",
"402 -11 OFFCURVE",
"478 37 OFFCURVE",
"514 69 CURVE",
"539 42 OFFCURVE",
"662 -11 OFFCURVE",
"753 -11 CURVE SMOOTH",
"878 -11 OFFCURVE",
"987 7 OFFCURVE",
"1018 34 CURVE",
"1049 90 OFFCURVE",
"1063 129 OFFCURVE",
"1063 236 CURVE",
"992 261 LINE",
"1049 285 OFFCURVE",
"1035 368 OFFCURVE",
"1007 429 CURVE SMOOTH",
"983 481 OFFCURVE",
"953 527 OFFCURVE",
"916 552 CURVE"
);
},
{
closed = 1;
nodes = (
"51 565 OFFCURVE",
"29 484 OFFCURVE",
"0 434 CURVE",
"108 442 OFFCURVE",
"233 447 OFFCURVE",
"341 441 CURVE SMOOTH",
"780 416 LINE",
"779 605 LINE",
"509 604 LINE SMOOTH",
"409 604 OFFCURVE",
"216 614 OFFCURVE",
"40 625 CURVE"
);
},
{
closed = 1;
nodes = (
"657 353 OFFCURVE",
"644 313 OFFCURVE",
"644 287 CURVE SMOOTH",
"644 262 OFFCURVE",
"645 231 OFFCURVE",
"653 205 CURVE",
"737 150 OFFCURVE",
"883 162 OFFCURVE",
"973 261 CURVE",
"820 378 LINE",
"768 389 OFFCURVE",
"703 388 OFFCURVE",
"657 379 CURVE"
);
}
);
width = 1083;
}
);
},
{
glyphname = kn_Ddha.base;
lastChange = "2015-10-13 09:46:50 +0000";
layers = (
{
layerId = "7A0FC40B-77F8-4D14-AD08-D047673E78CB";
name = Regular;
paths = (
{
closed = 1;
nodes = (
"865 528 OFFCURVE",
"754 507 OFFCURVE",
"686 500 CURVE",
"731 458 OFFCURVE",
"777 414 OFFCURVE",
"799 362 CURVE SMOOTH",
"822 307 OFFCURVE",
"819 255 OFFCURVE",
"819 236 CURVE SMOOTH",
"819 204 OFFCURVE",
"789 180 OFFCURVE",
"773 145 CURVE",
"763 135 OFFCURVE",
"739 126 OFFCURVE",
"716 126 CURVE SMOOTH",
"703 126 OFFCURVE",
"691 126 OFFCURVE",
"669 131 CURVE",
"658 155 OFFCURVE",
"658 202 OFFCURVE",
"658 222 CURVE SMOOTH",
"658 238 OFFCURVE",
"656 284 OFFCURVE",
"666 302 CURVE",
"635 297 OFFCURVE",
"583 294 OFFCURVE",
"530 294 CURVE SMOOTH",
"468 294 OFFCURVE",
"404 298 OFFCURVE",
"379 302 CURVE",
"384 278 OFFCURVE",
"387 241 OFFCURVE",
"387 222 CURVE SMOOTH",
"387 208 OFFCURVE",
"387 154 OFFCURVE",
"376 135 CURVE",
"372 132 OFFCURVE",
"368 130 OFFCURVE",
"362 130 CURVE SMOOTH",
"357 130 OFFCURVE",
"353 133 OFFCURVE",
"350 136 CURVE",
"334 171 OFFCURVE",
"334 204 OFFCURVE",
"334 236 CURVE SMOOTH",
"334 256 OFFCURVE",
"331 312 OFFCURVE",
"357 371 CURVE SMOOTH",
"379 420 OFFCURVE",
"445 470 OFFCURVE",
"487 500 CURVE",
"419 507 OFFCURVE",
"228 528 OFFCURVE",
"177 552 CURVE",
"136 525 OFFCURVE",
"103 472 OFFCURVE",
"79 412 CURVE SMOOTH",
"47 334 OFFCURVE",
"30 286 OFFCURVE",
"30 236 CURVE SMOOTH",
"30 129 OFFCURVE",
"44 90 OFFCURVE",
"75 34 CURVE",
"106 7 OFFCURVE",
"244 -11 OFFCURVE",
"297 -11 CURVE SMOOTH",
"402 -11 OFFCURVE",
"478 37 OFFCURVE",
"514 69 CURVE",
"539 42 OFFCURVE",
"662 -11 OFFCURVE",
"753 -11 CURVE SMOOTH",
"878 -11 OFFCURVE",
"987 7 OFFCURVE",
"1018 34 CURVE",
"1049 90 OFFCURVE",
"1063 129 OFFCURVE",
"1063 236 CURVE",
"992 261 LINE",
"1049 285 OFFCURVE",
"1035 368 OFFCURVE",
"1007 429 CURVE SMOOTH",
"983 481 OFFCURVE",
"953 527 OFFCURVE",
"916 552 CURVE"
);
},
{
closed = 1;
nodes = (
"448 -12 OFFCURVE",
"402 -56 OFFCURVE",
"357 -101 CURVE",
"372 -145 OFFCURVE",
"381 -187 OFFCURVE",
"412 -209 CURVE SMOOTH",
"445 -232 OFFCURVE",
"480 -254 OFFCURVE",
"514 -254 CURVE SMOOTH",
"572 -254 OFFCURVE",
"600 -236 OFFCURVE",
"623 -208 CURVE SMOOTH",
"656 -169 OFFCURVE",
"661 -120 OFFCURVE",
"674 -71 CURVE",
"617 -39 OFFCURVE",
"573 -4 OFFCURVE",
"518 16 CURVE"
);
},
{
closed = 1;
nodes = (
"51 565 OFFCURVE",
"29 484 OFFCURVE",
"0 434 CURVE",
"108 442 OFFCURVE",
"233 447 OFFCURVE",
"341 441 CURVE SMOOTH",
"780 416 LINE",
"779 605 LINE",
"509 604 LINE SMOOTH",
"409 604 OFFCURVE",
"216 614 OFFCURVE",
"40 625 CURVE"
);
},
{
closed = 1;
nodes = (
"657 353 OFFCURVE",
"644 313 OFFCURVE",
"644 287 CURVE SMOOTH",
"644 262 OFFCURVE",
"645 231 OFFCURVE",
"653 205 CURVE",
"737 150 OFFCURVE",
"883 162 OFFCURVE",
"973 261 CURVE",
"820 378 LINE",
"768 389 OFFCURVE",
"703 388 OFFCURVE",
"657 379 CURVE"
);
}
);
width = 1083;
}
);
},
{
glyphname = kn_Ta.base;
lastChange = "2015-09-03 19:02:26 +0000";
layers = (
{
layerId = "7A0FC40B-77F8-4D14-AD08-D047673E78CB";
name = Regular;
paths = (
{
closed = 1;
nodes = (
"452 463 LINE",
"459 466 OFFCURVE",
"466 467 OFFCURVE",
"476 467 CURVE SMOOTH",
"503 467 OFFCURVE",
"524 457 OFFCURVE",
"524 432 CURVE SMOOTH",
"524 428 OFFCURVE",
"524 424 OFFCURVE",
"523 420 CURVE",
"451 430 OFFCURVE",
"378 417 OFFCURVE",
"335 382 CURVE",
"323 366 OFFCURVE",
"312 335 OFFCURVE",
"312 300 CURVE SMOOTH",
"312 245 OFFCURVE",
"327 216 OFFCURVE",
"339 198 CURVE",
"373 179 OFFCURVE",
"470 168 OFFCURVE",
"522 179 CURVE",
"549 198 LINE",
"549 194 LINE",
"549 172 OFFCURVE",
"525 130 OFFCURVE",
"449 130 CURVE SMOOTH",
"409 130 OFFCURVE",
"343 135 OFFCURVE",
"333 145 CURVE",
"317 180 OFFCURVE",
"314 199 OFFCURVE",
"314 231 CURVE SMOOTH",
"314 251 OFFCURVE",
"328 316 OFFCURVE",
"340 340 CURVE",
"272 347 OFFCURVE",
"121 368 OFFCURVE",
"70 392 CURVE",
"59 369 OFFCURVE",
"50 343 OFFCURVE",
"45 317 CURVE SMOOTH",
"36 273 OFFCURVE",
"30 243 OFFCURVE",
"30 191 CURVE SMOOTH",
"30 144 OFFCURVE",
"47 90 OFFCURVE",
"78 34 CURVE",
"109 7 OFFCURVE",
"323 -11 OFFCURVE",
"440 -11 CURVE SMOOTH",
"551 -11 OFFCURVE",
"696 -4 OFFCURVE",
"772 26 CURVE",
"827 69 OFFCURVE",
"855 126 OFFCURVE",
"855 196 CURVE SMOOTH",
"855 234 OFFCURVE",
"849 264 OFFCURVE",
"837 286 CURVE",
"823 309 OFFCURVE",
"803 325 OFFCURVE",
"772 341 CURVE",
"798 367 OFFCURVE",
"810 416 OFFCURVE",
"810 448 CURVE",
"743 581 LINE",
"659 607 OFFCURVE",
"603 605 OFFCURVE",
"453 605 CURVE"
);
},
{
closed = 1;
nodes = (
"513 326 OFFCURVE",
"520 325 OFFCURVE",
"529 322 CURVE",
"529 312 OFFCURVE",
"528 299 OFFCURVE",
"522 290 CURVE",
"509 287 OFFCURVE",
"505 287 OFFCURVE",
"500 287 CURVE SMOOTH",
"494 287 OFFCURVE",
"487 288 OFFCURVE",
"482 290 CURVE",
"476 299 OFFCURVE",
"478 309 OFFCURVE",
"483 323 CURVE",
"490 325 OFFCURVE",
"498 326 OFFCURVE",
"504 326 CURVE SMOOTH"
);
},
{
closed = 1;
nodes = (
"19 540 OFFCURVE",
"13 488 OFFCURVE",
"0 422 CURVE",
"310 422 LINE",
"506 446 LINE",
"592 446 LINE",
"595 605 LINE",
"24 606 LINE"
);
}
);
width = 885;
}
);
},
{
glyphname = kn_Tha.base;
lastChange = "2015-10-12 20:56:34 +0000";
layers = (
{
layerId = "7A0FC40B-77F8-4D14-AD08-D047673E78CB";
name = Regular;
paths = (
{
closed = 1;
nodes = (
"812 528 OFFCURVE",
"641 507 OFFCURVE",
"573 500 CURVE",
"618 468 OFFCURVE",
"664 414 OFFCURVE",
"686 362 CURVE SMOOTH",
"709 307 OFFCURVE",
"706 255 OFFCURVE",
"706 236 CURVE SMOOTH",
"706 204 OFFCURVE",
"706 168 OFFCURVE",
"690 133 CURVE",
"685 129 OFFCURVE",
"683 126 OFFCURVE",
"678 126 CURVE SMOOTH",
"673 126 OFFCURVE",
"669 129 OFFCURVE",
"669 131 CURVE",
"658 155 OFFCURVE",
"658 175 OFFCURVE",
"658 189 CURVE SMOOTH",
"658 201 OFFCURVE",
"661 214 OFFCURVE",
"666 248 CURVE",
"635 243 OFFCURVE",
"583 240 OFFCURVE",
"530 240 CURVE SMOOTH",
"468 240 OFFCURVE",
"404 244 OFFCURVE",
"379 248 CURVE",
"384 224 OFFCURVE",
"387 204 OFFCURVE",
"387 189 CURVE SMOOTH",
"387 176 OFFCURVE",
"387 155 OFFCURVE",
"376 135 CURVE",
"372 132 OFFCURVE",
"369 130 OFFCURVE",
"362 130 CURVE SMOOTH",
"356 130 OFFCURVE",
"353 134 OFFCURVE",
"350 137 CURVE",
"334 172 OFFCURVE",
"334 204 OFFCURVE",
"334 236 CURVE SMOOTH",
"334 256 OFFCURVE",
"331 312 OFFCURVE",
"357 371 CURVE SMOOTH",
"379 420 OFFCURVE",
"425 470 OFFCURVE",
"467 500 CURVE",
"399 507 OFFCURVE",
"228 528 OFFCURVE",
"177 552 CURVE",
"136 525 OFFCURVE",
"103 472 OFFCURVE",
"79 412 CURVE SMOOTH",
"47 334 OFFCURVE",
"30 286 OFFCURVE",
"30 236 CURVE SMOOTH",
"30 129 OFFCURVE",
"44 90 OFFCURVE",
"75 34 CURVE",
"106 7 OFFCURVE",
"246 -11 OFFCURVE",
"297 -11 CURVE SMOOTH",
"402 -11 OFFCURVE",
"478 23 OFFCURVE",
"514 55 CURVE",
"539 28 OFFCURVE",
"652 -11 OFFCURVE",
"743 -11 CURVE SMOOTH",
"794 -11 OFFCURVE",
"934 7 OFFCURVE",
"965 34 CURVE",
"996 90 OFFCURVE",
"1010 129 OFFCURVE",
"1010 236 CURVE SMOOTH",
"1010 289 OFFCURVE",
"991 347 OFFCURVE",
"954 429 CURVE SMOOTH",
"930 481 OFFCURVE",
"900 527 OFFCURVE",
"863 552 CURVE"
);
},
{
closed = 1;
nodes = (
"446 -12 OFFCURVE",
"400 -56 OFFCURVE",
"355 -101 CURVE",
"370 -145 OFFCURVE",
"379 -187 OFFCURVE",
"410 -209 CURVE SMOOTH",
"443 -232 OFFCURVE",
"478 -254 OFFCURVE",
"512 -254 CURVE SMOOTH",
"570 -254 OFFCURVE",
"598 -236 OFFCURVE",
"621 -208 CURVE SMOOTH",
"654 -169 OFFCURVE",
"659 -120 OFFCURVE",
"672 -71 CURVE",
"615 -39 OFFCURVE",
"571 -4 OFFCURVE",
"516 16 CURVE"
);
},
{
closed = 1;
nodes = (
"367 407 LINE",
"381 317 OFFCURVE",
"383 306 OFFCURVE",
"380 260 CURVE",
"429 263 OFFCURVE",
"467 265 OFFCURVE",
"510 265 CURVE SMOOTH",
"552 265 OFFCURVE",
"596 262 OFFCURVE",
"654 256 CURVE",
"701 420 LINE"
);
},
{
closed = 1;
nodes = (
"15 555 OFFCURVE",
"19 494 OFFCURVE",
"0 434 CURVE",
"108 442 OFFCURVE",
"227 447 OFFCURVE",
"335 441 CURVE SMOOTH",
"760 416 LINE",
"755 605 LINE",
"14 615 LINE"
);
}
);
width = 1040;
}
);
},
{
glyphname = kn_Da.base;
lastChange = "2015-09-03 19:02:26 +0000";
layers = (
{
layerId = "7A0FC40B-77F8-4D14-AD08-D047673E78CB";
name = Regular;
paths = (
{
closed = 1;
nodes = (
"812 528 OFFCURVE",
"641 507 OFFCURVE",
"573 500 CURVE",
"618 468 OFFCURVE",
"664 414 OFFCURVE",
"686 362 CURVE SMOOTH",
"709 307 OFFCURVE",
"706 255 OFFCURVE",
"706 236 CURVE SMOOTH",
"706 204 OFFCURVE",
"706 168 OFFCURVE",
"690 133 CURVE",
"685 129 OFFCURVE",
"683 126 OFFCURVE",
"678 126 CURVE SMOOTH",
"673 126 OFFCURVE",
"669 129 OFFCURVE",
"669 131 CURVE",
"658 165 OFFCURVE",
"658 188 OFFCURVE",
"658 229 CURVE SMOOTH",
"658 261 OFFCURVE",
"661 274 OFFCURVE",
"666 308 CURVE",
"635 303 OFFCURVE",
"583 300 OFFCURVE",
"530 300 CURVE SMOOTH",
"468 300 OFFCURVE",
"404 304 OFFCURVE",
"379 308 CURVE",
"384 284 OFFCURVE",
"387 253 OFFCURVE",
"387 229 CURVE SMOOTH",
"387 194 OFFCURVE",
"387 164 OFFCURVE",
"376 135 CURVE",
"372 132 OFFCURVE",
"369 130 OFFCURVE",
"362 130 CURVE SMOOTH",
"356 130 OFFCURVE",
"353 134 OFFCURVE",
"350 137 CURVE",
"334 172 OFFCURVE",
"334 204 OFFCURVE",
"334 236 CURVE SMOOTH",
"334 256 OFFCURVE",
"331 312 OFFCURVE",
"357 371 CURVE SMOOTH",
"379 420 OFFCURVE",
"425 470 OFFCURVE",
"467 500 CURVE",
"399 507 OFFCURVE",
"228 528 OFFCURVE",
"177 552 CURVE",
"136 525 OFFCURVE",
"103 472 OFFCURVE",
"79 412 CURVE SMOOTH",
"47 334 OFFCURVE",
"30 286 OFFCURVE",
"30 236 CURVE SMOOTH",
"30 129 OFFCURVE",
"44 90 OFFCURVE",
"75 34 CURVE",
"106 7 OFFCURVE",
"246 -11 OFFCURVE",
"297 -11 CURVE SMOOTH",
"402 -11 OFFCURVE",
"478 23 OFFCURVE",
"514 55 CURVE",
"539 28 OFFCURVE",
"652 -11 OFFCURVE",
"743 -11 CURVE SMOOTH",
"794 -11 OFFCURVE",
"934 7 OFFCURVE",
"965 34 CURVE",
"996 90 OFFCURVE",
"1010 129 OFFCURVE",
"1010 236 CURVE SMOOTH",
"1010 289 OFFCURVE",
"991 347 OFFCURVE",
"954 429 CURVE SMOOTH",
"930 481 OFFCURVE",
"900 527 OFFCURVE",
"863 552 CURVE"
);
},
{
closed = 1;
nodes = (
"15 555 OFFCURVE",
"19 494 OFFCURVE",
"0 434 CURVE",
"108 442 OFFCURVE",
"227 447 OFFCURVE",
"335 441 CURVE SMOOTH",
"760 416 LINE",
"755 605 LINE",
"14 615 LINE"
);
}
);
width = 1040;
}
);
},
{
glyphname = kn_Dha.base;
lastChange = "2015-10-12 20:56:34 +0000";
layers = (
{
layerId = "7A0FC40B-77F8-4D14-AD08-D047673E78CB";
name = Regular;
paths = (
{
closed = 1;
nodes = (
"812 528 OFFCURVE",
"641 507 OFFCURVE",
"573 500 CURVE",
"618 468 OFFCURVE",
"664 414 OFFCURVE",
"686 362 CURVE SMOOTH",
"709 307 OFFCURVE",
"706 255 OFFCURVE",
"706 236 CURVE SMOOTH",
"706 204 OFFCURVE",
"706 168 OFFCURVE",
"690 133 CURVE",
"685 129 OFFCURVE",
"683 126 OFFCURVE",
"678 126 CURVE SMOOTH",
"673 126 OFFCURVE",
"669 129 OFFCURVE",
"669 131 CURVE",
"658 165 OFFCURVE",
"658 188 OFFCURVE",
"658 229 CURVE SMOOTH",
"658 261 OFFCURVE",
"661 274 OFFCURVE",
"666 308 CURVE",
"635 303 OFFCURVE",
"583 300 OFFCURVE",
"530 300 CURVE SMOOTH",
"468 300 OFFCURVE",
"404 304 OFFCURVE",
"379 308 CURVE",
"384 284 OFFCURVE",
"387 253 OFFCURVE",
"387 229 CURVE SMOOTH",
"387 194 OFFCURVE",
"387 164 OFFCURVE",
"376 135 CURVE",
"372 132 OFFCURVE",
"369 130 OFFCURVE",
"362 130 CURVE SMOOTH",
"356 130 OFFCURVE",
"353 134 OFFCURVE",
"350 137 CURVE",
"334 172 OFFCURVE",
"334 204 OFFCURVE",
"334 236 CURVE SMOOTH",
"334 256 OFFCURVE",
"331 312 OFFCURVE",
"357 371 CURVE SMOOTH",
"379 420 OFFCURVE",
"425 470 OFFCURVE",
"467 500 CURVE",
"399 507 OFFCURVE",
"228 528 OFFCURVE",
"177 552 CURVE",
"136 525 OFFCURVE",
"103 472 OFFCURVE",
"79 412 CURVE SMOOTH",
"47 334 OFFCURVE",
"30 286 OFFCURVE",
"30 236 CURVE SMOOTH",
"30 129 OFFCURVE",
"44 90 OFFCURVE",
"75 34 CURVE",
"106 7 OFFCURVE",
"246 -11 OFFCURVE",
"297 -11 CURVE SMOOTH",
"402 -11 OFFCURVE",
"478 23 OFFCURVE",
"514 55 CURVE",
"539 28 OFFCURVE",
"652 -11 OFFCURVE",
"743 -11 CURVE SMOOTH",
"794 -11 OFFCURVE",
"934 7 OFFCURVE",
"965 34 CURVE",
"996 90 OFFCURVE",
"1010 129 OFFCURVE",
"1010 236 CURVE SMOOTH",
"1010 289 OFFCURVE",
"991 347 OFFCURVE",
"954 429 CURVE SMOOTH",
"930 481 OFFCURVE",
"900 527 OFFCURVE",
"863 552 CURVE"
);
},
{
closed = 1;
nodes = (
"446 -12 OFFCURVE",
"400 -56 OFFCURVE",
"355 -101 CURVE",
"370 -145 OFFCURVE",
"379 -187 OFFCURVE",
"410 -209 CURVE SMOOTH",
"443 -232 OFFCURVE",
"478 -254 OFFCURVE",
"512 -254 CURVE SMOOTH",
"570 -254 OFFCURVE",
"598 -236 OFFCURVE",
"621 -208 CURVE SMOOTH",
"654 -169 OFFCURVE",
"659 -120 OFFCURVE",
"672 -71 CURVE",
"615 -39 OFFCURVE",
"571 -4 OFFCURVE",
"516 16 CURVE"
);
},
{
closed = 1;
nodes = (
"15 555 OFFCURVE",
"19 494 OFFCURVE",
"0 434 CURVE",
"108 442 OFFCURVE",
"227 447 OFFCURVE",
"335 441 CURVE SMOOTH",
"760 416 LINE",
"755 605 LINE",
"14 615 LINE"
);
}
);
width = 1040;
}
);
},
{
glyphname = kn_Na.base;
lastChange = "2015-09-03 19:02:26 +0000";
layers = (
{
layerId = "7A0FC40B-77F8-4D14-AD08-D047673E78CB";
name = Regular;
paths = (
{
closed = 1;
nodes = (
"687 529 OFFCURVE",
"681 370 OFFCURVE",
"681 332 CURVE SMOOTH",
"681 290 OFFCURVE",
"676 171 OFFCURVE",
"661 140 CURVE",
"651 131 OFFCURVE",
"642 134 OFFCURVE",
"637 134 CURVE SMOOTH",
"628 134 OFFCURVE",
"614 146 OFFCURVE",
"605 156 CURVE",
"568 207 OFFCURVE",
"545 267 OFFCURVE",
"510 312 CURVE",
"474 334 OFFCURVE",
"351 344 OFFCURVE",
"288 344 CURVE SMOOTH",
"166 344 OFFCURVE",
"96 318 OFFCURVE",
"65 298 CURVE",
"34 271 OFFCURVE",
"16 163 OFFCURVE",
"16 116 CURVE SMOOTH",
"16 90 OFFCURVE",
"20 16 OFFCURVE",
"43 -10 CURVE",
"104 10 OFFCURVE",
"253 16 OFFCURVE",
"333 6 CURVE",
"326 27 OFFCURVE",
"320 56 OFFCURVE",
"320 84 CURVE SMOOTH",
"320 104 OFFCURVE",
"324 168 OFFCURVE",
"333 181 CURVE",
"340 192 OFFCURVE",
"345 196 OFFCURVE",
"351 196 CURVE SMOOTH",
"358 196 OFFCURVE",
"361 186 OFFCURVE",
"370 180 CURVE",
"397 139 OFFCURVE",
"438 77 OFFCURVE",
"481 21 CURVE",
"527 -3 OFFCURVE",
"549 -9 OFFCURVE",
"660 -9 CURVE",
"763 -9 OFFCURVE",
"857 8 OFFCURVE",
"925 48 CURVE",
"981 124 OFFCURVE",
"983 228 OFFCURVE",
"983 333 CURVE SMOOTH",
"983 404 OFFCURVE",
"972 529 OFFCURVE",
"965 577 CURVE",
"926 576 OFFCURVE",
"897 575 OFFCURVE",
"857 575 CURVE SMOOTH",
"800 575 OFFCURVE",
"742 577 OFFCURVE",
"681 584 CURVE"
);
},
{
closed = 1;
nodes = (
"18 547 OFFCURVE",
"6 494 OFFCURVE",
"0 434 CURVE",
"108 442 OFFCURVE",
"229 447 OFFCURVE",
"337 441 CURVE SMOOTH",
"743 417 LINE",
"715 605 LINE",
"12 615 LINE"
);
}
);
width = 1023;
}
);
},
{
glyphname = kn_Pa.base;
lastChange = "2015-09-03 19:02:26 +0000";
layers = (
{
layerId = "7A0FC40B-77F8-4D14-AD08-D047673E78CB";
name = Regular;
paths = (
{
closed = 1;
nodes = (
"932 373 OFFCURVE",
"761 352 OFFCURVE",
"693 345 CURVE",
"702 326 OFFCURVE",
"709 304 OFFCURVE",
"713 278 CURVE SMOOTH",
"715 265 OFFCURVE",
"716 251 OFFCURVE",
"716 236 CURVE SMOOTH",
"716 204 OFFCURVE",
"716 171 OFFCURVE",
"700 136 CURVE",
"695 133 OFFCURVE",
"681 130 OFFCURVE",
"678 130 CURVE SMOOTH",
"673 130 OFFCURVE",
"665 130 OFFCURVE",
"660 132 CURVE",
"649 156 OFFCURVE",
"648 170 OFFCURVE",
"648 191 CURVE SMOOTH",
"648 213 OFFCURVE",
"651 230 OFFCURVE",
"656 254 CURVE",
"625 249 OFFCURVE",
"583 246 OFFCURVE",
"530 246 CURVE SMOOTH",
"468 246 OFFCURVE",
"414 250 OFFCURVE",
"389 254 CURVE",
"394 230 OFFCURVE",
"397 215 OFFCURVE",
"397 191 CURVE SMOOTH",
"397 176 OFFCURVE",
"397 152 OFFCURVE",
"386 133 CURVE",
"384 130 OFFCURVE",
"376 130 OFFCURVE",
"372 130 CURVE SMOOTH",
"365 130 OFFCURVE",
"354 132 OFFCURVE",
"350 136 CURVE",
"334 171 OFFCURVE",
"334 204 OFFCURVE",
"334 236 CURVE SMOOTH",
"334 251 OFFCURVE",
"335 265 OFFCURVE",
"337 278 CURVE SMOOTH",
"341 304 OFFCURVE",
"348 326 OFFCURVE",
"357 345 CURVE",
"289 352 OFFCURVE",
"118 373 OFFCURVE",
"67 397 CURVE",
"56 374 OFFCURVE",
"47 353 OFFCURVE",
"42 327 CURVE SMOOTH",
"33 283 OFFCURVE",
"30 248 OFFCURVE",
"30 196 CURVE SMOOTH",
"30 149 OFFCURVE",
"44 90 OFFCURVE",
"75 34 CURVE",
"106 7 OFFCURVE",
"286 -11 OFFCURVE",
"337 -11 CURVE SMOOTH",
"442 -11 OFFCURVE",
"478 23 OFFCURVE",
"514 55 CURVE",
"539 28 OFFCURVE",
"612 -11 OFFCURVE",
"703 -11 CURVE SMOOTH",
"754 -11 OFFCURVE",
"944 7 OFFCURVE",
"975 34 CURVE",
"1006 90 OFFCURVE",
"1020 149 OFFCURVE",
"1020 196 CURVE SMOOTH",
"1020 248 OFFCURVE",
"1017 283 OFFCURVE",
"1008 327 CURVE SMOOTH",
"1003 353 OFFCURVE",
"994 374 OFFCURVE",
"983 397 CURVE"
);
},
{
closed = 1;
nodes = (
"49 586 OFFCURVE",
"0 477 OFFCURVE",
"0 440 CURVE",
"108 448 OFFCURVE",
"243 456 OFFCURVE",
"351 447 CURVE SMOOTH",
"743 416 LINE",
"718 605 LINE",
"574 605 LINE",
"13 621 LINE"
);
},
{
closed = 1;
nodes = (
"383 425 LINE",
"397 335 OFFCURVE",
"399 314 OFFCURVE",
"396 268 CURVE",
"445 271 OFFCURVE",
"473 273 OFFCURVE",
"516 273 CURVE SMOOTH",
"558 273 OFFCURVE",
"592 270 OFFCURVE",
"650 264 CURVE",
"697 438 LINE"
);
}
);
width = 1050;
}
);
},
{
glyphname = kn_Pha.base;
lastChange = "2015-10-12 20:56:34 +0000";
layers = (
{
layerId = "7A0FC40B-77F8-4D14-AD08-D047673E78CB";
name = Regular;
paths = (
{
closed = 1;
nodes = (
"932 373 OFFCURVE",
"761 352 OFFCURVE",
"693 345 CURVE",
"702 326 OFFCURVE",
"709 304 OFFCURVE",
"713 278 CURVE SMOOTH",
"715 265 OFFCURVE",
"716 251 OFFCURVE",
"716 236 CURVE SMOOTH",
"716 204 OFFCURVE",
"716 171 OFFCURVE",
"700 136 CURVE",
"695 133 OFFCURVE",
"681 130 OFFCURVE",
"678 130 CURVE SMOOTH",
"673 130 OFFCURVE",
"665 130 OFFCURVE",
"660 132 CURVE",
"649 156 OFFCURVE",
"648 170 OFFCURVE",
"648 191 CURVE SMOOTH",
"648 213 OFFCURVE",
"651 230 OFFCURVE",
"656 254 CURVE",
"625 249 OFFCURVE",
"583 246 OFFCURVE",
"530 246 CURVE SMOOTH",
"468 246 OFFCURVE",
"414 250 OFFCURVE",
"389 254 CURVE",
"394 230 OFFCURVE",
"397 215 OFFCURVE",
"397 191 CURVE SMOOTH",
"397 176 OFFCURVE",
"397 152 OFFCURVE",
"386 133 CURVE",
"384 130 OFFCURVE",
"376 130 OFFCURVE",
"372 130 CURVE SMOOTH",
"365 130 OFFCURVE",
"354 132 OFFCURVE",
"350 136 CURVE",
"334 171 OFFCURVE",
"334 204 OFFCURVE",
"334 236 CURVE SMOOTH",
"334 251 OFFCURVE",
"335 265 OFFCURVE",
"337 278 CURVE SMOOTH",
"341 304 OFFCURVE",
"348 326 OFFCURVE",
"357 345 CURVE",
"289 352 OFFCURVE",
"118 373 OFFCURVE",
"67 397 CURVE",
"56 374 OFFCURVE",
"47 353 OFFCURVE",
"42 327 CURVE SMOOTH",
"33 283 OFFCURVE",
"30 248 OFFCURVE",
"30 196 CURVE SMOOTH",
"30 149 OFFCURVE",
"44 90 OFFCURVE",
"75 34 CURVE",
"106 7 OFFCURVE",
"286 -11 OFFCURVE",
"337 -11 CURVE SMOOTH",
"442 -11 OFFCURVE",
"478 23 OFFCURVE",
"514 55 CURVE",
"539 28 OFFCURVE",
"612 -11 OFFCURVE",
"703 -11 CURVE SMOOTH",
"754 -11 OFFCURVE",
"944 7 OFFCURVE",
"975 34 CURVE",
"1006 90 OFFCURVE",
"1020 149 OFFCURVE",
"1020 196 CURVE SMOOTH",
"1020 248 OFFCURVE",
"1017 283 OFFCURVE",
"1008 327 CURVE SMOOTH",
"1003 353 OFFCURVE",
"994 374 OFFCURVE",
"983 397 CURVE"
);
},
{
closed = 1;
nodes = (
"447 -12 OFFCURVE",
"401 -56 OFFCURVE",
"356 -101 CURVE",
"371 -145 OFFCURVE",
"380 -187 OFFCURVE",
"411 -209 CURVE SMOOTH",
"444 -232 OFFCURVE",
"479 -254 OFFCURVE",
"513 -254 CURVE SMOOTH",
"571 -254 OFFCURVE",
"599 -236 OFFCURVE",
"622 -208 CURVE SMOOTH",
"655 -169 OFFCURVE",
"660 -120 OFFCURVE",
"673 -71 CURVE",
"616 -39 OFFCURVE",
"572 -4 OFFCURVE",
"517 16 CURVE"
);
},
{
closed = 1;
nodes = (
"49 586 OFFCURVE",
"0 477 OFFCURVE",
"0 440 CURVE",
"108 448 OFFCURVE",
"243 456 OFFCURVE",
"351 447 CURVE SMOOTH",
"743 416 LINE",
"718 605 LINE",
"555 605 LINE",
"13 621 LINE"
);
},
{
closed = 1;
nodes = (
"383 425 LINE",
"397 335 OFFCURVE",
"399 314 OFFCURVE",
"396 268 CURVE",
"445 271 OFFCURVE",
"473 273 OFFCURVE",
"516 273 CURVE SMOOTH",
"558 273 OFFCURVE",
"592 270 OFFCURVE",
"650 264 CURVE",
"697 438 LINE"
);
}
);
width = 1050;
}
);
},
{
glyphname = kn_Bha.base;
lastChange = "2015-10-12 20:56:34 +0000";
layers = (
{
layerId = "7A0FC40B-77F8-4D14-AD08-D047673E78CB";
name = Regular;
paths = (
{
closed = 1;
nodes = (
"691 550 OFFCURVE",
"685 369 OFFCURVE",
"685 331 CURVE SMOOTH",
"685 289 OFFCURVE",
"680 164 OFFCURVE",
"665 133 CURVE",
"664 131 OFFCURVE",
"652 130 OFFCURVE",
"648 130 CURVE SMOOTH",
"646 130 OFFCURVE",
"634 130 OFFCURVE",
"633 132 CURVE",
"622 156 OFFCURVE",
"621 170 OFFCURVE",
"621 191 CURVE SMOOTH",
"621 213 OFFCURVE",
"624 230 OFFCURVE",
"629 254 CURVE",
"598 249 OFFCURVE",
"556 246 OFFCURVE",
"503 246 CURVE SMOOTH",
"441 246 OFFCURVE",
"387 250 OFFCURVE",
"362 254 CURVE",
"367 230 OFFCURVE",
"370 215 OFFCURVE",
"370 191 CURVE SMOOTH",
"370 176 OFFCURVE",
"370 152 OFFCURVE",
"359 133 CURVE",
"357 130 OFFCURVE",
"352 130 OFFCURVE",
"347 130 CURVE SMOOTH",
"341 130 OFFCURVE",
"336 131 OFFCURVE",
"331 133 CURVE",
"321 141 OFFCURVE",
"312 176 OFFCURVE",
"312 208 CURVE SMOOTH",
"313 239 OFFCURVE",
"325 270 OFFCURVE",
"336 273 CURVE",
"400 283 OFFCURVE",
"448 292 OFFCURVE",
"513 312 CURVE",
"526 348 OFFCURVE",
"538 387 OFFCURVE",
"538 430 CURVE SMOOTH",
"538 477 OFFCURVE",
"535 519 OFFCURVE",
"506 563 CURVE",
"451 595 OFFCURVE",
"356 605 OFFCURVE",
"251 605 CURVE SMOOTH",
"164 605 OFFCURVE",
"96 597 OFFCURVE",
"24 580 CURVE",
"43 531 OFFCURVE",
"48 482 OFFCURVE",
"51 435 CURVE",
"76 442 OFFCURVE",
"110 445 OFFCURVE",
"146 445 CURVE SMOOTH",
"175 445 OFFCURVE",
"207 443 OFFCURVE",
"241 439 CURVE",
"241 424 OFFCURVE",
"245 394 OFFCURVE",
"237 383 CURVE",
"158 350 OFFCURVE",
"86 323 OFFCURVE",
"70 309 CURVE SMOOTH",
"56 297 OFFCURVE",
"32 253 OFFCURVE",
"32 195 CURVE SMOOTH",
"32 150 OFFCURVE",
"36 94 OFFCURVE",
"73 38 CURVE",
"147 0 OFFCURVE",
"197 -11 OFFCURVE",
"293 -11 CURVE SMOOTH",
"398 -11 OFFCURVE",
"451 23 OFFCURVE",
"487 55 CURVE",
"512 28 OFFCURVE",
"575 -11 OFFCURVE",
"666 -11 CURVE SMOOTH",
"764 -11 OFFCURVE",
"861 7 OFFCURVE",
"929 47 CURVE",
"985 123 OFFCURVE",
"987 227 OFFCURVE",
"987 332 CURVE SMOOTH",
"987 403 OFFCURVE",
"937 549 OFFCURVE",
"930 597 CURVE",
"891 596 OFFCURVE",
"901 596 OFFCURVE",
"861 596 CURVE SMOOTH",
"804 596 OFFCURVE",
"746 598 OFFCURVE",
"685 605 CURVE"
);
},
{
closed = 1;
nodes = (
"418 -12 OFFCURVE",
"372 -56 OFFCURVE",
"327 -101 CURVE",
"342 -145 OFFCURVE",
"351 -187 OFFCURVE",
"382 -209 CURVE SMOOTH",
"415 -232 OFFCURVE",
"450 -254 OFFCURVE",
"484 -254 CURVE SMOOTH",
"542 -254 OFFCURVE",
"570 -236 OFFCURVE",
"593 -208 CURVE SMOOTH",
"626 -169 OFFCURVE",
"631 -120 OFFCURVE",
"644 -71 CURVE",
"587 -39 OFFCURVE",
"543 -4 OFFCURVE",
"488 16 CURVE"
);
},
{
closed = 1;
nodes = (
"536 555 OFFCURVE",
"560 481 OFFCURVE",
"561 421 CURVE",
"660 432 OFFCURVE",
"692 416 OFFCURVE",
"747 416 CURVE",
"729 605 LINE",
"525 615 LINE"
);
}
);
width = 1027;
}
);
},
{
glyphname = kn_Ra.base;
lastChange = "2015-09-03 19:02:26 +0000";
layers = (
{
layerId = "7A0FC40B-77F8-4D14-AD08-D047673E78CB";
name = Regular;
paths = (
{
closed = 1;
nodes = (
"184 581 OFFCURVE",
"155 566 OFFCURVE",
"120 545 CURVE",
"80 491 OFFCURVE",
"40 374 OFFCURVE",
"40 301 CURVE SMOOTH",
"40 200 OFFCURVE",
"58 97 OFFCURVE",
"114 29 CURVE",
"181 0 OFFCURVE",
"357 -12 OFFCURVE",
"494 -12 CURVE SMOOTH",
"614 -12 OFFCURVE",
"739 11 OFFCURVE",
"807 57 CURVE",
"839 128 OFFCURVE",
"854 199 OFFCURVE",
"854 287 CURVE SMOOTH",
"854 368 OFFCURVE",
"834 477 OFFCURVE",
"789 542 CURVE",
"755 564 OFFCURVE",
"720 580 OFFCURVE",
"658 590 CURVE",
"248 591 LINE"
);
},
{
closed = 1;
nodes = (
"462 446 OFFCURVE",
"527 444 OFFCURVE",
"534 438 CURVE",
"544 419 OFFCURVE",
"549 350 OFFCURVE",
"549 297 CURVE SMOOTH",
"549 208 OFFCURVE",
"534 129 OFFCURVE",
"503 129 CURVE SMOOTH",
"464 129 OFFCURVE",
"364 133 OFFCURVE",
"357 141 CURVE",
"350 153 OFFCURVE",
"344 229 OFFCURVE",
"344 274 CURVE SMOOTH",
"344 315 OFFCURVE",
"348 398 OFFCURVE",
"363 432 CURVE",
"373 441 OFFCURVE",
"426 446 OFFCURVE",
"450 446 CURVE SMOOTH"
);
},
{
closed = 1;
nodes = (
"415 605 LINE",
"10 591 LINE",
"21 529 OFFCURVE",
"11 467 OFFCURVE",
"0 405 CURVE",
"330 422 LINE",
"440 485 LINE",
"581 424 LINE",
"614 416 LINE",
"568 605 LINE"
);
}
);
width = 894;
}
);
},
